<svg width="39" height="37" viewBox="0 0 39 37" fill="none" xmlns="http://www.w3.org/2000/svg">
<path d="M26.3333 21.4375C27.1819 21.4375 27.8837 21.1601 28.4385 20.6052C28.9934 20.0503 29.2708 19.3486 29.2708 18.5C29.2708 17.6514 28.9934 16.9497 28.4385 16.3948C27.8837 15.8399 27.1819 15.5625 26.3333 15.5625C25.4847 15.5625 24.783 15.8399 24.2281 16.3948C23.6733 16.9497 23.3958 17.6514 23.3958 18.5C23.3958 19.3486 23.6733 20.0503 24.2281 20.6052C24.783 21.1601 25.4847 21.4375 26.3333 21.4375ZM4.79167 36.125C3.71458 36.125 2.79253 35.7415 2.02552 34.9745C1.25851 34.2075 0.875 33.2854 0.875 32.2083V4.79167C0.875 3.71458 1.25851 2.79253 2.02552 2.02552C2.79253 1.25851 3.71458 0.875 4.79167 0.875H32.2083C33.2854 0.875 34.2075 1.25851 34.9745 2.02552C35.7415 2.79253 36.125 3.71458 36.125 4.79167V9.6875H32.2083V4.79167H4.79167V32.2083H32.2083V27.3125H36.125V32.2083C36.125 33.2854 35.7415 34.2075 34.9745 34.9745C34.2075 35.7415 33.2854 36.125 32.2083 36.125H4.79167ZM20.4583 28.2917C19.3812 28.2917 18.4592 27.9082 17.6922 27.1411C16.9252 26.3741 16.5417 25.4521 16.5417 24.375V12.625C16.5417 11.5479 16.9252 10.6259 17.6922 9.85885C18.4592 9.09184 19.3812 8.70833 20.4583 8.70833H34.1667C35.2437 8.70833 36.1658 9.09184 36.9328 9.85885C37.6998 10.6259 38.0833 11.5479 38.0833 12.625V24.375C38.0833 25.4521 37.6998 26.3741 36.9328 27.1411C36.1658 27.9082 35.2437 28.2917 34.1667 28.2917H20.4583ZM34.1667 24.375V12.625H20.4583V24.375H34.1667Z" fill="#383838"/>
</svg>
