<svg width="18" height="16" viewBox="0 0 18 16" fill="none" xmlns="http://www.w3.org/2000/svg">
<path fill-rule="evenodd" clip-rule="evenodd" d="M11 4C11 6.20914 9.20914 8 7 8C4.79086 8 3 6.20914 3 4C3 1.79086 4.79086 0 7 0C9.20914 0 11 1.79086 11 4ZM7 9C3.13401 9 0 11.2386 0 14C0 15.1046 0.895431 16 2 16H12C13.1046 16 14 15.1046 14 14C14 11.2386 10.866 9 7 9ZM15 2C15.5523 2 16 2.44772 16 3V4H17C17.5523 4 18 4.44772 18 5C18 5.55228 17.5523 6 17 6H16V7C16 7.55228 15.5523 8 15 8C14.4477 8 14 7.55228 14 7V6H13C12.4477 6 12 5.55228 12 5C12 4.44771 12.4477 4 13 4H14V3C14 2.44772 14.4477 2 15 2Z" fill="white"/>
</svg>
