<svg width="32" height="32" viewBox="0 0 32 32" fill="none" xmlns="http://www.w3.org/2000/svg">
<rect width="32" height="32" rx="4" fill="#2A902D"/>
<mask id="mask0_148_34097" style="mask-type:alpha" maskUnits="userSpaceOnUse" x="8" y="8" width="16" height="16">
<path d="M22.9944 14.9972H16.9816V9C16.9816 8.45 16.5316 8 15.9816 8C15.4316 8 14.9816 8.45 14.9816 9V14.9972H9C8.45 14.9972 8 15.4472 8 15.9972C8 16.5472 8.45 16.9972 9 16.9972H14.9816V22.9944C14.9816 23.5444 15.4316 23.9944 15.9816 23.9944C16.5316 23.9944 16.9816 23.5444 16.9816 22.9944V16.9972H22.9944C23.5444 16.9972 23.9944 16.5472 23.9944 15.9972C23.9944 15.4472 23.5444 14.9972 22.9944 14.9972Z" fill="white"/>
</mask>
<g mask="url(#mask0_148_34097)">
<rect x="8" y="8" width="16" height="16" fill="white"/>
</g>
</svg>
