<svg width="69" height="70" viewBox="0 0 69 70" fill="none" xmlns="http://www.w3.org/2000/svg">
<mask id="mask0_2_65271" style="mask-type:alpha" maskUnits="userSpaceOnUse" x="0" y="0" width="69" height="70">
<path d="M34.6159 70C53.6042 70 68.9974 54.33 68.9974 35C68.9974 15.67 53.6042 0 34.6159 0C15.6275 0 0.234375 15.67 0.234375 35C0.234375 54.33 15.6275 70 34.6159 70Z" fill="#F9D129"/>
</mask>
<g mask="url(#mask0_2_65271)">
<path d="M34.6159 70C53.6042 70 68.9974 54.33 68.9974 35C68.9974 15.67 53.6042 0 34.6159 0C15.6275 0 0.234375 15.67 0.234375 35C0.234375 54.33 15.6275 70 34.6159 70Z" fill="url(#paint0_linear_2_65271)"/>
<path d="M34.6263 67.9745C52.5159 67.9745 67.0182 53.2108 67.0182 34.999C67.0182 16.7871 52.5159 2.02344 34.6263 2.02344C16.7367 2.02344 2.23438 16.7871 2.23438 34.999C2.23438 53.2108 16.7367 67.9745 34.6263 67.9745Z" fill="white"/>
<path d="M34.6276 67.5374C52.2785 67.5374 66.5873 52.9713 66.5873 35.0031C66.5873 17.0349 52.2785 2.46875 34.6276 2.46875C16.9768 2.46875 2.66797 17.0349 2.66797 35.0031C2.66797 52.9713 16.9768 67.5374 34.6276 67.5374Z" fill="#8BC441"/>
<path style="mix-blend-mode:multiply" d="M34.6138 67.5374C52.2656 67.5374 66.5753 52.9713 66.5753 35.0031C66.5753 17.0349 52.2656 2.46875 34.6138 2.46875C16.962 2.46875 2.65234 17.0349 2.65234 35.0031C2.65234 52.9713 16.962 67.5374 34.6138 67.5374Z" fill="url(#paint1_radial_2_65271)"/>
<path d="M13.6289 49.5859C13.6289 49.5859 29.6784 50.6654 43.6614 59.4513C43.6614 59.4513 42.2316 61.9179 40.4835 62.5341C40.4835 62.5341 28.8039 52.0525 13.6289 49.5859Z" fill="white"/>
<path d="M55.095 49.5859C55.095 49.5859 39.0455 50.6654 25.0625 59.4513C25.0625 59.4513 26.4923 61.9179 28.2404 62.5341C28.2404 62.5341 39.92 52.0525 55.095 49.5859Z" fill="white"/>
<path d="M16.2773 22.4061C20.7747 17.8082 23.6632 16.9903 27.2588 16.4174C23.5754 18.7974 20.1353 24.3321 21.2069 28.2272C23.1522 24.0944 26.548 20.0556 29.6789 18.5838C27.9082 21.1111 27.8512 24.2593 29.5559 26.9478C29.9511 23.4598 32.3512 20.1081 34.3571 17.8635C36.3629 20.109 38.7631 23.4598 39.1583 26.9478C40.863 24.2593 40.806 21.1111 39.0353 18.5838C42.1661 20.0556 45.561 24.0944 47.5072 28.2272C48.5797 24.3321 45.1387 18.7974 41.4562 16.4174C45.0528 16.9913 47.9404 17.8082 52.4377 22.4061C50.9537 16.2553 45.7283 14.124 41.5512 13.3632C46.148 12.9626 47.0604 13.4378 51.1201 15.1482C46.7114 10.7373 43.6212 9.94245 39.2062 10.3717C39.9631 9.69929 40.6866 9.33548 41.7989 9.03706C39.9468 8.29469 37.0493 8.68521 35.9216 9.78311C35.9216 9.78311 35.7 7.76232 34.3706 6.94811V6.92969C34.3652 6.93245 34.3616 6.93614 34.3562 6.93982C34.3507 6.93706 34.3471 6.93337 34.3417 6.92969V6.94903C33.0123 7.76324 32.7907 9.78403 32.7907 9.78403C31.663 8.68614 28.7664 8.29561 26.9134 9.03798C28.0266 9.3364 28.7492 9.69929 29.5061 10.3726C25.0911 9.94245 22.001 10.7382 17.5923 15.1492C21.6519 13.4388 22.5644 12.9626 27.1612 13.3642C22.9867 14.124 17.7614 16.2553 16.2773 22.4061Z" fill="white"/>
<path d="M36.0624 25.3853C35.8254 24.7692 34.43 21.5602 34.4309 21.5547C34.4318 21.5602 31.2992 27.3582 31.405 30.4438C31.4502 31.7646 31.84 32.984 32.4468 33.813C32.8944 34.4301 33.3023 34.548 33.9209 34.7046C34.0638 34.7792 34.355 34.7589 34.3938 34.629C35.3543 31.4026 34.5033 28.1024 34.5033 28.1024C34.5033 28.1024 35.8091 30.0275 35.546 34.6106C35.536 34.8068 35.6464 34.8178 35.669 34.8142C37.7544 34.501 37.7463 31.4772 37.6829 30.1546C37.6178 28.819 36.6773 26.6094 36.0624 25.3853Z" fill="white"/>
<path d="M25.5656 43.5073C26.6282 43.9291 31.9096 43.7854 32.6195 49.5991C31.9991 49.0981 30.7122 48.9369 29.8449 48.7665C23.7695 47.5719 23.3888 42.554 23.207 41.5703C23.3671 41.8503 23.7958 42.4416 27.5144 42.5964C30.071 42.7023 35.3588 43.2098 35.5821 52.1072L34.6669 52.5189L33.7463 52.1072C34.0927 42.2491 26.5685 43.6998 25.5656 43.5073Z" fill="white"/>
<path d="M41.7047 42.5954C39.7586 42.6765 36.5273 42.8948 34.8516 45.7998C35.1437 46.3358 35.3752 46.9327 35.5452 47.5903C37.6306 43.055 42.7782 43.6749 43.6536 43.5064C42.7845 43.8518 39.0541 44.0185 36.9542 47.2035C36.5038 47.886 35.878 49.7566 35.8798 49.7852C36.5391 49.2979 38.5223 48.9341 39.3742 48.7665C45.4496 47.5719 45.8303 42.554 46.0121 41.5703C45.852 41.8494 45.4234 42.4407 41.7047 42.5954Z" fill="white"/>
<path d="M34.9061 40.8475C34.6556 38.8488 35.3592 36.9119 36.4688 35.5911C37.5785 34.2703 39.0372 33.6274 40.4905 33.3981C40.9752 33.3216 41.4663 33.2866 41.9365 33.1107C42.4068 32.9348 42.8671 32.6004 43.1474 32.0469C43.0073 34.2813 41.147 42.7062 35.4351 42.6381C35.3022 40.7398 38.0505 38.1931 39.445 37.401C36.4119 38.0752 35.3031 40.2074 34.9061 40.8475Z" fill="white"/>
<path d="M34.253 40.8475C34.5036 38.8488 33.8 36.9119 32.6903 35.5911C31.5807 34.2703 30.122 33.6274 28.6687 33.3981C28.184 33.3216 27.6929 33.2866 27.2226 33.1107C26.7515 32.9357 26.2921 32.6004 26.0117 32.0469C26.1519 34.2813 28.0121 42.7062 33.724 42.6381C33.8569 40.7398 31.1086 38.0503 29.7141 37.2582C32.7464 37.9324 33.856 40.2074 34.253 40.8475Z" fill="white"/>
</g>
<defs>
<linearGradient id="paint0_linear_2_65271" x1="3.38874" y1="49.6539" x2="66.2476" y2="21.2206" gradientUnits="userSpaceOnUse">
<stop offset="0.0056" stop-color="#BD890F"/>
<stop offset="0.2528" stop-color="white" stop-opacity="0"/>
<stop offset="0.2891" stop-color="#FAF6EE" stop-opacity="0.1058"/>
<stop offset="0.3612" stop-color="#EEE0C1" stop-opacity="0.3164"/>
<stop offset="0.4625" stop-color="#DABD78" stop-opacity="0.6118"/>
<stop offset="0.5879" stop-color="#BE8C16" stop-opacity="0.9779"/>
<stop offset="0.5955" stop-color="#BD890F"/>
<stop offset="0.7564" stop-color="#D6B66C" stop-opacity="0.7264"/>
<stop offset="1" stop-color="white" stop-opacity="0.312"/>
</linearGradient>
<radialGradient id="paint1_radial_2_65271" cx="0" cy="0" r="1" gradientUnits="userSpaceOnUse" gradientTransform="translate(34.2383 34.5164) scale(32.2558 32.832)">
<stop offset="0.0374" stop-color="#FFEFDF" stop-opacity="0"/>
<stop offset="0.1175" stop-color="#F9EDDB" stop-opacity="0.0909"/>
<stop offset="0.2285" stop-color="#E7E6D0" stop-opacity="0.217"/>
<stop offset="0.3578" stop-color="#C9DBBF" stop-opacity="0.3637"/>
<stop offset="0.5008" stop-color="#A0CCA6" stop-opacity="0.5261"/>
<stop offset="0.6551" stop-color="#6BB987" stop-opacity="0.7013"/>
<stop offset="0.8163" stop-color="#2CA261" stop-opacity="0.8843"/>
<stop offset="0.9182" stop-color="#009247"/>
</radialGradient>
</defs>
</svg>
