<svg width="38" height="22" viewBox="0 0 38 22" fill="none" xmlns="http://www.w3.org/2000/svg">
<path d="M11.2643 21.3733C8.36025 21.3733 5.89814 20.3506 3.87795 18.3052C1.85775 16.2599 0.847656 13.783 0.847656 10.8747C0.847656 7.96631 1.85302 5.48667 3.86374 3.43575C5.87455 1.38483 8.32288 0.359375 11.2087 0.359375H29.5421C31.6372 0.359375 33.4203 1.10458 34.8912 2.595C36.3621 4.08539 37.0976 5.87704 37.0976 7.96996C37.0976 10.0629 36.3621 11.8501 34.8912 13.3316C33.4203 14.8131 31.6372 15.5538 29.5421 15.5538H13.0143C11.7047 15.5538 10.5925 15.0988 9.67791 14.1888C8.76327 13.2788 8.30595 12.1723 8.30595 10.8693C8.30595 9.56639 8.76892 8.46121 9.69486 7.55379C10.6208 6.6464 11.7458 6.19271 13.0699 6.19271H29.5421V9.16492H13.0421C12.5745 9.16492 12.1705 9.32838 11.8302 9.65529C11.49 9.98221 11.3198 10.3873 11.3198 10.8706C11.3198 11.3538 11.4853 11.7529 11.8164 12.0677C12.1474 12.3825 12.5467 12.5399 13.0143 12.5399H29.5537C30.826 12.5399 31.9014 12.0974 32.7799 11.2125C33.6584 10.3275 34.0977 9.24415 34.0977 7.96246C34.0977 6.69926 33.6573 5.6186 32.7765 4.72046C31.8958 3.82232 30.8176 3.37325 29.5421 3.37325H11.1627C9.10132 3.37325 7.3691 4.10242 5.96607 5.56075C4.56302 7.01911 3.86149 8.78879 3.86149 10.8698C3.86149 12.9647 4.57227 14.732 5.99382 16.1719C7.41538 17.6117 9.16614 18.3316 11.2461 18.3316H29.5421V21.3733H11.2643Z" fill="#383838"/>
</svg>
