<svg width="45" height="45" viewBox="0 0 45 45" fill="none" xmlns="http://www.w3.org/2000/svg">
<path d="M23.4538 31.6997C23.1612 31.8493 22.8374 31.9286 22.5087 31.9286C22.5038 31.9286 22.4988 31.9286 22.4939 31.9286C22.1652 31.9286 21.8414 31.8491 21.5487 31.6997C16.1113 28.9225 12.6445 23.3174 12.6445 17.1562V19.418C12.6445 25.579 16.1113 31.1843 21.5487 33.9615C21.8414 34.1111 22.1652 34.1903 22.4939 34.1903C22.4988 34.1903 22.5038 34.1903 22.5087 34.1903C22.8374 34.1903 23.1612 34.1109 23.4538 33.9615C28.8911 31.1843 32.3545 25.5792 32.3545 19.4182V17.1562C32.3545 23.3172 28.8911 28.9225 23.4538 31.6997Z" fill="#EBE7F2"/>
<path d="M23.8443 36.5367C23.4321 36.7473 22.9761 36.8591 22.5131 36.8591C22.5062 36.8591 22.4994 36.8591 22.4923 36.8591C22.0293 36.8591 21.5735 36.7473 21.1612 36.5367C13.5034 32.6256 8.62109 24.7314 8.62109 16.0547V18.7025C8.62109 27.3792 13.5036 35.2734 21.1612 39.1845C21.5734 39.3951 22.0293 39.5069 22.4923 39.5069C22.4992 39.5069 22.5061 39.5069 22.5131 39.5069C22.9761 39.5069 23.4321 39.3951 23.8443 39.1845C31.5018 35.2734 36.3796 27.3792 36.3796 18.7025V16.0547C36.3796 24.7314 31.5017 32.6256 23.8443 36.5367Z" fill="#EBE7F2"/>
<path d="M35.8359 9.60617L23.2025 5.6532C22.7418 5.51135 22.255 5.51135 21.7927 5.65373L9.16107 9.60617C8.58328 9.78705 8.17969 10.3372 8.17969 10.9439V18.7044C8.17969 23.0334 9.37729 27.2722 11.6431 30.9624C13.9001 34.6385 17.1217 37.6176 20.9595 39.5778C21.4339 39.82 21.9634 39.9481 22.4906 39.9483H22.5113C23.0385 39.9483 23.5678 39.8202 24.0422 39.5778C27.8793 37.618 31.1 34.6387 33.356 30.9624C35.6202 27.2727 36.8169 23.0339 36.8169 18.7044V10.944C36.8173 10.3372 36.4137 9.78722 35.8359 9.60617ZM35.9384 18.7046C35.9384 27.2231 31.2269 34.9215 23.6426 38.7952C23.2913 38.9746 22.9001 39.0696 22.5113 39.0696H22.4907C22.1019 39.0696 21.7106 38.9746 21.3592 38.7952C13.772 34.9201 9.05859 27.2217 9.05859 18.7046V10.944C9.05859 10.7175 9.20871 10.5123 9.42352 10.445L22.053 6.49326C22.1989 6.44844 22.3491 6.42593 22.4988 6.42593C22.6482 6.42593 22.7973 6.44808 22.9418 6.49256L35.5731 10.445C35.7881 10.5123 35.9382 10.7175 35.9382 10.944L35.9384 18.7046Z" fill="#846F75"/>
<path d="M34.4405 11.2653L32.2572 12.9533C32.1795 12.905 32.0974 12.8631 32.0079 12.8352L23.0367 10.028C23.0051 10.0183 22.9733 10.0104 22.9415 10.0025V7.4707C22.9415 7.22795 22.7448 7.03125 22.502 7.03125C22.2593 7.03125 22.0626 7.22795 22.0626 7.4707V10.0014C22.0284 10.0099 21.9943 10.0183 21.9604 10.0288L12.9912 12.8352C12.9012 12.8633 12.8186 12.9057 12.7405 12.9542L10.5559 11.2653C10.3636 11.1168 10.0878 11.1523 9.93944 11.3442C9.79109 11.5362 9.82624 11.8123 10.0184 11.9607L12.2334 13.6731C12.2169 13.7493 12.2051 13.827 12.2051 13.9066V19.417C12.2051 25.7484 15.7088 31.4712 21.3489 34.3517C21.5725 34.4658 21.8135 34.5417 22.0626 34.5855V37.1777C22.0626 37.4205 22.2593 37.6172 22.502 37.6172C22.7448 37.6172 22.9415 37.4205 22.9415 37.1777V34.5864C23.1879 34.5428 23.4294 34.4665 23.6537 34.3519C29.2917 31.4722 32.7942 25.7495 32.7942 19.4171V13.9068C32.7942 13.8264 32.7824 13.7482 32.7655 13.6716L34.9783 11.9609C35.1702 11.8123 35.2055 11.5363 35.0572 11.3444C34.9085 11.1521 34.6327 11.1169 34.4405 11.2653ZM31.9151 19.4171C31.9151 25.4176 28.5963 30.8405 23.2538 33.5691C22.8035 33.7992 22.2251 33.8126 21.7486 33.5691C16.4042 30.8394 13.084 25.4167 13.084 19.4171V13.9068C13.084 13.8009 13.1538 13.7053 13.2538 13.674L22.2208 10.8682C22.3123 10.8401 22.4062 10.826 22.5001 10.826C22.5932 10.826 22.6864 10.8399 22.7762 10.8675L31.7451 13.674C31.8451 13.7053 31.9149 13.8011 31.9149 13.9068L31.9151 19.4171Z" fill="#846F75"/>
<path d="M25.928 19.6941H24.9886V17.2856C24.9886 15.9133 23.8722 14.7969 22.4999 14.7969C21.1276 14.7969 20.0112 15.9133 20.0112 17.2856V19.6941H19.0718C18.8811 19.6941 18.7266 19.8487 18.7266 20.0394V26.1996C18.7266 26.3904 18.8811 26.5449 19.0718 26.5449H25.928C26.1187 26.5449 26.2732 26.3904 26.2732 26.1996V20.0394C26.2732 19.8487 26.1187 19.6941 25.928 19.6941ZM20.814 19.694V17.2856C20.814 16.3561 21.5704 15.5997 22.4999 15.5997C23.4294 15.5997 24.1858 16.3561 24.1858 17.2856V19.6941L20.814 19.694ZM22.9414 22.9076V24.384C22.9414 24.6278 22.7437 24.8255 22.4999 24.8255C22.2561 24.8255 22.0583 24.6278 22.0583 24.384V22.9076C21.7946 22.7548 21.6168 22.4703 21.6168 22.1437C21.6168 21.6559 22.0121 21.2605 22.4999 21.2605C22.9877 21.2605 23.383 21.6559 23.383 22.1437C23.383 22.4703 23.2051 22.7547 22.9414 22.9076Z" fill="#2A902D"/>
</svg>
