<svg width="45" height="45" viewBox="0 0 45 45" fill="none" xmlns="http://www.w3.org/2000/svg">
<path d="M32.8031 17.6874C32.6316 17.5159 32.3531 17.5159 32.1818 17.6874L31.316 18.553V17.2011C31.316 15.4403 29.8836 14.0078 28.1226 14.0078H25.7598C25.517 14.0078 25.3203 14.2045 25.3203 14.4473C25.3203 14.69 25.517 14.8867 25.7598 14.8867H28.1226C29.3988 14.8867 30.4371 15.9249 30.4371 17.2011V18.553L29.5716 17.6874C29.4 17.5159 29.1218 17.5159 28.9502 17.6874C28.7785 17.859 28.7785 18.1373 28.9502 18.3088L30.5655 19.9241C30.7342 20.0934 31.019 20.0932 31.1877 19.9241L32.8031 18.3088C32.9747 18.1373 32.9747 17.859 32.8031 17.6874Z" fill="#2A902D"/>
<path d="M19.2382 30.1253H16.8754C15.5992 30.1253 14.561 29.0871 14.561 27.8108V26.4589L15.4266 27.3244C15.5124 27.4102 15.6249 27.4531 15.7374 27.4531C15.8499 27.4531 15.9624 27.4102 16.0482 27.3244C16.2199 27.1528 16.2199 26.8746 16.0482 26.703L14.4329 25.0878C14.2643 24.9187 13.9792 24.9187 13.8106 25.0878L12.1952 26.703C12.0235 26.8746 12.0235 27.1528 12.1952 27.3244C12.3668 27.4961 12.6452 27.4961 12.8166 27.3244L13.6823 26.4589V27.8108C13.6823 29.5716 15.1148 31.0042 16.8756 31.0042H19.2384C19.4812 31.0042 19.6779 30.8075 19.6779 30.5648C19.6777 30.322 19.481 30.1253 19.2382 30.1253Z" fill="#2A902D"/>
<path d="M4.44531 12.1875C4.44531 14.2167 6.09045 15.8619 8.11967 15.8619H20.2656C22.2948 15.8619 23.94 14.2169 23.94 12.1875V13.7764C23.94 15.8056 22.2948 17.4507 20.2656 17.4507H8.11967C6.09045 17.4507 4.44531 15.8056 4.44531 13.7764V12.1875Z" fill="#EBE7F2"/>
<path d="M22.7886 22.1748H5.59668C4.96088 22.1748 4.44531 21.6592 4.44531 21.0234V22.2328C4.44531 22.8686 4.96088 23.3842 5.59668 23.3842H22.7886C23.4244 23.3842 23.94 22.8686 23.94 22.2328V21.0234C23.94 21.6592 23.4244 22.1748 22.7886 22.1748Z" fill="#EBE7F2"/>
<path d="M14.8132 18.7469H13.5658C13.4864 18.7469 13.4219 18.6824 13.4219 18.6029V16.3002C13.4219 16.2208 13.4864 16.1562 13.5658 16.1562H14.8132C14.8926 16.1562 14.9571 16.2208 14.9571 16.3002V18.6029C14.9571 18.6826 14.8928 18.7469 14.8132 18.7469Z" fill="#2A902D"/>
<path d="M21.0625 27.8438C21.0625 29.873 22.7076 31.5181 24.7369 31.5181H36.8828C38.912 31.5181 40.5572 29.873 40.5572 27.8438V29.4326C40.5572 31.4619 38.912 33.107 36.8828 33.107H24.7369C22.7076 33.107 21.0625 31.4619 21.0625 29.4326V27.8438Z" fill="#EBE7F2"/>
<path d="M39.4058 37.8389H22.2139C21.5781 37.8389 21.0625 37.3233 21.0625 36.6875V37.8969C21.0625 38.5327 21.5781 39.0482 22.2139 39.0482H39.4058C40.0416 39.0482 40.5572 38.5327 40.5572 37.8969V36.6875C40.5572 37.3233 40.0418 37.8389 39.4058 37.8389Z" fill="#EBE7F2"/>
<path d="M31.4343 34.4032H30.1869C30.1075 34.4032 30.043 34.3387 30.043 34.2592V31.9565C30.043 31.877 30.1075 31.8125 30.1869 31.8125H31.4343C31.5137 31.8125 31.5782 31.877 31.5782 31.9565V34.2592C31.5781 34.3388 31.5137 34.4032 31.4343 34.4032Z" fill="#2A902D"/>
<path d="M24.3775 22.233V11.3096C24.3775 10.4324 23.6638 9.71875 22.7867 9.71875H5.59473C4.71758 9.71875 4.00391 10.4324 4.00391 11.3096V22.2331C4.00391 23.1103 4.71758 23.824 5.59473 23.824H22.7867C23.6638 23.8238 24.3775 23.1101 24.3775 22.233ZM4.88281 22.233V16.3102C5.63656 17.2693 6.80586 17.8871 8.11754 17.8871H12.5012C12.7439 17.8871 12.9406 17.6904 12.9406 17.4477C12.9406 17.2049 12.7439 17.0082 12.5012 17.0082H8.11771C6.33406 17.0082 4.88299 15.5571 4.88299 13.7733V11.3096C4.88299 10.9171 5.20221 10.5977 5.5949 10.5977H22.7868C23.1794 10.5977 23.4988 10.9171 23.4988 11.3096V13.7733C23.4988 15.557 22.0477 17.0082 20.264 17.0082H15.88C15.6373 17.0082 15.4406 17.2049 15.4406 17.4477C15.4406 17.6904 15.6373 17.8871 15.88 17.8871H20.2637C21.5754 17.8871 22.7446 17.2693 23.4984 16.3102V22.2331C23.4984 22.6257 23.1792 22.9451 22.7865 22.9451H5.59473C5.20221 22.9449 4.88281 22.6257 4.88281 22.233Z" fill="#846F75"/>
<path d="M10.502 9.62102C10.7447 9.62102 10.9414 9.42432 10.9414 9.18156V7.61324C10.9414 7.35924 11.1481 7.15234 11.4021 7.15234H16.976C17.23 7.15234 17.4367 7.35906 17.4367 7.61324V9.18156C17.4367 9.42432 17.6334 9.62102 17.8762 9.62102C18.1189 9.62102 18.3156 9.42432 18.3156 9.18156V7.61324C18.3156 6.87443 17.7146 6.27344 16.976 6.27344H11.4021C10.6635 6.27344 10.0625 6.87443 10.0625 7.61324V9.18156C10.0625 9.42432 10.2592 9.62102 10.502 9.62102Z" fill="#846F75"/>
<path d="M39.4038 25.3828H22.2119C21.3348 25.3828 20.6211 26.0965 20.6211 26.9736V37.8972C20.6211 38.7744 21.3348 39.488 22.2119 39.488H39.4038C40.281 39.488 40.9947 38.7744 40.9947 37.8972V26.9736C40.9947 26.0965 40.281 25.3828 39.4038 25.3828ZM40.1158 37.8972C40.1158 38.2897 39.7965 38.6091 39.4038 38.6091H22.2119C21.8194 38.6091 21.5 38.2897 21.5 37.8972V31.9743C22.2537 32.9333 23.423 33.5512 24.7347 33.5512H29.1184C29.3611 33.5512 29.5578 33.3545 29.5578 33.1117C29.5578 32.869 29.3611 32.6723 29.1184 32.6723H24.7347C22.9511 32.6723 21.5 31.2212 21.5 29.4374V26.9736C21.5 26.5811 21.8192 26.2617 22.2119 26.2617H39.4038C39.7964 26.2617 40.1158 26.5811 40.1158 26.9736V29.4374C40.1158 31.221 38.6647 32.6723 36.881 32.6723H32.4974C32.2546 32.6723 32.0579 32.869 32.0579 33.1117C32.0579 33.3545 32.2546 33.5512 32.4974 33.5512H36.881C38.1927 33.5512 39.362 32.9333 40.1158 31.9743V37.8972Z" fill="#846F75"/>
<path d="M27.123 25.2849C27.3658 25.2849 27.5625 25.0882 27.5625 24.8454V23.2773C27.5625 23.0233 27.7692 22.8164 28.0232 22.8164H33.5971C33.8511 22.8164 34.0578 23.0231 34.0578 23.2773V24.8454C34.0578 25.0882 34.2545 25.2849 34.4972 25.2849C34.74 25.2849 34.9367 25.0882 34.9367 24.8454V23.2773C34.9367 22.5385 34.3357 21.9375 33.5971 21.9375H28.0232C27.2846 21.9375 26.6836 22.5385 26.6836 23.2773V24.8454C26.6836 25.0882 26.8803 25.2849 27.123 25.2849Z" fill="#846F75"/>
<path d="M32.386 23.1285H29.2367C29.1124 23.1285 29.0117 23.0277 29.0117 22.9035V21.85C29.0117 21.7257 29.1124 21.625 29.2367 21.625H32.386C32.5103 21.625 32.611 21.7257 32.611 21.85V22.9035C32.6112 23.0277 32.5105 23.1285 32.386 23.1285Z" fill="#2A902D"/>
<path d="M15.7647 7.46439H12.6156C12.4913 7.46439 12.3906 7.36367 12.3906 7.23939V6.18594C12.3906 6.06166 12.4913 5.96094 12.6156 5.96094H15.7649C15.8892 5.96094 15.9899 6.06166 15.9899 6.18594V7.23939C15.9899 7.36367 15.889 7.46439 15.7647 7.46439Z" fill="#2A902D"/>
</svg>
