<svg width="32" height="32" viewBox="0 0 32 32" fill="none" xmlns="http://www.w3.org/2000/svg">
<mask id="mask0_2_15884" style="mask-type:luminance" maskUnits="userSpaceOnUse" x="0" y="0" width="32" height="32">
<rect width="32" height="32" fill="white"/>
</mask>
<g mask="url(#mask0_2_15884)">
<path d="M13.6712 7.84424L14.0424 13.3642L14.2266 16.1386C14.2286 16.4239 14.2733 16.7074 14.3596 16.9798C14.5821 17.5086 15.1176 17.8446 15.7001 17.8211L24.5764 17.2405C24.9608 17.2342 25.332 17.3779 25.6082 17.6402C25.8385 17.8587 25.9872 18.1446 26.0341 18.4521L26.0498 18.6387C25.6825 23.725 21.9469 27.9674 16.8712 29.0624C11.7954 30.1575 6.59045 27.8442 4.08225 23.3783C3.35915 22.0809 2.9075 20.6548 2.75381 19.1838C2.68961 18.7483 2.66134 18.3085 2.66927 17.8685C2.66134 12.4154 6.54459 7.70106 11.9804 6.56454C12.6346 6.46266 13.276 6.80901 13.5384 7.40582C13.6062 7.54404 13.651 7.69206 13.6712 7.84424Z" fill="white"/>
<path opacity="0.4" d="M29.3327 13.0844L29.3234 13.1278L29.2965 13.191L29.3002 13.3645C29.2863 13.5942 29.1975 13.8153 29.0447 13.994C28.8854 14.18 28.6678 14.3066 28.4282 14.3558L28.2821 14.3758L18.041 15.0394C17.7003 15.073 17.3611 14.9632 17.1079 14.7373C16.8967 14.5489 16.7618 14.2948 16.7237 14.0209L16.0363 3.79471C16.0243 3.76014 16.0243 3.72266 16.0363 3.68807C16.0457 3.40619 16.1698 3.13975 16.3809 2.94827C16.5918 2.75679 16.8723 2.65623 17.1594 2.66906C23.2393 2.82374 28.3491 7.19569 29.3327 13.0844Z" fill="white"/>
</g>
</svg>
