<svg width="31" height="29" viewBox="0 0 31 29" fill="none" xmlns="http://www.w3.org/2000/svg">
<path d="M4.78027 23.2402C5.53265 23.2402 6.14258 22.6303 6.14258 21.8779C6.14258 21.1255 5.53265 20.5156 4.78027 20.5156C4.02789 20.5156 3.41797 21.1255 3.41797 21.8779C3.41797 22.6303 4.02789 23.2402 4.78027 23.2402Z" fill="#EBE7F2"/>
<path d="M6.82824 14.2108H2.72656C2.53232 14.2108 2.375 14.0535 2.375 13.8593V3.54688C2.375 3.35264 2.53232 3.19531 2.72656 3.19531H6.82807C7.0223 3.19531 7.17963 3.35264 7.17963 3.54688V13.8594C7.1798 14.0535 7.0223 14.2108 6.82824 14.2108Z" fill="#EBE7F2"/>
<path d="M6.11316 6.05859H3.44727C3.20451 6.05859 3.00781 5.86189 3.00781 5.61914C3.00781 5.37639 3.20451 5.17969 3.44727 5.17969H6.11334C6.35609 5.17969 6.55279 5.37639 6.55279 5.61914C6.55279 5.86189 6.35592 6.05859 6.11316 6.05859Z" fill="#2A902D"/>
<path d="M6.11316 7.99609H3.44727C3.20451 7.99609 3.00781 7.79939 3.00781 7.55664C3.00781 7.31389 3.20451 7.11719 3.44727 7.11719H6.11334C6.35609 7.11719 6.55279 7.31389 6.55279 7.55664C6.55279 7.79939 6.35592 7.99609 6.11316 7.99609Z" fill="#2A902D"/>
<path d="M6.11316 9.92578H3.44727C3.20451 9.92578 3.00781 9.72908 3.00781 9.48633C3.00781 9.24357 3.20451 9.04688 3.44727 9.04688H6.11334C6.35609 9.04688 6.55279 9.24357 6.55279 9.48633C6.55279 9.72908 6.35592 9.92578 6.11316 9.92578Z" fill="#2A902D"/>
<path d="M15.5029 23.2402C16.2553 23.2402 16.8652 22.6303 16.8652 21.8779C16.8652 21.1255 16.2553 20.5156 15.5029 20.5156C14.7505 20.5156 14.1406 21.1255 14.1406 21.8779C14.1406 22.6303 14.7505 23.2402 15.5029 23.2402Z" fill="#EBE7F2"/>
<path d="M17.5546 14.2108H13.4531C13.2589 14.2108 13.1016 14.0535 13.1016 13.8593V3.54688C13.1016 3.35264 13.2589 3.19531 13.4531 3.19531H17.5546C17.7489 3.19531 17.9062 3.35264 17.9062 3.54688V13.8594C17.9062 14.0535 17.7487 14.2108 17.5546 14.2108Z" fill="#EBE7F2"/>
<path d="M16.836 6.05859H14.1699C13.9272 6.05859 13.7305 5.86189 13.7305 5.61914C13.7305 5.37639 13.9272 5.17969 14.1699 5.17969H16.836C17.0787 5.17969 17.2754 5.37639 17.2754 5.61914C17.2754 5.86189 17.0787 6.05859 16.836 6.05859Z" fill="#2A902D"/>
<path d="M16.836 7.99609H14.1699C13.9272 7.99609 13.7305 7.79939 13.7305 7.55664C13.7305 7.31389 13.9272 7.11719 14.1699 7.11719H16.836C17.0787 7.11719 17.2754 7.31389 17.2754 7.55664C17.2754 7.79939 17.0787 7.99609 16.836 7.99609Z" fill="#2A902D"/>
<path d="M16.836 9.92578H14.1699C13.9272 9.92578 13.7305 9.72908 13.7305 9.48633C13.7305 9.24357 13.9272 9.04688 14.1699 9.04688H16.836C17.0787 9.04688 17.2754 9.24357 17.2754 9.48633C17.2754 9.72908 17.0787 9.92578 16.836 9.92578Z" fill="#2A902D"/>
<path d="M9.05652 0.90625H0.501953C0.259199 0.90625 0.0625 1.10295 0.0625 1.3457V27.6544C0.0625 27.8971 0.259199 28.0938 0.501953 28.0938H9.0567C9.29945 28.0938 9.49615 27.8971 9.49615 27.6544V1.3457C9.49598 1.10295 9.29928 0.90625 9.05652 0.90625ZM8.61707 27.2147H0.941406V1.78516H8.61725L8.61707 27.2147Z" fill="#846F75"/>
<path d="M4.77936 24.7226C6.34627 24.7226 7.62121 23.4478 7.62121 21.8807C7.62121 20.3137 6.34627 19.0391 4.77936 19.0391C3.21244 19.0391 1.9375 20.3138 1.9375 21.8809C1.9375 23.448 3.21244 24.7226 4.77936 24.7226ZM4.77936 19.918C5.86164 19.918 6.7423 20.7985 6.7423 21.8809C6.7423 22.9634 5.86164 23.8437 4.77936 23.8437C3.69707 23.8437 2.81641 22.9632 2.81641 21.8807C2.81641 20.7983 3.69707 19.918 4.77936 19.918Z" fill="#846F75"/>
<path d="M19.7794 0.90625H11.2246C10.9819 0.90625 10.7852 1.10295 10.7852 1.3457V27.6544C10.7852 27.8971 10.9819 28.0938 11.2246 28.0938H19.7794C20.0221 28.0938 20.2188 27.8971 20.2188 27.6544V1.3457C20.2188 1.10295 20.0221 0.90625 19.7794 0.90625ZM19.3399 27.2147H11.6641V1.78516H19.3399V27.2147Z" fill="#846F75"/>
<path d="M15.502 24.7228C17.0689 24.7228 18.3439 23.448 18.3439 21.8809C18.3439 20.3138 17.0691 19.0391 15.502 19.0391C13.9349 19.0391 12.6602 20.3138 12.6602 21.8809C12.6602 23.448 13.9351 24.7228 15.502 24.7228ZM15.502 19.9181C16.5843 19.9181 17.465 20.7986 17.465 21.8811C17.465 22.9636 16.5845 23.844 15.502 23.844C14.4196 23.844 13.5391 22.9636 13.5391 21.8811C13.5391 20.7986 14.4197 19.9181 15.502 19.9181Z" fill="#846F75"/>
<path d="M30.502 0.90625H21.9473C21.7045 0.90625 21.5078 1.10295 21.5078 1.3457V27.6544C21.5078 27.8971 21.7045 28.0938 21.9473 28.0938H30.502C30.7448 28.0938 30.9415 27.8971 30.9415 27.6544V1.3457C30.9415 1.10295 30.7448 0.90625 30.502 0.90625ZM30.0626 27.2147H22.3867V1.78516H30.0626V27.2147Z" fill="#846F75"/>
<path d="M26.2247 24.7228C27.7916 24.7228 29.0665 23.448 29.0665 21.8809C29.0665 20.3138 27.7918 19.0391 26.2247 19.0391C24.6576 19.0391 23.3828 20.3138 23.3828 21.8809C23.3828 23.448 24.6578 24.7228 26.2247 24.7228ZM26.2247 19.9181C27.307 19.9181 28.1876 20.7986 28.1876 21.8811C28.1876 22.9636 27.3071 23.844 26.2247 23.844C25.1422 23.844 24.2617 22.9636 24.2617 21.8811C24.2617 20.7986 25.1424 19.9181 26.2247 19.9181Z" fill="#846F75"/>
<path d="M26.2256 23.2402C26.978 23.2402 27.5879 22.6303 27.5879 21.8779C27.5879 21.1255 26.978 20.5156 26.2256 20.5156C25.4732 20.5156 24.8633 21.1255 24.8633 21.8779C24.8633 22.6303 25.4732 23.2402 26.2256 23.2402Z" fill="#EBE7F2"/>
<path d="M28.2773 14.2108H24.1758C23.9815 14.2108 23.8242 14.0535 23.8242 13.8593V3.54688C23.8242 3.35264 23.9815 3.19531 24.1758 3.19531H28.2773C28.4715 3.19531 28.6288 3.35264 28.6288 3.54688V13.8594C28.6288 14.0535 28.4713 14.2108 28.2773 14.2108Z" fill="#EBE7F2"/>
<path d="M27.5587 6.05859H24.8926C24.6498 6.05859 24.4531 5.86189 24.4531 5.61914C24.4531 5.37639 24.6498 5.17969 24.8926 5.17969H27.5587C27.8014 5.17969 27.9981 5.37639 27.9981 5.61914C27.9981 5.86189 27.8014 6.05859 27.5587 6.05859Z" fill="#2A902D"/>
<path d="M27.5587 7.99609H24.8926C24.6498 7.99609 24.4531 7.79939 24.4531 7.55664C24.4531 7.31389 24.6498 7.11719 24.8926 7.11719H27.5587C27.8014 7.11719 27.9981 7.31389 27.9981 7.55664C27.9981 7.79939 27.8014 7.99609 27.5587 7.99609Z" fill="#2A902D"/>
<path d="M27.5587 9.92578H24.8926C24.6498 9.92578 24.4531 9.72908 24.4531 9.48633C24.4531 9.24357 24.6498 9.04688 24.8926 9.04688H27.5587C27.8014 9.04688 27.9981 9.24357 27.9981 9.48633C27.9981 9.72908 27.8014 9.92578 27.5587 9.92578Z" fill="#2A902D"/>
</svg>
