<svg width="12" height="16" viewBox="0 0 12 16" fill="none" xmlns="http://www.w3.org/2000/svg">
<path d="M6 12C5.73145 12 5.47461 11.8937 5.28418 11.7031L3.04688 9.46564C2.64941 9.0719 2.64941 8.43127 3.04688 8.03436C3.44043 7.63751 4.08105 7.63751 4.47754 8.03436L5 8.55627V1C5 0.446899 5.44629 0 6 0C6.55273 0 7 0.446899 7 1V8.55627L7.52148 8.03436C7.71875 7.83752 7.97754 7.73749 8.2373 7.73749C8.49707 7.73749 8.75586 7.83752 8.95312 8.03436C9.34961 8.4281 9.34961 9.06873 8.95312 9.46564L6.71582 11.7031C6.52441 11.8937 6.26855 12 6 12Z" fill="#6B6C7E"/>
<path d="M10 12C10 11.4469 10.4473 11 11 11C11.5527 11 12 11.4469 12 12V16H0V12C0 11.4469 0.447266 11 1 11C1.55273 11 2 11.4469 2 12V14H10V12Z" fill="#6B6C7E"/>
</svg>
