<svg width="12" height="12" viewBox="0 0 12 12" fill="none" xmlns="http://www.w3.org/2000/svg">
<path fill-rule="evenodd" clip-rule="evenodd" d="M9.09799 3.11782L6.43631 0.836629C6.31204 0.727691 6.15516 0.671957 5.99745 0.671875C5.88954 0.671819 5.78125 0.697818 5.68275 0.750655C5.63886 0.774141 5.59715 0.802824 5.55859 0.836629L2.89691 3.11782C2.61734 3.35742 2.58495 3.77828 2.82455 4.05784C3.06415 4.33741 3.48501 4.36981 3.76457 4.13021L5.33074 2.78793V7.95102C5.33074 8.31921 5.62922 8.61769 5.99741 8.61769C6.36559 8.61769 6.66407 8.31921 6.66407 7.95102L6.66407 2.78786L8.23032 4.13021C8.50989 4.36981 8.93075 4.33741 9.17035 4.05784C9.40995 3.77828 9.37755 3.35742 9.09799 3.11782ZM1.9974 7.33854C1.9974 6.97035 2.29587 6.67188 2.66406 6.67188H3.66406C4.03225 6.67188 4.33073 6.3734 4.33073 6.00521C4.33073 5.63702 4.03225 5.33854 3.66406 5.33854H2.66406C1.55949 5.33854 0.664062 6.23397 0.664062 7.33854V9.33854C0.664062 10.4431 1.55949 11.3385 2.66406 11.3385H9.33073C10.4353 11.3385 11.3307 10.4431 11.3307 9.33854V7.33854C11.3307 6.23397 10.4353 5.33854 9.33073 5.33854H8.33073C7.96254 5.33854 7.66406 5.63702 7.66406 6.00521C7.66406 6.3734 7.96254 6.67188 8.33073 6.67188H9.33073C9.69892 6.67188 9.9974 6.97035 9.9974 7.33854V9.33854C9.9974 9.70673 9.69892 10.0052 9.33073 10.0052H2.66406C2.29587 10.0052 1.9974 9.70673 1.9974 9.33854V7.33854Z" fill="#0F3659"/>
</svg>
