<svg width="56" height="29" viewBox="0 0 56 29" fill="none" xmlns="http://www.w3.org/2000/svg">
<mask id="mask0_610_7011" style="mask-type:alpha" maskUnits="userSpaceOnUse" x="31" y="1" width="21" height="27">
<path d="M31.832 3.02344C31.832 2.02242 32.6435 1.21094 33.6445 1.21094H43.9154L51.1654 8.46094V25.9818C51.1654 26.9828 50.3539 27.7943 49.3529 27.7943H33.6445C32.6435 27.7943 31.832 26.9828 31.832 25.9818V3.02344Z" fill="black"/>
</mask>
<g mask="url(#mask0_610_7011)">
<path d="M31.832 3.02344C31.832 2.02242 32.6435 1.21094 33.6445 1.21094H49.3529C50.3539 1.21094 51.1654 2.02242 51.1654 3.02344V25.9818C51.1654 26.9828 50.3539 27.7943 49.3529 27.7943H33.6445C32.6435 27.7943 31.832 26.9828 31.832 25.9818V3.02344Z" fill="#6B3FB9"/>
<path fill-rule="evenodd" clip-rule="evenodd" d="M33.6484 27.7969C32.6474 27.7969 31.8359 26.9854 31.8359 25.9844V25.6823C31.8359 26.6833 32.6474 27.4948 33.6484 27.4948H49.3568C50.3578 27.4948 51.1693 26.6833 51.1693 25.6823L51.1693 25.9844C51.1693 26.9854 50.3578 27.7969 49.3568 27.7969H33.6484Z" fill="#6439B5"/>
<path fill-rule="evenodd" clip-rule="evenodd" d="M33.6484 1.20312C32.6474 1.20312 31.8359 2.01461 31.8359 3.01563V3.31771C31.8359 2.31669 32.6474 1.50521 33.6484 1.50521H49.3568C50.3578 1.50521 51.1693 2.31669 51.1693 3.31771L51.1693 3.01563C51.1693 2.01461 50.3578 1.20312 49.3568 1.20312H33.6484Z" fill="#815BC3"/>
<path d="M51.168 14.6484L44.6915 8.17197C44.406 7.88652 44.6082 7.39844 45.0119 7.39844H51.168V14.6484Z" fill="url(#paint0_linear_610_7011)"/>
<path d="M43.918 1.21094L51.168 8.46094H45.7305C44.7295 8.46094 43.918 7.64945 43.918 6.64844V1.21094Z" fill="#B7A2DD"/>
<path fill-rule="evenodd" clip-rule="evenodd" d="M37.5703 16.0156C38.0708 16.0156 38.4766 15.6099 38.4766 15.1094C38.4766 14.6089 38.0708 14.2031 37.5703 14.2031C37.0698 14.2031 36.6641 14.6089 36.6641 15.1094C36.6641 15.6099 37.0698 16.0156 37.5703 16.0156ZM46.6328 14.5052H39.987V15.7135H46.6328V14.5052ZM46.6328 17.526H39.987V18.7344H46.6328V17.526ZM39.987 20.5469H46.6328V21.7552H39.987V20.5469ZM38.4766 18.1302C38.4766 18.6307 38.0708 19.0365 37.5703 19.0365C37.0698 19.0365 36.6641 18.6307 36.6641 18.1302C36.6641 17.6297 37.0698 17.224 37.5703 17.224C38.0708 17.224 38.4766 17.6297 38.4766 18.1302ZM37.5703 22.0573C38.0708 22.0573 38.4766 21.6515 38.4766 21.151C38.4766 20.6505 38.0708 20.2448 37.5703 20.2448C37.0698 20.2448 36.6641 20.6505 36.6641 21.151C36.6641 21.6515 37.0698 22.0573 37.5703 22.0573Z" fill="white"/>
</g>
<mask id="mask1_610_7011" style="mask-type:alpha" maskUnits="userSpaceOnUse" x="17" y="1" width="21" height="27">
<path d="M17.832 3.02344C17.832 2.02242 18.6435 1.21094 19.6445 1.21094H29.9154L37.1654 8.46094V25.9818C37.1654 26.9828 36.3539 27.7943 35.3529 27.7943H19.6445C18.6435 27.7943 17.832 26.9828 17.832 25.9818V3.02344Z" fill="black"/>
</mask>
<g mask="url(#mask1_610_7011)">
<path d="M17.832 3.02344C17.832 2.02242 18.6435 1.21094 19.6445 1.21094H35.3529C36.3539 1.21094 37.1654 2.02242 37.1654 3.02344V25.9818C37.1654 26.9828 36.3539 27.7943 35.3529 27.7943H19.6445C18.6435 27.7943 17.832 26.9828 17.832 25.9818V3.02344Z" fill="#20A464"/>
<path fill-rule="evenodd" clip-rule="evenodd" d="M19.6484 27.7969C18.6474 27.7969 17.8359 26.9854 17.8359 25.9844V25.6823C17.8359 26.6833 18.6474 27.4948 19.6484 27.4948H35.3568C36.3578 27.4948 37.1693 26.6833 37.1693 25.6823L37.1693 25.9844C37.1693 26.9854 36.3578 27.7969 35.3568 27.7969H19.6484Z" fill="#149456"/>
<path fill-rule="evenodd" clip-rule="evenodd" d="M19.6484 1.20312C18.6474 1.20312 17.8359 2.01461 17.8359 3.01563V3.31771C17.8359 2.31669 18.6474 1.50521 19.6484 1.50521H35.3568C36.3578 1.50521 37.1693 2.31669 37.1693 3.31771L37.1693 3.01563C37.1693 2.01461 36.3578 1.20312 35.3568 1.20312H19.6484Z" fill="#38AE74"/>
<path d="M37.168 14.6484L30.6915 8.17197C30.406 7.88652 30.6082 7.39844 31.0119 7.39844H37.168V14.6484Z" fill="url(#paint1_linear_610_7011)"/>
<path d="M29.918 1.21094L37.168 8.46094H31.7305C30.7295 8.46094 29.918 7.64945 29.918 6.64844V1.21094Z" fill="#8ED1B1"/>
<path fill-rule="evenodd" clip-rule="evenodd" d="M28.1016 14.2031H31.1224H32.3307V15.4115L32.3307 16.9219V17.8281V19.3385V20.2448V21.7552V22.9635H31.1224H28.1016H26.8932H23.8724H22.6641V21.7552V20.2448V19.3385V17.8281V16.9219V15.4115V14.2031H23.8724H26.8932H28.1016ZM26.8932 15.4115H23.8724V16.9219H26.8932V15.4115ZM28.1016 16.9219V15.4115H31.1224V16.9219H28.1016ZM26.8932 17.8281H23.8724V19.3385H26.8932V17.8281ZM28.1016 19.3385V17.8281H31.1224V19.3385H28.1016ZM26.8932 20.2448H23.8724V21.7552H26.8932V20.2448ZM28.1016 21.7552V20.2448H31.1224V21.7552H28.1016Z" fill="white"/>
</g>
<mask id="mask2_610_7011" style="mask-type:alpha" maskUnits="userSpaceOnUse" x="4" y="1" width="21" height="27">
<path d="M4.83203 3.02344C4.83203 2.02242 5.64352 1.21094 6.64453 1.21094H16.9154L24.1654 8.46094V25.9818C24.1654 26.9828 23.3539 27.7943 22.3529 27.7943H6.64453C5.64352 27.7943 4.83203 26.9828 4.83203 25.9818V3.02344Z" fill="black"/>
</mask>
<g mask="url(#mask2_610_7011)">
<path d="M4.83203 3.02344C4.83203 2.02242 5.64352 1.21094 6.64453 1.21094H22.3529C23.3539 1.21094 24.1654 2.02242 24.1654 3.02344V25.9818C24.1654 26.9828 23.3539 27.7943 22.3529 27.7943H6.64453C5.64352 27.7943 4.83203 26.9828 4.83203 25.9818V3.02344Z" fill="#F4B70A"/>
<path fill-rule="evenodd" clip-rule="evenodd" d="M6.64844 27.7969C5.64742 27.7969 4.83594 26.9854 4.83594 25.9844V25.6823C4.83594 26.6833 5.64742 27.4948 6.64844 27.4948H22.3568C23.3578 27.4948 24.1693 26.6833 24.1693 25.6823L24.1693 25.9844C24.1693 26.9854 23.3578 27.7969 22.3568 27.7969H6.64844Z" fill="#EFA904"/>
<path fill-rule="evenodd" clip-rule="evenodd" d="M6.64844 1.20312C5.64742 1.20312 4.83594 2.01461 4.83594 3.01563V3.31771C4.83594 2.31669 5.64742 1.50521 6.64844 1.50521H22.3568C23.3578 1.50521 24.1693 2.31669 24.1693 3.31771L24.1693 3.01562C24.1693 2.01461 23.3578 1.20312 22.3568 1.20312H6.64844Z" fill="#F6C028"/>
<path d="M24.168 14.6484L17.6915 8.17197C17.406 7.88652 17.6082 7.39844 18.0119 7.39844H24.168V14.6484Z" fill="url(#paint2_linear_610_7011)"/>
<path d="M16.918 1.21094L24.168 8.46094H18.7305C17.7295 8.46094 16.918 7.64945 16.918 6.64844V1.21094Z" fill="#FADC87"/>
<path fill-rule="evenodd" clip-rule="evenodd" d="M10.2682 13.2969C9.93456 13.2969 9.66406 13.5674 9.66406 13.901V22.3594C9.66406 22.693 9.93456 22.9635 10.2682 22.9635H18.7266C19.0602 22.9635 19.3307 22.693 19.3307 22.3594V13.901C19.3307 13.5674 19.0602 13.2969 18.7266 13.2969H10.2682ZM18.1224 16.0156H10.8724V20.2448H18.1224V16.0156Z" fill="white"/>
</g>
<defs>
<linearGradient id="paint0_linear_610_7011" x1="47.543" y1="14.6484" x2="47.543" y2="7.2474" gradientUnits="userSpaceOnUse">
<stop stop-color="#6B3FB9"/>
<stop offset="1" stop-color="#5B3DA3"/>
</linearGradient>
<linearGradient id="paint1_linear_610_7011" x1="33.543" y1="14.6484" x2="33.543" y2="7.2474" gradientUnits="userSpaceOnUse">
<stop stop-color="#20A464"/>
<stop offset="1" stop-color="#207E55"/>
</linearGradient>
<linearGradient id="paint2_linear_610_7011" x1="20.543" y1="14.6484" x2="20.543" y2="7.2474" gradientUnits="userSpaceOnUse">
<stop stop-color="#F4B70A"/>
<stop offset="1" stop-color="#E2930A"/>
</linearGradient>
</defs>
</svg>
