<svg width="32" height="32" viewBox="0 0 32 32" fill="none" xmlns="http://www.w3.org/2000/svg">
<mask id="mask0_269_48469" style="mask-type:alpha" maskUnits="userSpaceOnUse" x="0" y="0" width="32" height="32">
<rect width="32" height="32" fill="#D9D9D9"/>
</mask>
<g mask="url(#mask0_269_48469)">
<path d="M5.33464 27.9974C4.6013 27.9974 3.97352 27.7363 3.4513 27.2141C2.92908 26.6918 2.66797 26.0641 2.66797 25.3307V10.6641C2.66797 9.93073 2.92908 9.30295 3.4513 8.78073C3.97352 8.25851 4.6013 7.9974 5.33464 7.9974H10.668V5.33073C10.668 4.5974 10.9291 3.96962 11.4513 3.4474C11.9735 2.92517 12.6013 2.66406 13.3346 2.66406H18.668C19.4013 2.66406 20.0291 2.92517 20.5513 3.4474C21.0735 3.96962 21.3346 4.5974 21.3346 5.33073V7.9974H26.668C27.4013 7.9974 28.0291 8.25851 28.5513 8.78073C29.0735 9.30295 29.3346 9.93073 29.3346 10.6641V25.3307C29.3346 26.0641 29.0735 26.6918 28.5513 27.2141C28.0291 27.7363 27.4013 27.9974 26.668 27.9974H5.33464ZM13.3346 7.9974H18.668V5.33073H13.3346V7.9974ZM26.668 19.9974H20.0013V22.6641H12.0013V19.9974H5.33464V25.3307H26.668V19.9974ZM14.668 19.9974H17.3346V17.3307H14.668V19.9974ZM5.33464 17.3307H12.0013V14.6641H20.0013V17.3307H26.668V10.6641H5.33464V17.3307Z" fill="#737791"/>
</g>
</svg>
