<svg width="32" height="32" viewBox="0 0 32 32" fill="none" xmlns="http://www.w3.org/2000/svg">
<mask id="mask0_2_15904" style="mask-type:alpha" maskUnits="userSpaceOnUse" x="0" y="0" width="32" height="32">
<rect width="32" height="32" fill="#D9D9D9"/>
</mask>
<g mask="url(#mask0_2_15904)">
<path d="M5.33268 28.0013C4.59935 28.0013 3.97157 27.7402 3.44935 27.218C2.92713 26.6957 2.66602 26.068 2.66602 25.3346V10.668C2.66602 9.93464 2.92713 9.30686 3.44935 8.78464C3.97157 8.26241 4.59935 8.0013 5.33268 8.0013H10.666V5.33464C10.666 4.6013 10.9271 3.97352 11.4493 3.4513C11.9716 2.92908 12.5993 2.66797 13.3327 2.66797H18.666C19.3993 2.66797 20.0271 2.92908 20.5493 3.4513C21.0716 3.97352 21.3327 4.6013 21.3327 5.33464V8.0013H26.666C27.3993 8.0013 28.0271 8.26241 28.5493 8.78464C29.0716 9.30686 29.3327 9.93464 29.3327 10.668V25.3346C29.3327 26.068 29.0716 26.6957 28.5493 27.218C28.0271 27.7402 27.3993 28.0013 26.666 28.0013H5.33268ZM13.3327 8.0013H18.666V5.33464H13.3327V8.0013ZM26.666 20.0013H19.9993V22.668H11.9993V20.0013H5.33268V25.3346H26.666V20.0013ZM14.666 20.0013H17.3327V17.3346H14.666V20.0013ZM5.33268 17.3346H11.9993V14.668H19.9993V17.3346H26.666V10.668H5.33268V17.3346Z" fill="white"/>
</g>
</svg>
