<svg width="17" height="16" viewBox="0 0 17 16" fill="none" xmlns="http://www.w3.org/2000/svg">
<mask id="mask0_428_5649" style="mask-type:alpha" maskUnits="userSpaceOnUse" x="0" y="0" width="17" height="16">
<path d="M8.28906 6C7.73633 6 7.28906 6.4469 7.28906 7V12C7.28906 12.5531 7.73633 13 8.28906 13C8.8418 13 9.28906 12.5531 9.28906 12V7C9.28906 6.4469 8.8418 6 8.28906 6Z" fill="#6B6C7E"/>
<path d="M9.28906 4C9.28906 4.55225 8.8418 5 8.28906 5C7.73633 5 7.28906 4.55225 7.28906 4C7.28906 3.44775 7.73633 3 8.28906 3C8.8418 3 9.28906 3.44775 9.28906 4Z" fill="#6B6C7E"/>
<path fill-rule="evenodd" clip-rule="evenodd" d="M8.28906 0C10.4268 0 12.4355 0.831299 13.9453 2.34375C15.458 3.85315 16.2891 5.86255 16.2891 8C16.2891 10.1375 15.458 12.1438 13.9453 13.6562C12.4355 15.1687 10.4268 16 8.28906 16C6.15137 16 4.14551 15.1687 2.63281 13.6562C1.12012 12.1469 0.289062 10.1375 0.289062 8C0.289062 5.86255 1.12012 3.85315 2.63281 2.34375C4.14258 0.831299 6.15137 0 8.28906 0ZM2.28906 8C2.28906 11.3093 4.97949 14 8.28906 14C11.5986 14 14.2891 11.3093 14.2891 8C14.2891 4.69067 11.5986 2 8.28906 2C4.97949 2 2.28906 4.69067 2.28906 8Z" fill="#6B6C7E"/>
</mask>
<g mask="url(#mask0_428_5649)">
<rect x="0.289062" width="16" height="16" fill="#6B6C7E"/>
</g>
</svg>
