<svg width="32" height="32" viewBox="0 0 32 32" fill="none" xmlns="http://www.w3.org/2000/svg">
<mask id="mask0_2_15919" style="mask-type:alpha" maskUnits="userSpaceOnUse" x="0" y="0" width="32" height="32">
<rect width="32" height="32" fill="#D9D9D9"/>
</mask>
<g mask="url(#mask0_2_15919)">
<path d="M6.66667 28C5.93333 28 5.30556 27.7389 4.78333 27.2167C4.26111 26.6944 4 26.0667 4 25.3333V6.66667C4 5.93333 4.26111 5.30556 4.78333 4.78333C5.30556 4.26111 5.93333 4 6.66667 4H25.3333C26.0667 4 26.6944 4.26111 27.2167 4.78333C27.7389 5.30556 28 5.93333 28 6.66667V25.3333C28 26.0667 27.7389 26.6944 27.2167 27.2167C26.6944 27.7389 26.0667 28 25.3333 28H6.66667ZM6.66667 11.1H25.3333V6.66667H6.66667V11.1ZM6.66667 18.2333H25.3333V13.7667H6.66667V18.2333ZM6.66667 25.3333H25.3333V20.9H6.66667V25.3333ZM8 10.2V7.53333H10.6667V10.2H8ZM8 17.3333V14.6667H10.6667V17.3333H8ZM8 24.4667V21.8H10.6667V24.4667H8Z" fill="white"/>
</g>
</svg>
