<svg width="19" height="20" viewBox="0 0 19 20" fill="none" xmlns="http://www.w3.org/2000/svg">
<path d="M7.9236 11.2327C8.62155 11.9322 9.5386 12.2808 10.4568 12.2808C11.375 12.2808 12.292 11.9311 12.99 11.2316L17.5684 6.65449C18.9643 5.25877 18.9643 2.98605 17.5673 1.58923C16.8908 0.913014 15.9907 0.540039 15.0341 0.540039C14.0775 0.540039 13.1786 0.912979 12.5021 1.58923L8.74465 5.34643C8.38325 5.7067 8.38325 6.29207 8.74465 6.6534C9.10492 7.01473 9.68994 7.01473 10.0513 6.6534L13.8088 2.89619C14.1363 2.56867 14.5711 2.38907 15.033 2.38907C15.496 2.38907 15.932 2.56977 16.2595 2.89728C16.9349 3.5735 16.9349 4.67343 16.2606 5.34859L11.6821 9.92572C11.0057 10.6019 9.90565 10.6009 9.23028 9.92572C8.87001 9.56439 8.285 9.56439 7.9236 9.92572C7.5622 10.286 7.5622 10.8714 7.9236 11.2327Z" fill="#6B6C7E"/>
<path d="M1.22416 17.9336C1.90066 18.6099 2.79964 18.9828 3.7596 18.9839C4.71505 18.9838 5.61065 18.613 6.28488 17.9378L10.0333 14.1901C10.3947 13.8298 10.3947 13.2444 10.0333 12.8831C9.673 12.5218 9.08685 12.5218 8.72545 12.8831L4.9782 16.6308C4.65294 16.9562 4.22039 17.1348 3.7596 17.1348C3.2943 17.1338 2.85837 16.9531 2.53085 16.6256C1.85548 15.9493 1.85322 14.8526 2.5252 14.1795L7.10819 9.59711C7.78469 8.92199 8.88356 8.92199 9.55893 9.5982C9.9192 9.95953 10.5053 9.95953 10.8667 9.5982C11.2281 9.23793 11.2281 8.65253 10.8667 8.2912C9.47084 6.89434 7.19854 6.89332 5.80151 8.29011L1.21852 12.8726C-0.175127 14.2662 -0.172868 16.5368 1.22416 17.9336Z" fill="#6B6C7E"/>
</svg>
