<svg width="17" height="16" viewBox="0 0 17 16" fill="none" xmlns="http://www.w3.org/2000/svg">
<mask id="mask0_428_6142" style="mask-type:alpha" maskUnits="userSpaceOnUse" x="0" y="0" width="17" height="16">
<path d="M1.28906 0H3.28906C3.84082 0 4.28906 0.447998 4.28906 1C4.28906 1.552 3.84082 2 3.28906 2H1.28906C0.737305 2 0.289062 1.552 0.289062 1C0.289062 0.447998 0.737305 0 1.28906 0Z" fill="#6B6C7E"/>
<path d="M1.28906 7H3.28906C3.84082 7 4.28906 7.448 4.28906 8C4.28906 8.552 3.84082 9 3.28906 9H1.28906C0.737305 9 0.289062 8.552 0.289062 8C0.289062 7.448 0.737305 7 1.28906 7Z" fill="#6B6C7E"/>
<path d="M3.28906 14H1.28906C0.737305 14 0.289062 14.448 0.289062 15C0.289062 15.552 0.737305 16 1.28906 16H3.28906C3.84082 16 4.28906 15.552 4.28906 15C4.28906 14.448 3.84082 14 3.28906 14Z" fill="#6B6C7E"/>
<path d="M7.28809 9H15.2881C15.8379 9 16.2881 8.54999 16.2881 8C16.2881 7.45001 15.8379 7 15.2881 7H7.28809C6.73828 7 6.28809 7.45001 6.28809 8C6.28809 8.54999 6.73828 9 7.28809 9Z" fill="#6B6C7E"/>
<path d="M15.2881 2H7.28809C6.73828 2 6.28809 1.54999 6.28809 1C6.28809 0.450012 6.73828 0 7.28809 0H15.2881C15.8379 0 16.2881 0.450012 16.2881 1C16.2881 1.54999 15.8379 2 15.2881 2Z" fill="#6B6C7E"/>
<path d="M7.28809 16H15.2881C15.8379 16 16.2881 15.55 16.2881 15C16.2881 14.45 15.8379 14 15.2881 14H7.28809C6.73828 14 6.28809 14.45 6.28809 15C6.28809 15.55 6.73828 16 7.28809 16Z" fill="#6B6C7E"/>
</mask>
<g mask="url(#mask0_428_6142)">
<rect x="0.289062" width="16" height="16" fill="#6B6C7E"/>
</g>
</svg>
