<svg width="32" height="32" viewBox="0 0 32 32" fill="none" xmlns="http://www.w3.org/2000/svg">
<path fill-rule="evenodd" clip-rule="evenodd" d="M21.7722 22.196L26.3346 16.8726C26.5524 16.6241 26.6639 16.3103 26.6641 15.9949C26.6642 15.7791 26.6122 15.5625 26.5065 15.3655C26.4595 15.2777 26.4022 15.1943 26.3346 15.1172L21.7722 9.79382C21.293 9.23469 20.4513 9.16989 19.8921 9.64909C19.333 10.1283 19.2682 10.97 19.7474 11.5291L22.432 14.6615L12.1058 14.6615C11.3694 14.6615 10.7724 15.2584 10.7724 15.9948C10.7724 16.7312 11.3694 17.3281 12.1058 17.3281L22.4321 17.3281L19.7474 20.4606C19.2682 21.0198 19.333 21.8615 19.8921 22.3407C20.4513 22.8199 21.293 22.7551 21.7722 22.196ZM13.3307 7.99479C14.0671 7.99479 14.6641 8.59174 14.6641 9.32812L14.6641 11.3281C14.6641 12.0645 15.261 12.6615 15.9974 12.6615C16.7338 12.6615 17.3307 12.0645 17.3307 11.3281L17.3307 9.32812C17.3307 7.11899 15.5399 5.32812 13.3307 5.32812L9.33073 5.32812C7.12159 5.32812 5.33073 7.11899 5.33073 9.32812L5.33073 22.6615C5.33073 24.8706 7.12159 26.6615 9.33073 26.6615L13.3307 26.6615C15.5399 26.6615 17.3307 24.8706 17.3307 22.6615L17.3307 20.6615C17.3307 19.9251 16.7338 19.3281 15.9974 19.3281C15.261 19.3281 14.6641 19.9251 14.6641 20.6615L14.6641 22.6615C14.6641 23.3978 14.0671 23.9948 13.3307 23.9948L9.33073 23.9948C8.59435 23.9948 7.99739 23.3978 7.99739 22.6615L7.9974 9.32812C7.9974 8.59174 8.59435 7.99479 9.33073 7.99479L13.3307 7.99479Z" fill="white"/>
</svg>
