<svg width="19" height="18" viewBox="0 0 19 18" fill="none" xmlns="http://www.w3.org/2000/svg">
<mask id="mask0_428_5837" style="mask-type:alpha" maskUnits="userSpaceOnUse" x="7" y="0" width="5" height="18">
<path d="M9.42307 4.64302C10.6512 4.64302 11.6469 3.64736 11.6469 2.41917C11.6469 1.19097 10.6512 0.195312 9.42307 0.195312C8.19496 0.195312 7.19922 1.19097 7.19922 2.41917C7.19922 3.64736 8.19496 4.64302 9.42307 4.64302Z" fill="#6B6C7E"/>
<path d="M11.6469 9.07336C11.6469 10.3016 10.6512 11.2972 9.42307 11.2972C8.19496 11.2972 7.19922 10.3016 7.19922 9.07336C7.19922 7.84517 8.19496 6.84951 9.42307 6.84951C10.6512 6.84951 11.6469 7.84517 11.6469 9.07336Z" fill="#6B6C7E"/>
<path d="M11.6469 15.7623C11.6469 16.9905 10.6512 17.9862 9.42307 17.9862C8.19496 17.9862 7.19922 16.9905 7.19922 15.7623C7.19922 14.5341 8.19496 13.5384 9.42307 13.5384C10.6512 13.5384 11.6469 14.5341 11.6469 15.7623Z" fill="#6B6C7E"/>
</mask>
<g mask="url(#mask0_428_5837)">
<rect x="0.527344" y="0.195312" width="17.7908" height="17.7908" fill="#6B6C7E"/>
</g>
</svg>
