<svg width="24" height="25" viewBox="0 0 24 25" fill="none" xmlns="http://www.w3.org/2000/svg">
<path d="M21.6712 19.0497C21.0284 18.4766 20.4656 17.8196 19.9979 17.0964C19.4874 16.0981 19.1814 15.0078 19.0979 13.8897V10.5964C19.1023 8.8401 18.4653 7.14267 17.3064 5.823C16.1476 4.50333 14.5467 3.65226 12.8046 3.42969V2.56969C12.8046 2.33364 12.7108 2.10727 12.5439 1.94036C12.377 1.77346 12.1506 1.67969 11.9146 1.67969C11.6785 1.67969 11.4522 1.77346 11.2853 1.94036C11.1184 2.10727 11.0246 2.33364 11.0246 2.56969V3.44302C9.29809 3.68164 7.71656 4.53786 6.57294 5.85309C5.42931 7.16833 4.80107 8.85345 4.80458 10.5964V13.8897C4.72109 15.0078 4.4151 16.0981 3.90458 17.0964C3.44517 17.8179 2.89138 18.4748 2.25792 19.0497C2.1868 19.1122 2.12981 19.1891 2.09073 19.2753C2.05165 19.3615 2.03137 19.455 2.03125 19.5497V20.4564C2.03125 20.6332 2.10149 20.8027 2.22651 20.9278C2.35154 21.0528 2.52111 21.123 2.69792 21.123H21.2313C21.4081 21.123 21.5776 21.0528 21.7027 20.9278C21.8277 20.8027 21.8979 20.6332 21.8979 20.4564V19.5497C21.8978 19.455 21.8775 19.3615 21.8384 19.2753C21.7994 19.1891 21.7424 19.1122 21.6712 19.0497ZM3.41792 19.7897C4.03819 19.1905 4.58432 18.519 5.04458 17.7897C5.68766 16.584 6.06287 15.2537 6.14458 13.8897V10.5964C6.11814 9.81505 6.2492 9.0364 6.52995 8.3068C6.81069 7.57719 7.23539 6.91154 7.77875 6.34949C8.32211 5.78743 8.97301 5.34047 9.6927 5.0352C10.4124 4.72994 11.1862 4.57263 11.9679 4.57263C12.7497 4.57263 13.5234 4.72994 14.2431 5.0352C14.9628 5.34047 15.6137 5.78743 16.1571 6.34949C16.7004 6.91154 17.1251 7.57719 17.4059 8.3068C17.6866 9.0364 17.8177 9.81505 17.7913 10.5964V13.8897C17.873 15.2537 18.2482 16.584 18.8913 17.7897C19.3515 18.519 19.8976 19.1905 20.5179 19.7897H3.41792Z" fill="#2A902D"/>
<path d="M11.9976 23.3559C12.4176 23.3463 12.8206 23.1884 13.1353 22.9102C13.4501 22.632 13.6564 22.2515 13.7176 21.8359H10.2109C10.2739 22.2628 10.4898 22.6523 10.8185 22.9319C11.1471 23.2115 11.5662 23.3622 11.9976 23.3559Z" fill="#2A902D"/>
</svg>
