<svg width="46" height="45" viewBox="0 0 46 45" fill="none" xmlns="http://www.w3.org/2000/svg">
<path d="M25.3498 28.4196H19.6819C19.5942 28.4196 19.5133 28.3727 19.4697 28.2968L13.5454 17.9666C13.5018 17.8907 13.4209 17.8438 13.3332 17.8438H12.2031L19.5402 30.6371H25.4915L32.8286 17.8438H31.6985C31.6108 17.8438 31.5299 17.8907 31.4863 17.9666L25.562 28.2968C25.5184 28.3727 25.4373 28.4196 25.3498 28.4196Z" fill="#EBE7F2"/>
<path d="M33.1133 15.2959H11.92C11.4294 15.2959 11.0021 15.0288 10.7727 14.6328C10.6597 14.8281 10.5938 15.054 10.5938 15.2959C10.5938 16.0283 11.1875 16.6221 11.92 16.6221H33.1133C33.8457 16.6221 34.4395 16.0283 34.4395 15.2959C34.4395 15.054 34.3738 14.8279 34.2606 14.6328C34.0312 15.0287 33.6039 15.2959 33.1133 15.2959Z" fill="#EBE7F2"/>
<path d="M22.5141 39.6247C20.2908 39.6247 18.4281 38.0815 17.9384 36.0078C17.8561 36.356 17.8125 36.7192 17.8125 37.0926C17.8125 39.6892 19.9175 41.7942 22.5141 41.7942C25.1108 41.7942 27.2157 39.6892 27.2157 37.0926C27.2157 36.7192 27.1721 36.356 27.0899 36.0078C26.6002 38.0815 24.7374 39.6247 22.5141 39.6247Z" fill="#EBE7F2"/>
<path d="M23.9535 37.5378C23.8577 37.3571 23.7137 37.2001 23.5251 37.0709C23.3481 36.9494 23.0806 36.8288 22.7072 36.7019C22.3115 36.5674 22.1291 36.4472 22.0459 36.3704C21.9482 36.2799 21.9007 36.1508 21.9007 35.9759C21.9007 35.7924 21.9549 35.6525 22.0667 35.5477C22.1822 35.4391 22.3478 35.3864 22.5728 35.3864C22.7872 35.3864 22.9489 35.4516 23.067 35.5855C23.1927 35.7283 23.2537 35.923 23.2537 36.1809C23.2537 36.3068 23.3557 36.4089 23.4817 36.4089H23.8375C23.9634 36.4089 24.0655 36.3068 24.0655 36.1809C24.0655 35.7313 23.9505 35.3656 23.7239 35.0944C23.5664 34.9054 23.3648 34.7713 23.1221 34.6931C23.0275 34.6627 22.9623 34.5758 22.9623 34.4765V34.2436C22.9623 34.1178 22.8602 34.0156 22.7343 34.0156H22.4293C22.3035 34.0156 22.2013 34.1176 22.2013 34.2436V34.4704C22.2013 34.5713 22.1345 34.6595 22.0379 34.6883C21.8076 34.7571 21.6121 34.8722 21.4537 35.0329C21.2119 35.2784 21.0892 35.5984 21.0892 35.9837C21.0892 36.3509 21.2013 36.6571 21.4226 36.894C21.6334 37.1197 21.9754 37.3048 22.4624 37.4574C22.8723 37.5995 23.0553 37.7243 23.1368 37.8042C23.2356 37.9009 23.2836 38.025 23.2836 38.1838C23.2836 38.3606 23.224 38.4937 23.0962 38.6021C22.9593 38.7185 22.7811 38.7751 22.5517 38.7751C22.2861 38.7751 22.0895 38.7097 21.9512 38.575C21.8146 38.4421 21.7482 38.2563 21.7482 38.0074C21.7482 37.8816 21.6462 37.7795 21.5202 37.7795H21.1616C21.0357 37.7795 20.9336 37.8814 20.9336 38.0074C20.9336 38.4596 21.0658 38.8252 21.3268 39.0945C21.5079 39.2813 21.7401 39.4111 22.0197 39.4822C22.1208 39.5079 22.1922 39.5983 22.1922 39.7027V39.879C22.1922 40.0048 22.2941 40.107 22.4202 40.107H22.7222C22.848 40.107 22.9502 40.005 22.9502 39.879V39.692C22.9502 39.5898 23.0185 39.5007 23.1168 39.4731C23.3571 39.4056 23.5601 39.2913 23.7234 39.1314C23.972 38.8876 24.0982 38.5668 24.0982 38.1779C24.0982 37.9341 24.0495 37.7186 23.9535 37.5378Z" fill="#2A902D"/>
<path d="M33.0455 17.4646C32.8351 17.3438 32.5663 17.4166 32.4457 17.6272L25.2351 30.1996H19.7931L12.5824 17.6272C12.4617 17.4166 12.1931 17.3438 11.9826 17.4646C11.7721 17.5853 11.6993 17.8538 11.8201 18.0643L19.1572 30.8577C19.2354 30.9943 19.3809 31.0785 19.5383 31.0785H25.4893C25.6468 31.0785 25.7922 30.9943 25.8704 30.8577L33.2075 18.0643C33.3286 17.8538 33.2559 17.5852 33.0455 17.4646Z" fill="#846F75"/>
<path d="M33.1113 13.5312H11.9181C10.9444 13.5312 10.1523 14.3233 10.1523 15.2968C10.1523 16.2703 10.9446 17.0627 11.9181 17.0627H33.1111C34.0848 17.0627 34.8769 16.2706 34.8769 15.297C34.8769 14.3233 34.0848 13.5312 33.1113 13.5312ZM33.1113 16.1838H11.9181C11.429 16.1838 11.0312 15.786 11.0312 15.297C11.0312 14.8079 11.429 14.4103 11.9181 14.4103H33.1111C33.6002 14.4103 33.9979 14.8081 33.9979 15.297C33.9979 15.7858 33.6002 16.1838 33.1113 16.1838Z" fill="#846F75"/>
<path d="M22.5161 31.9531C19.6813 31.9531 17.375 34.2594 17.375 37.0942C17.375 39.929 19.6813 42.2354 22.5161 42.2354C25.3509 42.2354 27.6571 39.929 27.6571 37.0942C27.6571 34.2594 25.3509 31.9531 22.5161 31.9531ZM22.5161 41.3564C20.1659 41.3564 18.2539 39.4444 18.2539 37.094C18.2539 34.7437 20.1659 32.832 22.5161 32.832C24.8663 32.832 26.7782 34.744 26.7782 37.0942C26.7782 39.4444 24.8663 41.3564 22.5161 41.3564Z" fill="#846F75"/>
<path d="M14.6035 12.9221C14.8463 12.9221 15.043 12.7254 15.043 12.4826V11.6501C15.043 11.5156 15.1338 11.3984 15.2639 11.3646L17.4434 10.8004C17.4522 10.7981 17.461 10.7963 17.4696 10.7947C17.6182 10.7689 17.743 10.6687 17.8003 10.5293C17.8578 10.3901 17.8398 10.231 17.7526 10.108C17.7477 10.1009 17.743 10.0939 17.7389 10.0869L16.5969 8.14678C16.5287 8.03094 16.5475 7.88346 16.6424 7.78854L17.8198 6.61133C17.9149 6.51605 18.062 6.49777 18.178 6.5658L20.1178 7.70785C20.1257 7.71242 20.1332 7.71752 20.1406 7.72262C20.2637 7.8091 20.4224 7.82668 20.5613 7.7692C20.7003 7.71172 20.8002 7.58709 20.826 7.43908C20.8276 7.43029 20.8293 7.42133 20.8316 7.41271L21.3959 5.23303C21.4295 5.10295 21.5469 5.01207 21.6813 5.01207H23.3463C23.4808 5.01207 23.5981 5.10295 23.6318 5.23303L24.1961 7.41254C24.1984 7.42133 24.2001 7.43029 24.2017 7.43908C24.2275 7.58709 24.3276 7.71172 24.4664 7.7692C24.6049 7.82668 24.764 7.8091 24.8871 7.72262C24.8945 7.71752 24.902 7.71242 24.9094 7.70803L26.8497 6.5658C26.9655 6.49777 27.1126 6.51641 27.2077 6.61133L28.3849 7.78871C28.48 7.88381 28.4987 8.03094 28.4306 8.14695L27.2886 10.0867C27.284 10.0946 27.2789 10.1022 27.2738 10.1096C27.1873 10.2326 27.1698 10.3913 27.2272 10.5302C27.2847 10.6691 27.4094 10.7691 27.5574 10.7949C27.5662 10.7965 27.5749 10.7984 27.5836 10.8005L29.7632 11.3648C29.8933 11.3984 29.9842 11.5158 29.9842 11.6503V12.4826C29.9842 12.7254 30.1809 12.9221 30.4237 12.9221C30.6664 12.9221 30.8631 12.7254 30.8631 12.4826V11.6501C30.8631 11.1152 30.5013 10.6478 29.9835 10.5138L28.3115 10.0811L29.1876 8.59256C29.459 8.13166 29.3843 7.54543 29.006 7.16715L27.8286 5.98977C27.4503 5.61148 26.8643 5.53713 26.4034 5.80836L24.915 6.68445L24.4822 5.01242C24.3481 4.49457 23.8809 4.13281 23.346 4.13281H21.681C21.1461 4.13281 20.6787 4.49457 20.5447 5.01242L20.112 6.68445L18.6236 5.80836C18.1627 5.53678 17.5765 5.61166 17.1982 5.98977L16.0207 7.16715C15.6427 7.54543 15.568 8.13148 15.8393 8.59256L16.7155 10.0809L15.0437 10.5138C14.5258 10.648 14.1641 11.1152 14.1641 11.6501V12.4826C14.1641 12.7254 14.3608 12.9221 14.6035 12.9221Z" fill="#846F75"/>
<path d="M22.5151 9.35156C20.7878 9.35156 19.3828 10.7568 19.3828 12.4838C19.3828 12.7266 19.5795 12.9233 19.8223 12.9233C20.065 12.9233 20.2617 12.7266 20.2617 12.4838C20.2617 11.2414 21.2726 10.2305 22.5151 10.2305C23.7575 10.2305 24.7684 11.2412 24.7684 12.4838C24.7684 12.7266 24.9651 12.9233 25.2079 12.9233C25.4506 12.9233 25.6473 12.7266 25.6473 12.4838C25.6473 10.7568 24.2421 9.35156 22.5151 9.35156Z" fill="#846F75"/>
<path d="M22.7129 26.9646L25.5816 24.0959C25.7588 23.9187 25.6333 23.6156 25.3826 23.6156H24.1075V19.1719C24.1075 19.0165 23.9815 18.8906 23.8263 18.8906H21.2015C21.0461 18.8906 20.9203 19.0167 20.9203 19.1719V23.6156H19.6451C19.3945 23.6156 19.269 23.9187 19.4463 24.0959L22.3151 26.9646C22.425 27.0743 22.603 27.0743 22.7129 26.9646Z" fill="#2A902D"/>
</svg>
