<svg width="32" height="32" viewBox="0 0 32 32" fill="none" xmlns="http://www.w3.org/2000/svg">
<mask id="mask0_269_48459" style="mask-type:alpha" maskUnits="userSpaceOnUse" x="0" y="0" width="32" height="32">
<rect width="32" height="32" fill="#D9D9D9"/>
</mask>
<g mask="url(#mask0_269_48459)">
<path d="M16 24L21.3333 18.6667L19.4667 16.8L17.3333 18.9333V13.3333H14.6667V18.9333L12.5333 16.8L10.6667 18.6667L16 24ZM6.66667 10.6667V25.3333H25.3333V10.6667H6.66667ZM6.66667 28C5.93333 28 5.30556 27.7389 4.78333 27.2167C4.26111 26.6944 4 26.0667 4 25.3333V8.7C4 8.38889 4.05 8.08889 4.15 7.8C4.25 7.51111 4.4 7.24444 4.6 7L6.26667 4.96667C6.51111 4.65556 6.81667 4.41667 7.18333 4.25C7.55 4.08333 7.93333 4 8.33333 4H23.6667C24.0667 4 24.45 4.08333 24.8167 4.25C25.1833 4.41667 25.4889 4.65556 25.7333 4.96667L27.4 7C27.6 7.24444 27.75 7.51111 27.85 7.8C27.95 8.08889 28 8.38889 28 8.7V25.3333C28 26.0667 27.7389 26.6944 27.2167 27.2167C26.6944 27.7389 26.0667 28 25.3333 28H6.66667ZM7.2 8H24.8L23.6667 6.66667H8.33333L7.2 8Z" fill="#737791"/>
</g>
</svg>
