<svg width="120" height="120" viewBox="0 0 120 120" fill="none" xmlns="http://www.w3.org/2000/svg">
<g clip-path="url(#clip0_156_6932)">
<mask id="mask0_156_6932" style="mask-type:luminance" maskUnits="userSpaceOnUse" x="0" y="0" width="120" height="120">
<path d="M120 0H0V120H120V0Z" fill="white"/>
</mask>
<g mask="url(#mask0_156_6932)">
<path d="M78.7656 22.6106V-43.0078H108.826V31.2122" stroke="#CCDDE2" stroke-width="1.06522" stroke-miterlimit="10"/>
<path d="M81.7539 0.956406V4.79641H85.5939V-2.25H81.7539V0.956406ZM82.3851 -1.6212H84.9579V0.956406H82.3851V-1.6212ZM82.3851 1.5864H84.9579V4.16641H82.3851V1.5864Z" fill="#D7E8F0"/>
<path d="M88.5234 0.956406V4.79641H92.3634V-2.25H88.5234V0.956406ZM89.157 -1.6188H91.7346V0.956406H89.157V-1.6188ZM89.157 1.5888H91.7346V4.16641H89.157V1.5888Z" fill="#D7E8F0"/>
<path d="M95.1094 0.956406V4.79641H98.9494V-2.25H95.1094V0.956406ZM95.7406 -1.6212H98.3182V0.956406H95.7406V-1.6212ZM95.7406 1.5864H98.3182V4.16641H95.7406V1.5864Z" fill="#D7E8F0"/>
<path d="M101.309 0.956406V4.79641H105.149V-2.25H101.309V0.956406ZM101.939 -1.6212H104.517V0.956406H101.939V-1.6212ZM101.939 1.5864H104.517V4.16641H101.939V1.5864Z" fill="#D7E8F0"/>
<path d="M77.4418 81.7286C76.4278 82.751 75.4234 83.8886 74.353 84.9218C74.0586 85.2091 73.7575 85.4867 73.4494 85.7546C73.1074 86.0522 72.7546 86.3354 72.3934 86.5946C72.3671 86.519 72.3351 86.4457 72.2974 86.375C71.6914 85.175 70.0474 84.4154 69.8434 83.0546C69.6574 81.7838 70.8034 80.6162 70.6162 79.3706C70.405 77.9618 68.6722 77.1254 68.3518 75.749C68.1478 74.8946 68.3302 73.9094 68.2558 73.0286C68.1707 72.0438 68.0042 71.0676 67.7578 70.1102C67.8778 70.1018 67.9978 70.0982 68.1178 70.0946C70.5538 70.0538 72.9514 71.4218 73.7398 73.3442C74.3746 74.9042 74.0518 76.6934 74.8954 78.1514C74.9462 78.2458 75.0035 78.3364 75.067 78.4226C75.1788 78.5756 75.299 78.7223 75.427 78.8618L75.6946 79.1402C75.739 79.1846 75.7882 79.2254 75.8326 79.2734C75.877 79.3214 75.925 79.3634 75.9694 79.4114C76.3894 79.8134 76.8178 80.2178 77.0962 80.6978C77.1214 80.7396 77.1439 80.7828 77.1634 80.8274C77.1887 80.872 77.2112 80.9182 77.2306 80.9654C77.2558 81.017 77.275 81.0662 77.293 81.1142C77.311 81.1622 77.3338 81.2342 77.353 81.2846C77.3794 81.3746 77.4046 81.4598 77.4238 81.5486C77.4238 81.5714 77.4238 81.5906 77.431 81.6086C77.4382 81.6266 77.431 81.623 77.431 81.6314C77.4327 81.6385 77.4327 81.646 77.431 81.653C77.431 81.6686 77.431 81.6794 77.4382 81.6902V81.6974C77.4364 81.708 77.4377 81.7188 77.4418 81.7286Z" fill="white"/>
<path d="M77.457 81.8047H77.4612L77.457 81.8088V81.8047Z" fill="white"/>
<path d="M77.4645 81.7974C77.4945 81.771 77.5197 81.753 77.5497 81.7266C77.5245 81.7494 77.4945 81.7746 77.4681 81.801C77.4681 81.801 77.4681 81.801 77.4609 81.801L77.4645 81.7974Z" fill="white"/>
<path d="M85.9912 75.8938C85.9654 76.3122 85.9654 76.7317 85.9912 77.1502C85.2592 77.329 84.538 77.5258 83.8312 77.7634C83.392 77.9086 82.9612 78.0682 82.5304 78.2506C81.3352 78.7354 80.2097 79.377 79.1836 80.1586C79.4072 79.7773 79.5646 79.3611 79.6492 78.9274C79.6492 78.9094 79.6564 78.8902 79.66 78.8686C79.846 77.9698 79.8604 77.0254 80.284 76.1662C81.0724 74.5822 83.3776 73.4338 85.7908 73.3594H85.8352C86.0548 73.3594 86.278 73.3594 86.5012 73.3702C86.2512 74.1933 86.0805 75.0383 85.9912 75.8938Z" fill="white"/>
<path d="M84.8946 74.7344L83.8242 77.756C83.385 77.9012 82.9542 78.0608 82.5234 78.2432C83.211 76.9064 83.9982 75.698 84.8946 74.7344Z" fill="white"/>
<path d="M77.4678 81.813C77.4678 81.789 77.4641 81.7651 77.457 81.7422C77.4642 81.7866 77.4678 81.813 77.4678 81.813Z" fill="white"/>
<path d="M69.3281 71.6953C71.7281 74.8069 73.3217 80.0953 74.3513 84.9229C74.057 85.2101 73.7558 85.4876 73.4477 85.7557L69.3281 71.6953Z" fill="white"/>
<path d="M77.8038 76.9453C77.3238 78.4105 77.3058 79.8902 77.3622 80.8274C77.3768 81.1302 77.4088 81.4319 77.4582 81.7309L77.8038 76.9453Z" fill="white"/>
<path d="M77.4418 81.7286C76.4278 82.751 75.4234 83.8886 74.353 84.9218C74.0586 85.2091 73.7575 85.4867 73.4494 85.7546C73.1074 86.0522 72.7546 86.3354 72.3934 86.5946C72.3671 86.519 72.3351 86.4457 72.2974 86.375C71.6914 85.175 70.0474 84.4154 69.8434 83.0546C69.6574 81.7838 70.8034 80.6162 70.6162 79.3706C70.405 77.9618 68.6722 77.1254 68.3518 75.749C68.1478 74.8946 68.3302 73.9094 68.2558 73.0286C68.1707 72.0438 68.0042 71.0676 67.7578 70.1102C67.8778 70.1018 67.9978 70.0982 68.1178 70.0946C70.5538 70.0538 72.9514 71.4218 73.7398 73.3442C74.3746 74.9042 74.0518 76.6934 74.8954 78.1514C74.9462 78.2458 75.0035 78.3364 75.067 78.4226C75.1788 78.5756 75.299 78.7223 75.427 78.8618L75.6946 79.1402C75.739 79.1846 75.7882 79.2254 75.8326 79.2734C75.877 79.3214 75.925 79.3634 75.9694 79.4114C76.3894 79.8134 76.8178 80.2178 77.0962 80.6978C77.1214 80.7396 77.1439 80.7828 77.1634 80.8274C77.1887 80.872 77.2112 80.9182 77.2306 80.9654C77.2558 81.017 77.275 81.0662 77.293 81.1142C77.311 81.1622 77.3338 81.2342 77.353 81.2846C77.3794 81.3746 77.4046 81.4598 77.4238 81.5486C77.4238 81.5714 77.4238 81.5906 77.431 81.6086C77.4382 81.6266 77.431 81.623 77.431 81.6314C77.4327 81.6385 77.4327 81.646 77.431 81.653C77.431 81.6686 77.431 81.6794 77.4382 81.6902V81.6974C77.4364 81.708 77.4377 81.7188 77.4418 81.7286Z" stroke="#CCDDE2" stroke-width="1.02765" stroke-miterlimit="10"/>
<path d="M79.6492 78.9297C79.5642 79.3622 79.4068 79.7771 79.1836 80.1573" stroke="#CCDDE2" stroke-width="1.02765" stroke-miterlimit="10"/>
<path d="M85.9875 77.1486C85.9617 76.7303 85.9617 76.3106 85.9875 75.8922C86.077 75.0379 86.2477 74.1941 86.4975 73.3722C86.2743 73.3578 86.0511 73.3578 85.8315 73.3614H85.787C83.3738 73.4358 81.0687 74.5842 80.2803 76.1682C79.8567 77.0274 79.8422 77.9682 79.6562 78.8706" stroke="#CCDDE2" stroke-width="1.02765" stroke-miterlimit="10"/>
<path d="M79.6523 78.9272C79.6523 78.908 79.6595 78.89 79.6631 78.8672" stroke="#CCDDE2" stroke-width="1.02765" stroke-miterlimit="10"/>
<path d="M79.66 78.8672C79.66 78.8888 79.6528 78.908 79.6492 78.926C79.5647 79.3602 79.4073 79.7769 79.1836 80.1584" stroke="#CCDDE2" stroke-width="1.02765" stroke-miterlimit="10"/>
<path d="M79.6523 78.9272C79.6523 78.908 79.6595 78.89 79.6631 78.8672" stroke="#CCDDE2" stroke-width="1.02765" stroke-miterlimit="10"/>
<path d="M77.457 81.7891V81.8073" stroke="#CCDDE2" stroke-width="1.02765" stroke-miterlimit="10"/>
<path d="M84.8946 74.7344C83.9982 75.6944 83.2146 76.9064 82.5234 78.248" stroke="#CCDDE2" stroke-width="1.02765" stroke-miterlimit="10"/>
<path d="M77.4678 81.813C77.4678 81.789 77.4641 81.7651 77.457 81.7422C77.4642 81.7866 77.4678 81.813 77.4678 81.813Z" stroke="#CCDDE2" stroke-width="1.02765" stroke-miterlimit="10"/>
<path d="M69.3281 71.6953C71.7281 74.8069 73.3217 80.0953 74.3513 84.9229" stroke="#CCDDE2" stroke-width="1.02765" stroke-miterlimit="10"/>
<path d="M77.8038 76.9453C77.3238 78.4105 77.3058 79.8902 77.3622 80.8274C77.3768 81.1302 77.4088 81.4319 77.4582 81.7309" stroke="#CCDDE2" stroke-width="1.02765" stroke-miterlimit="10"/>
<path d="M103.328 42.4062C104.855 48.1278 106.431 54.2922 106.301 60.1734C106.163 66.3714 103.007 71.5735 97.3528 74.2135C93.6724 75.9307 89.716 76.2462 85.9876 77.1498C85.2556 77.3286 84.5344 77.5254 83.8276 77.763C83.3884 77.9082 82.9576 78.0678 82.5268 78.2502C81.3327 78.7361 80.2084 79.3785 79.1836 80.1607" stroke="#CCDDE2" stroke-width="1.02765" stroke-miterlimit="10"/>
<path d="M42.2709 9.84121C42.2709 9.84121 35.1477 8.21521 29.2185 10.2192C28.4799 10.4626 27.7642 10.771 27.0801 11.1408C23.7201 12.9588 21.1845 16.3752 21.3705 22.5804C21.4701 25.8204 21.2805 29.016 20.6421 32.1168C20.4333 33.1232 20.1753 34.1192 19.8681 35.1048C19.1155 37.5147 18.0294 39.8073 16.6413 41.916C12.2205 48.6192 12.8901 55.5864 17.7933 62.0472C18.0501 62.3856 18.3141 62.7205 18.5853 63.0481" stroke="#CCDDE2" stroke-width="1.02765" stroke-miterlimit="10"/>
<path d="M94.175 6.86719H50.3318C45.2751 6.86719 41.1758 10.9665 41.1758 16.0232V57.344C41.1758 62.4007 45.2751 66.5 50.3318 66.5H94.175C99.2317 66.5 103.331 62.4007 103.331 57.344V16.0232C103.331 10.9665 99.2317 6.86719 94.175 6.86719Z" fill="#2A902D"/>
<path d="M93.5636 6H50.03C44.6373 6 40.2656 10.3717 40.2656 15.7644V56.7396C40.2656 62.1323 44.6373 66.504 50.03 66.504H93.5636C98.9563 66.504 103.328 62.1323 103.328 56.7396V15.7644C103.328 10.3717 98.9563 6 93.5636 6Z" stroke="black" stroke-width="1.02765" stroke-miterlimit="10"/>
<path d="M92.952 8.03906H51.5544C46.4978 8.03906 42.3984 12.1384 42.3984 17.195V56.1698C42.3984 61.2266 46.4978 65.3258 51.5544 65.3258H92.952C98.0087 65.3258 102.108 61.2266 102.108 56.1698V17.195C102.108 12.1384 98.0087 8.03906 92.952 8.03906Z" fill="#2A902D"/>
<path d="M95.0535 11.0469H82.5507C80.8515 11.0469 79.4727 12.5301 79.4727 14.3553V43.2945C79.4727 45.1233 80.8515 46.6101 82.5507 46.6101H95.0535C96.7563 46.6101 98.1399 45.1233 98.1399 43.2945V14.3553C98.1399 12.5301 96.7563 11.0469 95.0535 11.0469ZM97.2543 43.4205C97.2521 44.0288 97.0093 44.6116 96.579 45.0417C96.1487 45.4718 95.5659 45.7142 94.9575 45.7161H82.6551C82.0458 45.7142 81.462 45.4715 81.031 45.0411C80.5998 44.6107 80.3563 44.0273 80.3535 43.4181V14.2365C80.3563 13.6273 80.5998 13.0438 81.031 12.6134C81.462 12.1829 82.0458 11.9404 82.6551 11.9385H94.9575C95.5662 11.9404 96.1495 12.1832 96.5799 12.6137C97.0102 13.0443 97.2527 13.6277 97.2543 14.2365V43.4205Z" fill="#D7E8F0"/>
<path d="M94.8855 50.0078H82.3827C80.6847 50.0078 79.3047 51.491 79.3047 53.3162V57.7178C79.3047 59.5478 80.6847 61.0346 82.3827 61.0346H94.8855C96.5883 61.0346 97.9719 59.5478 97.9719 57.7178V53.3162C97.9719 51.491 96.5883 50.0078 94.8855 50.0078ZM97.0863 57.845C97.0847 58.4537 96.8422 59.037 96.4118 59.4673C95.9814 59.8977 95.3981 60.1403 94.7895 60.1418H82.4871C81.878 60.1403 81.2942 59.8979 80.863 59.4677C80.4318 59.0373 80.1884 58.4541 80.1855 57.845V53.1974C80.1884 52.5882 80.4318 52.0049 80.863 51.5744C81.294 51.1439 81.8778 50.9013 82.4871 50.8994H94.7895C95.3982 50.9013 95.9816 51.1441 96.4119 51.5747C96.8422 52.0052 97.0847 52.5887 97.0863 53.1974V57.845Z" fill="#D7E8F0"/>
<path d="M66.8701 53.2088L48.5485 52.94C48.3513 52.9367 48.1635 52.8555 48.0264 52.714C47.8891 52.5725 47.8136 52.3822 47.8165 52.1852C47.8162 52.1169 47.826 52.049 47.8453 51.9836C47.8926 51.8284 47.9889 51.6929 48.1198 51.5973C48.2508 51.5017 48.4092 51.451 48.5713 51.4532L66.8929 51.7196C66.7558 51.9324 66.6792 52.1782 66.6709 52.4312C66.6609 52.7042 66.7302 52.9742 66.8701 53.2088Z" fill="#2A902D"/>
<path d="M71.3095 52.7286C71.2631 52.8834 71.1679 53.0191 71.0382 53.1155C70.9085 53.212 70.7512 53.2639 70.5895 53.2638L69.2695 53.2446C69.4111 53.0235 69.4882 52.7671 69.4922 52.5045C69.4962 52.2419 69.4271 51.9833 69.2923 51.7578L70.6123 51.777C70.8091 51.7811 70.9964 51.8627 71.1335 52.0041C71.2705 52.1453 71.3462 52.335 71.3443 52.5318C71.342 52.5988 71.3303 52.665 71.3095 52.7286Z" fill="#D7E8F0"/>
<path d="M71.2659 55.6777C71.2195 55.8323 71.1242 55.9677 70.9945 56.0634C70.8647 56.1593 70.7073 56.2105 70.5459 56.2093L52.3359 55.9429C52.506 55.7401 52.6151 55.4933 52.6506 55.231C52.686 54.9687 52.6464 54.7017 52.5363 54.4609L70.5627 54.7177C70.7597 54.7216 70.9471 54.8031 71.0843 54.9444C71.2213 55.0858 71.297 55.2756 71.2947 55.4725C71.2953 55.542 71.2856 55.6111 71.2659 55.6777Z" fill="#D7E8F0"/>
<path d="M50.1483 55.9069L48.5067 55.8829C48.31 55.8801 48.1224 55.7995 47.985 55.6586C47.8476 55.5179 47.7716 55.3284 47.7735 55.1317C47.7743 55.0624 47.7844 54.9933 47.8035 54.9265C47.8496 54.7721 47.9447 54.6368 48.0748 54.5416C48.2048 54.4463 48.3623 54.396 48.5235 54.3985L49.9863 54.4213C49.9007 54.5988 49.8525 54.792 49.8447 54.9889C49.8326 55.3214 49.9402 55.6472 50.1483 55.9069Z" fill="#2A902D"/>
<path d="M65.5723 59.1168L48.5719 58.8696C48.3752 58.8653 48.1881 58.7836 48.0511 58.6423C47.9142 58.5011 47.8382 58.3116 47.8399 58.1148C47.8404 58.0481 47.8508 57.9817 47.8711 57.918C47.9172 57.7631 48.0123 57.6271 48.142 57.5307C48.2719 57.4343 48.4293 57.3823 48.5911 57.3828L65.5663 57.6324C65.4277 57.8553 65.3542 58.1123 65.3542 58.3746C65.3542 58.6371 65.4277 58.8941 65.5663 59.1168H65.5723Z" fill="#2A902D"/>
<path d="M71.3374 58.6618C71.2913 58.8165 71.1961 58.9519 71.0662 59.0475C70.9363 59.1433 70.7787 59.194 70.6174 59.1922L67.9462 59.1574L65.5714 59.125C65.4328 58.9023 65.3594 58.6453 65.3594 58.3828C65.3594 58.1205 65.4328 57.8635 65.5714 57.6406L67.9906 57.6766L70.6306 57.715C70.8271 57.7183 71.0144 57.799 71.1515 57.9398C71.2887 58.0805 71.3645 58.2698 71.3626 58.4662C71.3635 58.5323 71.3551 58.5982 71.3374 58.6618Z" fill="#D7E8F0"/>
<path d="M69.2645 53.2458C69.0799 53.5341 68.7971 53.7458 68.4684 53.8413C68.1396 53.9369 67.7874 53.9099 67.4771 53.7654C67.1666 53.6209 66.9193 53.3687 66.781 53.0556C66.6425 52.7424 66.6223 52.3897 66.7243 52.0629C66.8263 51.7361 67.0434 51.4574 67.3352 51.2785C67.6272 51.0997 67.9741 51.0329 68.3116 51.0905C68.649 51.1481 68.954 51.3261 69.1702 51.5916C69.3863 51.8571 69.4986 52.1921 69.4865 52.5342C69.4777 52.787 69.401 53.0328 69.2645 53.2458Z" fill="white"/>
<g opacity="0.72">
<path opacity="0.72" d="M68.733 52.3749C68.7012 52.5438 68.6217 52.7 68.5038 52.8249C68.4465 52.8885 68.3838 52.9471 68.3166 53.0001C68.2794 53.0265 68.0862 53.1813 68.049 53.1621C67.7946 53.0337 67.4742 52.7109 67.4346 52.3953C67.428 52.3459 67.428 52.2959 67.4346 52.2465C67.4487 52.1616 67.4927 52.0844 67.5588 52.0292C67.6248 51.9739 67.7085 51.9441 67.7946 51.9453C67.851 51.9474 67.9062 51.9627 67.9556 51.99C68.005 52.0173 68.0472 52.0559 68.079 52.1025C68.115 52.0591 68.1604 52.0244 68.2118 52.0009C68.2631 51.9774 68.319 51.9659 68.3754 51.9669C68.4262 51.9686 68.4761 51.9807 68.5221 52.0026C68.568 52.0243 68.6091 52.0553 68.6426 52.0935C68.676 52.1317 68.7014 52.1765 68.717 52.2248C68.7326 52.2733 68.738 52.3243 68.733 52.3749Z" fill="#2A902D"/>
</g>
<path d="M52.3348 55.9414C52.2004 56.1024 52.0315 56.2315 51.8409 56.319C51.6501 56.4065 51.4422 56.4502 51.2323 56.4469C51.0226 56.4438 50.8161 56.3937 50.6281 56.3004C50.4401 56.2071 50.2755 56.0729 50.146 55.9078C49.9389 55.6477 49.8319 55.3219 49.8448 54.9898C49.8527 54.7929 49.9008 54.5997 49.9864 54.4222C50.1069 54.1774 50.2956 53.9727 50.5299 53.8327C50.764 53.6928 51.0337 53.6237 51.3064 53.6338C51.5689 53.6421 51.8239 53.7243 52.042 53.8709C52.2599 54.0177 52.4321 54.2227 52.5388 54.463C52.6488 54.7037 52.6884 54.9706 52.653 55.2329C52.6175 55.4952 52.5084 55.7421 52.3384 55.945L52.3348 55.9414Z" fill="white"/>
<g opacity="0.72">
<path opacity="0.72" d="M51.91 54.9351C51.8775 55.1036 51.7976 55.2592 51.6796 55.3839C51.6232 55.4483 51.5605 55.507 51.4924 55.5591C51.4564 55.5855 51.262 55.7415 51.226 55.7211C50.9716 55.5939 50.6512 55.2711 50.6104 54.9543C50.6038 54.9049 50.6038 54.8548 50.6104 54.8055C50.6228 54.7352 50.6558 54.6701 50.7051 54.6186C50.7545 54.5672 50.8181 54.5315 50.8877 54.5162C50.9575 54.5009 51.0302 54.5066 51.0965 54.5327C51.163 54.5588 51.2201 54.604 51.2608 54.6627C51.3085 54.5966 51.3771 54.5485 51.4556 54.5264C51.5341 54.5043 51.6176 54.5096 51.6927 54.5411C51.7678 54.5728 51.83 54.629 51.8691 54.7006C51.9081 54.7721 51.9217 54.8548 51.9076 54.9351H51.91Z" fill="#2A902D"/>
</g>
<path d="M67.9472 59.1557C67.7778 59.4115 67.5295 59.6052 67.2401 59.7073C66.9506 59.8094 66.6358 59.8145 66.3433 59.7215C66.0508 59.6286 65.7965 59.4427 65.6191 59.1923C65.4416 58.9418 65.3507 58.6404 65.36 58.3337C65.3689 58.0878 65.4413 57.8484 65.57 57.6389C65.6688 57.481 65.7979 57.3442 65.9497 57.2364C66.1016 57.1288 66.2734 57.0522 66.455 57.0112C66.6367 56.9701 66.8248 56.9656 67.0081 56.9976C67.1916 57.0296 67.3669 57.0978 67.5239 57.1979C67.6808 57.2981 67.8164 57.4284 67.9228 57.5813C68.0292 57.7342 68.1042 57.9065 68.1435 58.0885C68.1829 58.2706 68.1858 58.4586 68.1522 58.6417C68.1185 58.8248 68.0488 58.9996 67.9472 59.1557Z" fill="white"/>
<g opacity="0.72">
<path opacity="0.72" d="M67.4256 58.2776C67.3935 58.4466 67.3134 58.6027 67.1952 58.7276C67.1388 58.7921 67.0761 58.8507 67.008 58.9028C66.972 58.9292 66.7776 59.084 66.7416 59.0648C66.4872 58.9364 66.1668 58.6148 66.126 58.298C66.1194 58.2486 66.1194 58.1985 66.126 58.1492C66.1384 58.0789 66.1714 58.0139 66.2207 57.9624C66.2702 57.9109 66.3338 57.8753 66.4034 57.8599C66.4731 57.8447 66.5458 57.8504 66.6122 57.8765C66.6786 57.9025 66.7358 57.9477 66.7764 58.0064C66.8241 57.9404 66.8926 57.8925 66.9708 57.8706C67.0491 57.8485 67.1326 57.8537 67.2076 57.8851C67.2826 57.9165 67.3448 57.9725 67.3839 58.0437C67.423 58.115 67.4369 58.1975 67.4232 58.2776H67.4256Z" fill="#2A902D"/>
</g>
<path d="M47.6761 14.5614L47.7073 18.9042C47.7154 19.6616 48.0159 20.3868 48.5461 20.9277C49.0764 21.4687 49.7953 21.7838 50.5525 21.807L54.8509 21.8814C55.2205 21.887 55.5876 21.8184 55.9302 21.6795C56.2728 21.5406 56.584 21.3343 56.8453 21.0728C57.1067 20.8114 57.3129 20.5002 57.4516 20.1574C57.5903 19.8148 57.6588 19.4478 57.6529 19.0782L57.6205 14.7354C57.6131 13.9779 57.3129 13.2529 56.7827 12.7119C56.2525 12.1711 55.5336 11.8563 54.7765 11.8337L50.4781 11.7581C50.1085 11.7525 49.7415 11.8211 49.3989 11.96C49.0563 12.0988 48.7451 12.3051 48.4837 12.5666C48.2224 12.8281 48.0162 13.1394 47.8775 13.482C47.7388 13.8247 47.6703 14.1918 47.6761 14.5614Z" fill="white"/>
<path d="M48.3359 15.6501L48.3587 18.7941C48.3658 19.4519 48.6269 20.0814 49.0875 20.5509C49.5479 21.0206 50.1722 21.2941 50.8295 21.3141L54.5627 21.3789C54.8837 21.3839 55.2026 21.3242 55.5001 21.2036C55.7977 21.0831 56.068 20.9041 56.2952 20.6772C56.5223 20.4502 56.7016 20.18 56.8225 19.8825C56.9433 19.5851 57.0033 19.2665 56.9987 18.9453V18.7329C56.4743 17.6601 55.4531 16.0545 54.3587 17.0145C52.7879 18.3945 52.0691 17.3445 51.1535 15.9897C50.3891 14.8557 49.2263 14.0277 48.3359 15.6501Z" fill="#2A902D"/>
<path d="M55.3595 15.213C55.8337 14.898 55.9559 14.2478 55.6323 13.761C55.3089 13.2741 54.6623 13.1348 54.188 13.4498C53.7139 13.7649 53.5917 14.415 53.9153 14.9018C54.2387 15.3886 54.8853 15.528 55.3595 15.213Z" fill="#2A902D"/>
<path d="M72.6445 16.3204C71.9727 16.3202 71.3173 16.5279 70.7684 16.9152C70.2194 17.3023 69.8037 17.85 69.5785 18.4828C69.3532 19.1157 69.3294 19.8028 69.5103 20.4498C69.6913 21.0967 70.068 21.6718 70.5889 22.096L62.0689 39.4612C62.0164 39.453 61.9635 39.4478 61.9105 39.4456C61.7746 39.4474 61.6396 39.4684 61.5097 39.508L55.9669 32.6212C56.2143 32.2797 56.3545 31.8722 56.3695 31.4508C56.3844 31.0292 56.2734 30.6128 56.0506 30.2547C55.8279 29.8965 55.5037 29.6128 55.119 29.4398C54.7344 29.2666 54.3069 29.2122 53.8911 29.283C53.4754 29.3539 53.0902 29.547 52.7846 29.8377C52.4791 30.1285 52.267 30.5036 52.1756 30.9153C52.0842 31.327 52.1175 31.7568 52.2712 32.1494C52.425 32.5422 52.6922 32.8802 53.0389 33.1204L49.1545 44.1748C48.8158 44.1951 48.4946 44.332 48.2454 44.5622C47.9962 44.7925 47.8344 45.102 47.7876 45.438C47.7406 45.774 47.8114 46.116 47.9881 46.4056C48.1647 46.6953 48.4362 46.9149 48.7563 47.0271C49.0766 47.1393 49.4257 47.1373 49.7445 47.0212C50.0634 46.9052 50.3322 46.6824 50.5053 46.3906C50.6785 46.0988 50.7453 45.7561 50.6943 45.4207C50.6434 45.0852 50.478 44.7777 50.2261 44.5504L54.1105 33.4948C54.1585 33.4948 54.2053 33.502 54.2533 33.502C54.5421 33.502 54.8278 33.4432 55.0933 33.3292L60.6349 40.2136C60.5181 40.4254 60.4562 40.663 60.4549 40.9048C60.4492 41.1009 60.4831 41.296 60.5541 41.4788C60.6253 41.6616 60.7323 41.8281 60.869 41.9688C61.0057 42.1094 61.1692 42.2211 61.3498 42.2976C61.5304 42.3739 61.7246 42.4132 61.9207 42.4132C62.1168 42.4132 62.3109 42.3739 62.4915 42.2976C62.6721 42.2211 62.8357 42.1094 62.9724 41.9688C63.1089 41.8281 63.2161 41.6616 63.2871 41.4788C63.3583 41.296 63.3921 41.1009 63.3865 40.9048C63.3855 40.5788 63.2748 40.2626 63.0721 40.0072L71.5921 22.642C72.0399 22.7997 72.5168 22.8574 72.9894 22.8112C73.4619 22.765 73.9186 22.6159 74.3274 22.3744C74.7362 22.1329 75.0871 21.8048 75.3556 21.4132C75.6241 21.0217 75.8036 20.5761 75.8816 20.1078C75.9596 19.6394 75.934 19.1596 75.807 18.7022C75.6798 18.2448 75.454 17.8207 75.1455 17.4598C74.837 17.0989 74.4532 16.8099 74.0212 16.613C73.5891 16.4162 73.1192 16.3164 72.6445 16.3204Z" fill="#D7E8F0"/>
<path d="M82.9414 22.5781H94.3414" stroke="white" stroke-width="1.02765" stroke-miterlimit="10"/>
<path d="M82.9414 24.3359H94.3414" stroke="white" stroke-width="1.02765" stroke-miterlimit="10"/>
<path d="M82.9414 26.0938H94.3414" stroke="white" stroke-width="1.02765" stroke-miterlimit="10"/>
<path d="M82.9414 27.8516H94.3414" stroke="white" stroke-width="1.02765" stroke-miterlimit="10"/>
<path d="M82.9414 29.6172H94.3414" stroke="white" stroke-width="1.02765" stroke-miterlimit="10"/>
<path d="M82.9414 39.8906H94.3414" stroke="white" stroke-width="1.02765" stroke-miterlimit="10"/>
<path d="M82.9414 41.4453H94.3414" stroke="white" stroke-width="1.02765" stroke-miterlimit="10"/>
<path d="M91.9438 53.3313C92.0584 53.4263 92.1502 53.5458 92.2125 53.6811C92.2748 53.8162 92.306 53.9637 92.3038 54.1125L92.2774 57.6321C92.2764 57.7649 92.2493 57.8963 92.1975 58.0186C92.1456 58.141 92.0703 58.2519 91.9755 58.3449C91.8807 58.438 91.7685 58.5114 91.6452 58.5611C91.522 58.6107 91.3902 58.6355 91.2574 58.6341L85.9774 58.5885C85.7097 58.586 85.4538 58.4772 85.2662 58.2862C85.0785 58.0952 84.9743 57.8375 84.9766 57.5697L85.0078 54.0477C85.0179 53.7824 85.129 53.531 85.3184 53.345C85.5077 53.1588 85.7612 53.0523 86.0266 53.0469L91.3066 53.0925C91.5405 53.0945 91.7662 53.1791 91.9438 53.3313Z" fill="white"/>
<path d="M91.1978 53.9823L88.7354 56.0979C88.7039 56.1246 88.664 56.1393 88.6226 56.1393C88.5813 56.1393 88.5412 56.1246 88.5098 56.0979L86.003 53.9379C85.9752 53.9145 85.9556 53.8831 85.9467 53.848C85.9378 53.8129 85.9402 53.776 85.9534 53.7423C85.9667 53.7087 85.9902 53.68 86.0206 53.6603C86.0511 53.6407 86.0868 53.6311 86.123 53.6331L91.0922 53.6775C91.1271 53.6785 91.1608 53.6903 91.1889 53.7111C91.2171 53.7318 91.2382 53.7605 91.2496 53.7935C91.2611 53.8265 91.2622 53.8623 91.253 53.896C91.2437 53.9296 91.2245 53.9597 91.1978 53.9823Z" fill="#2A902D"/>
<path d="M88.8062 32.4453C88.2801 32.4448 87.7658 32.6004 87.3281 32.8923C86.8905 33.1842 86.5493 33.5994 86.3476 34.0852C86.146 34.5711 86.093 35.1058 86.1953 35.6218C86.2977 36.1378 86.5508 36.6118 86.9225 36.984C87.2944 37.3561 87.7682 37.6096 88.2841 37.7125C88.7999 37.8152 89.3348 37.7628 89.8209 37.5615C90.3069 37.3603 90.7223 37.0195 91.0147 36.5821C91.307 36.1448 91.463 35.6306 91.463 35.1045C91.4631 34.7554 91.3946 34.4098 91.2611 34.0873C91.1277 33.7647 90.932 33.4716 90.6853 33.2247C90.4387 32.9778 90.1456 32.7818 89.8233 32.6481C89.5009 32.5143 89.1553 32.4454 88.8062 32.4453ZM88.8062 37.1253C88.7031 37.1253 88.6042 37.0844 88.5313 37.0114C88.4583 36.9385 88.4174 36.8396 88.4174 36.7365C88.4174 36.6334 88.4583 36.5344 88.5313 36.4616C88.6042 36.3886 88.7031 36.3477 88.8062 36.3477C88.9093 36.3477 89.0081 36.3886 89.0811 36.4616C89.1541 36.5344 89.195 36.6334 89.195 36.7365C89.195 36.8396 89.1541 36.9385 89.0811 37.0114C89.0081 37.0844 88.9093 37.1253 88.8062 37.1253ZM89.2946 34.1349C89.213 34.7121 89.1434 35.3181 88.9718 35.8773C88.9558 35.9077 88.9318 35.9332 88.9024 35.951C88.873 35.9688 88.8393 35.9781 88.805 35.9781C88.7707 35.9781 88.7369 35.9688 88.7075 35.951C88.6781 35.9332 88.6541 35.9077 88.6382 35.8773C88.5165 35.4561 88.4235 35.0271 88.3598 34.5933C88.3058 34.2789 88.1198 33.7665 88.2986 33.4617C88.4534 33.1869 88.8914 33.1545 89.1386 33.2973C89.4542 33.4665 89.3318 33.8397 89.2946 34.1301V34.1349Z" fill="white"/>
<path d="M72.6888 22.0182C74.0076 22.0182 75.0768 20.9491 75.0768 19.6302C75.0768 18.3114 74.0076 17.2422 72.6888 17.2422C71.37 17.2422 70.3008 18.3114 70.3008 19.6302C70.3008 20.9491 71.37 22.0182 72.6888 22.0182Z" fill="white"/>
<path d="M88.7863 16.2132C89.227 16.2132 89.5843 15.8559 89.5843 15.4152C89.5843 14.9745 89.227 14.6172 88.7863 14.6172C88.3455 14.6172 87.9883 14.9745 87.9883 15.4152C87.9883 15.8559 88.3455 16.2132 88.7863 16.2132Z" fill="white"/>
<path d="M86.5586 19.0253C86.5586 18.4343 86.7934 17.8674 87.2113 17.4496C87.6292 17.0316 88.196 16.7969 88.787 16.7969C89.378 16.7969 89.9448 17.0316 90.3627 17.4496C90.7807 17.8674 91.0154 18.4343 91.0154 19.0253H86.5586Z" fill="white"/>
<path d="M73.4372 95.3033C73.4367 95.4846 73.3809 95.6613 73.2773 95.8101C73.1739 95.9589 73.0274 96.0726 72.8576 96.1361L64.4996 99.2561C64.4996 99.2561 64.1012 98.5169 63.4063 97.2821L58.6328 89.2961C57.3428 95.9321 55.9039 102.576 55.0124 106.718L54.1532 110.841L57.5972 111.974C57.8042 112.024 57.9885 112.142 58.1205 112.309C58.2526 112.476 58.3248 112.682 58.3256 112.895C58.3252 113.04 58.2921 113.182 58.2286 113.312C58.1651 113.442 58.073 113.555 57.9591 113.644C57.8452 113.733 57.7126 113.795 57.5714 113.825C57.4301 113.855 57.2837 113.853 57.1436 113.818L49.1612 111.795V109.844L48.9716 109.806L49.136 87.0461L41.336 85.2017C40.358 85.5065 39.3248 85.7861 38.2688 86.0129C38.2574 86.0144 38.2462 86.0168 38.2352 86.0201C35.6721 86.6919 32.9949 86.8074 30.3836 86.3585C30.3608 86.3585 30.3344 86.3477 30.3128 86.3429C30.1232 86.3069 29.9336 86.2649 29.7476 86.2229C29.6912 86.2121 29.636 86.2013 29.5796 86.1857C29.4164 86.1485 29.2532 86.1005 29.09 86.0561C29 86.0297 28.9112 86.0081 28.826 85.9817C28.7408 85.9553 28.6772 85.9337 28.6028 85.9073C27.1973 85.466 25.8993 84.7364 24.7916 83.7653C23.9422 83.0521 23.2221 82.1981 22.6628 81.2405C22.4228 80.8613 22.1984 80.4629 21.9896 80.0537C20.7224 77.5517 20.4584 76.7009 20.8268 76.6781C20.0154 76.3922 19.2296 76.0391 18.4772 75.6221C18.4772 75.6221 16.8188 65.9441 20.4356 56.2037C20.3663 55.6011 20.3788 54.992 20.4728 54.3929C21.2348 48.9281 25.4288 43.3109 30.4328 41.0357C33.1136 39.8165 37.4852 37.9457 36.0728 34.2209C35.6264 33.0425 34.9928 32.0273 34.8728 30.8045C34.862 30.6845 34.8476 30.5777 34.8392 30.4589C34.6388 27.5789 36.3152 24.8441 39.0296 23.8589C39.9177 23.5244 40.867 23.3835 41.814 23.4457C42.7611 23.5077 43.6839 23.7714 44.5208 24.2189C44.8098 24.3714 45.0692 24.5747 45.2864 24.8189C46.112 24.8405 47.1488 24.9857 47.636 25.2125C48.4616 25.5989 49.1228 26.2757 49.6172 27.0377C50.5292 28.458 50.8953 30.1608 50.648 31.8305C50.5059 32.7545 50.1767 33.6397 49.6808 34.4321C49.4362 34.829 49.1524 35.2005 48.8336 35.5409C48.554 35.8337 48.1568 36.2609 47.774 36.4181C47.7783 36.4214 47.7836 36.4233 47.789 36.4233C47.7944 36.4233 47.7998 36.4214 47.804 36.4181L47.6924 38.2025C49.9844 37.6805 56.108 35.5301 60.5972 26.6513C60.9212 25.9637 61.2548 25.2797 61.6052 24.6029C62.642 22.5881 63.7532 20.5841 65.2256 18.8513C65.5856 18.4313 66.1184 18.0521 66.6908 18.2345C67.1924 18.3941 67.5308 18.9545 67.1816 19.4249L64.7719 22.7177L65.5412 22.6181C65.625 22.6383 65.7034 22.6766 65.771 22.7303C65.8384 22.784 65.8935 22.8517 65.932 22.9289C65.9706 23.006 65.992 23.0906 65.9945 23.1768C65.997 23.2631 65.9807 23.3487 65.9468 23.4281L65.4596 24.5849L65.69 24.3137C65.8485 24.1265 66.0731 24.0078 66.3172 23.9825C66.5611 23.9571 66.8054 24.0271 66.9989 24.1777C67.1925 24.3284 67.3204 24.548 67.3558 24.7908C67.3911 25.0334 67.3313 25.2804 67.1888 25.4801L65.9191 27.1205C65.7491 27.3371 65.5331 27.5133 65.2868 27.6365L62.774 28.8485C63.5171 29.762 64.2082 30.7167 64.844 31.7081C63.4642 34.3526 61.8467 36.8661 60.0116 39.2177C56.918 43.2029 52.4636 47.6573 47.0252 49.5197C46.9052 52.8137 46.3232 56.0777 45.4196 59.2709C48.2408 59.2709 50.9324 59.2709 53.654 59.2709L55.706 53.6717C55.8003 53.4133 55.9718 53.1902 56.1971 53.0327C56.4225 52.8751 56.6909 52.7906 56.966 52.7909H65.168C65.3106 52.7913 65.452 52.8191 65.5844 52.8725C65.7854 52.9555 65.9573 53.0963 66.0784 53.2769C66.1996 53.4576 66.2644 53.6701 66.2648 53.8877C66.2633 54.021 66.2381 54.1531 66.1903 54.2777L65.6468 55.6913H65.6287H63.3163L62.3756 58.3865L62.6432 57.7061H63.8C63.9812 57.7061 64.1595 57.7508 64.3192 57.8363C64.4789 57.9218 64.615 58.0455 64.7153 58.1964C64.8156 58.3472 64.8772 58.5205 64.8944 58.7009C64.9116 58.8812 64.8839 59.063 64.814 59.2301L63.8288 61.5869C63.5317 62.2965 63.0608 62.9199 62.4592 63.3996C61.8578 63.8792 61.1451 64.1996 60.3872 64.3313L60.2828 64.3493L60.0896 64.9205L60.1892 64.7237C60.1568 64.8017 60.1196 64.8869 60.086 64.9805H62.6804C62.6804 64.9805 62.1044 66.6605 61.0448 66.7613C60.9591 66.768 60.873 66.7651 60.788 66.7529H55.412C55.7132 67.0877 56.0516 67.4933 56.4128 67.9697C57.9728 67.9469 60.242 68.1137 60.8036 69.2033C60.9002 69.3116 60.9885 69.4271 61.0676 69.5489C61.2824 69.9089 61.3532 70.7489 61.3016 71.9621C61.3167 73.2132 61.2118 74.463 60.9884 75.6941C61.2604 76.2044 61.522 76.7177 61.7732 77.2337C62.3194 78.2545 62.8121 79.3031 63.2491 80.3753C63.2641 80.4037 63.2766 80.4333 63.2864 80.4641C64.5963 83.468 65.7455 86.5395 66.7291 89.6657L66.7844 89.8589C67.5284 92.0525 68.1343 94.0457 68.3647 95.2589L72.2648 94.4597C72.3985 94.4153 72.5409 94.4033 72.6803 94.4245C72.8196 94.4459 72.9519 94.4999 73.0663 94.5822C73.1807 94.6645 73.274 94.7728 73.3384 94.8981C73.403 95.0234 73.4368 95.1623 73.4372 95.3033Z" fill="white"/>
<path d="M59.9815 65.1246H62.5759C62.4694 65.4173 62.3339 65.6987 62.1715 65.9646C61.8511 66.4662 61.3567 66.9906 60.7027 66.9018H52.8319C52.5259 66.9038 52.2279 66.8042 51.9847 66.6186C51.9308 66.3692 51.9461 66.1098 52.0291 65.8686C55.2079 65.3814 58.4647 64.857 59.9215 64.5558L60.1963 64.5078L59.9815 65.1246Z" fill="#2A902D"/>
<path d="M66.1578 54.0405C66.1564 54.1738 66.1312 54.3059 66.0834 54.4305L65.541 55.8428H63.2274L62.277 58.5548L61.9314 59.4212H54.3906L56.1378 54.662C56.2326 54.4038 56.4045 54.1808 56.6299 54.0233C56.8555 53.8658 57.124 53.7814 57.399 53.7812H65.5998C65.7426 53.7815 65.884 53.8092 66.0162 53.8628C66.0622 53.8816 66.1071 53.9028 66.1506 53.9264C66.1542 53.9624 66.1578 54.0033 66.1578 54.0405Z" fill="#2A902D"/>
<path d="M66.1609 54.0433C66.1593 54.1766 66.1341 54.3088 66.0865 54.4333L65.5429 55.8457H63.2305L64.0345 53.6641C64.1233 53.4222 64.2944 53.2193 64.5179 53.0909C64.7414 52.9626 65.0029 52.9171 65.2567 52.9624C65.5104 53.0076 65.74 53.1407 65.9053 53.3383C66.0706 53.536 66.1611 53.7856 66.1609 54.0433Z" fill="#2A902D"/>
<path d="M62.5727 65.122C62.5727 65.122 61.8287 67.3084 60.4775 66.838C59.6375 66.5488 59.7635 65.7124 59.9831 65.1172L62.5727 65.122Z" fill="#2A902D"/>
<path d="M60.6739 55.8438H56.9023" stroke="white" stroke-width="1.02765" stroke-linecap="round" stroke-linejoin="round"/>
<path d="M60.2091 57.2656H56.4375" stroke="white" stroke-width="1.02765" stroke-linecap="round" stroke-linejoin="round"/>
<path d="M63.1618 80.5189C62.5086 78.9396 61.7468 77.4076 60.8818 75.9337C61.2322 74.0773 61.471 70.8253 60.7114 69.3493C60.1498 68.2585 57.883 68.0929 56.3182 68.1157C55.1098 66.5185 54.133 65.6953 54.133 65.6953C54.133 65.6953 46.8586 66.8737 45.1978 66.8833C43.537 66.8929 43.5382 67.8133 43.5382 67.8133C43.5382 67.8133 42.3814 71.3041 41.0734 73.0381C39.7654 74.7721 36.247 76.8781 31.177 77.6893C26.107 78.5005 22.1194 77.5009 21.205 76.9921C20.2906 76.4833 20.2606 76.9741 21.8974 80.1985C23.5342 83.4229 26.0542 85.7413 30.2866 86.5057C32.897 86.9552 35.5737 86.8398 38.1358 86.1673C38.1358 86.1673 44.833 84.4789 46.7974 83.1913C48.7618 81.9037 49.069 83.6545 49.069 83.6545L48.877 109.956L54.061 110.991L58.5394 89.4469L63.3154 97.4389L68.2774 95.3989C67.693 92.3305 64.6918 84.2389 63.1618 80.5189Z" fill="#2E2E2E"/>
<path d="M49.6162 45.353C49.5099 46.0835 49.1992 46.7691 48.7198 47.3306C48.3515 47.8011 47.883 48.1836 47.3482 48.4502C47.2227 48.5108 47.0922 48.5606 46.9582 48.599C46.9582 48.1826 46.951 47.759 46.9282 47.3462C46.843 45.7994 46.531 44.189 45.5458 42.9998C45.0718 42.4316 44.4736 41.98 43.7974 41.6798C43.8166 41.3942 43.8394 41.111 43.8574 40.8254C43.909 40.337 43.9066 39.8444 43.8502 39.3566C43.7866 39.0605 43.7505 38.7592 43.7422 38.4566C43.753 38.1746 43.7122 37.0922 43.9354 36.8582C44.3077 37.0133 44.7068 37.0949 45.1102 37.0982C46.0138 37.091 46.7314 36.5366 47.215 35.8274C47.3928 35.7693 47.5777 35.7353 47.7646 35.7266C48.3118 35.8082 46.6786 37.2806 47.2114 37.1138C46.8646 37.2206 46.6114 37.7414 46.4482 38.039C46.2082 38.4998 46.069 39.0422 46.3042 39.5294C46.5346 39.995 47.017 40.3958 47.359 40.7786C47.82 41.2626 48.2513 41.7744 48.6502 42.311C49.2814 43.1894 49.7422 44.2682 49.6162 45.353Z" fill="#2A902D"/>
<path d="M41.3085 41.0625C42.1678 41.1159 43.0106 41.3223 43.7973 41.6721C44.473 41.9726 45.0707 42.4243 45.5445 42.9921C46.5297 44.1825 46.8417 45.7917 46.9269 47.3385C46.9497 47.7549 46.9605 48.1785 46.9569 48.5913C46.9389 52.2537 46.3293 55.8777 45.3285 59.4213C48.4365 59.4213 51.3849 59.4213 54.3885 59.4213H61.9317L62.2773 58.5561L62.5533 57.8601H63.7173C63.8986 57.8601 64.0771 57.9049 64.2369 57.9904C64.3967 58.0761 64.5329 58.1998 64.6334 58.3508C64.7339 58.5016 64.7955 58.6751 64.8128 58.8556C64.8301 59.0361 64.8025 59.218 64.7325 59.3853L63.7473 61.7421C63.4496 62.4513 62.9781 63.0743 62.3765 63.5537C61.7749 64.0331 61.0624 64.3534 60.3045 64.4853L60.2001 64.5045L59.9253 64.5525C58.4685 64.8537 55.2117 65.3781 52.0329 65.8653C49.1253 66.3153 46.2813 66.7317 44.9361 66.9249C44.4261 66.9993 43.9053 67.0545 43.3761 67.0881C40.2357 67.2813 36.9933 66.5829 36.1533 63.0081C35.6061 60.7185 35.7261 58.2501 35.7513 55.8669" stroke="black" stroke-width="1.02765" stroke-miterlimit="10"/>
<path d="M56.3438 68.2189C58.3765 68.1253 60.1982 68.4265 60.9794 69.6985C61.373 70.3417 61.277 72.6097 60.8714 75.7729" stroke="black" stroke-width="1.02765" stroke-miterlimit="10"/>
<path d="M22.2891 80.8672C22.2935 80.8726 22.2971 80.8787 22.2999 80.8852C23.1699 82.6588 24.6999 84.19 26.6571 85.2616C33.5535 89.0344 43.9263 84.6136 47.6571 82.774C47.806 82.7007 47.9711 82.6666 48.1368 82.6749C48.3025 82.6833 48.4633 82.7337 48.6042 82.8215C48.745 82.9093 48.861 83.0316 48.9414 83.1768C49.0218 83.3219 49.0638 83.4852 49.0635 83.6512V111.944L57.0447 113.966C57.1683 113.997 57.2969 114.004 57.423 113.984C57.5491 113.965 57.6701 113.92 57.7785 113.853C57.8869 113.786 57.9807 113.697 58.0539 113.593C58.1272 113.489 58.1787 113.37 58.2051 113.246C58.2576 113.003 58.2131 112.75 58.081 112.54C57.9489 112.33 57.7396 112.18 57.4983 112.122L54.0555 110.988C54.2151 109.87 56.5503 99.6424 58.5351 89.4448" stroke="black" stroke-width="1.02765" stroke-miterlimit="10"/>
<path d="M53.9811 65.5625C56.0211 67.2905 57.4863 69.9473 58.8579 72.2045C62.1999 77.7041 64.6995 83.6897 66.6411 89.8145C67.2279 91.6649 67.7679 93.5345 68.2779 95.4041L72.1755 94.6037C72.3967 94.5318 72.6373 94.5493 72.8457 94.6525C73.0542 94.7557 73.214 94.9363 73.2909 95.1558C73.368 95.3753 73.356 95.6163 73.2576 95.827C73.1593 96.0378 72.9824 96.2017 72.7647 96.2837L64.4067 99.4037C64.4067 99.4037 61.9611 94.8353 58.5435 89.4437C53.5347 81.5333 44.2791 69.3413 41.8359 71.9417" stroke="black" stroke-width="1.02765" stroke-miterlimit="10"/>
<path d="M46.6875 38.4873C46.6875 38.4873 54.8835 37.9197 60.5019 26.7969C60.5019 26.7969 62.2779 28.0221 64.7535 31.8549C64.7535 31.8549 57.8079 45.9513 46.9263 49.6713" stroke="black" stroke-width="1.02765" stroke-miterlimit="10"/>
<path d="M45.9492 25.4844L46.4292 26.214L46.7184 26.658C47.0118 27.3415 47.2697 28.0397 47.4912 28.7496L47.5056 28.8L48.0552 30.9C48.0562 30.9024 48.0562 30.9049 48.0552 30.9072C48.2399 31.2113 48.4947 31.4667 48.798 31.6524C48.8698 31.6911 48.9366 31.7383 48.9972 31.7928C49.3272 32.124 48.4572 32.22 48.2772 32.3292C48.1978 32.3838 48.1326 32.4566 48.0874 32.5416C48.042 32.6267 48.0178 32.7213 48.0168 32.8176C46.9836 37.1172 47.6484 35.988 47.2044 36.9444C47.5896 36.618 48.5472 35.58 48.5472 35.58C48.6672 35.502 48.78 35.268 48.858 35.1516C49.1058 34.7714 49.3191 34.3698 49.4952 33.9516C50.0428 32.7025 50.1691 31.3093 49.8552 29.982C49.3596 27.9192 48.204 25.8552 45.9492 25.4844Z" fill="#2A902D"/>
<path d="M45.8505 26.7808C45.7627 27.227 45.551 27.6395 45.2397 27.9712C44.9017 28.3407 44.5082 28.6553 44.0733 28.9036C43.2549 29.3908 42.3441 29.7592 41.6565 30.4168C40.9681 31.0788 40.556 31.977 40.5033 32.9308C40.4553 33.9076 40.8045 34.9192 41.0169 35.8336C41.6901 38.7892 41.4741 41.6296 41.1021 44.6044C40.7493 47.4112 39.9981 50.158 38.5413 52.6012C36.8229 55.4812 34.0017 57.7864 30.8265 58.9696C28.1865 59.9548 23.0565 60.8284 21.1161 58.0876C20.7813 57.2224 20.7777 56.2324 20.9073 55.3C21.6693 49.8304 25.8633 44.2168 30.8673 41.9416C33.5481 40.7224 37.9197 38.8492 36.5073 35.1232C36.0573 33.9484 35.4273 32.9344 35.3073 31.7068C35.2965 31.5952 35.2857 31.4836 35.2749 31.3648C35.0733 28.4848 36.7497 25.7512 39.4641 24.7648C40.3521 24.4294 41.3015 24.2881 42.2487 24.3502C43.1959 24.4123 44.1187 24.6764 44.9553 25.1248C45.2523 25.2829 45.5182 25.4934 45.7401 25.7464C45.7553 25.7636 45.769 25.7821 45.7809 25.8016C45.7978 25.8441 45.8114 25.8878 45.8217 25.9324C45.8879 26.2105 45.8978 26.4989 45.8505 26.7808Z" fill="#2A902D"/>
<path d="M46.9626 48.4671C48.4122 48.1323 49.6842 47.0943 50.0478 45.5775C50.3862 44.1723 49.851 42.7299 49.0218 41.5995C48.2526 40.5555 46.6506 39.6795 46.7766 38.1987C46.8174 37.7187 47.055 37.2987 47.3646 36.9267C47.4762 36.7971 47.5914 36.6771 47.7174 36.5547" stroke="black" stroke-width="1.02765" stroke-miterlimit="10"/>
<path d="M43.9734 36.8203L43.9062 41.7199" stroke="black" stroke-width="1.02765" stroke-miterlimit="10"/>
<path d="M35.9833 34.3607C35.5357 33.1847 34.9033 32.1707 34.7833 30.9443C34.7713 30.8315 34.7605 30.7187 34.7521 30.5987C34.5493 27.7187 36.2269 24.9863 38.9401 23.9987C39.8283 23.6637 40.7779 23.5224 41.7253 23.5846C42.6726 23.6466 43.5956 23.9106 44.4325 24.3587C44.7288 24.5174 44.9938 24.7284 45.2149 24.9815L45.2713 25.0499C45.4672 25.2894 45.6097 25.5681 45.6889 25.8671C45.7682 26.1663 45.7825 26.4789 45.7309 26.7839C45.6435 27.2289 45.4332 27.6405 45.1237 27.9719C44.7844 28.3421 44.3902 28.6578 43.9549 28.9079C43.1365 29.3951 42.2269 29.7611 41.5369 30.4187C40.8481 31.0826 40.4371 31.9834 40.3873 32.9387C40.3381 33.9155 40.6885 34.9259 40.8973 35.8427C41.5705 38.7983 41.3557 41.6375 40.9837 44.6111C40.6309 47.4179 39.8809 50.1659 38.4217 52.6091C36.7033 55.4891 33.8833 57.7955 30.7069 58.9775C28.0153 59.9807 22.7377 60.8687 20.8837 57.9323C20.2609 56.9471 20.2201 55.7003 20.3809 54.5459C21.1429 49.0775 25.3393 43.4615 30.3409 41.1875C33.0265 39.9539 37.3981 38.0855 35.9833 34.3607Z" stroke="black" stroke-width="1.02765" stroke-miterlimit="10"/>
<path d="M46.2871 31.0352C46.5449 31.0352 46.7539 30.8262 46.7539 30.5684C46.7539 30.3106 46.5449 30.1016 46.2871 30.1016C46.0294 30.1016 45.8203 30.3106 45.8203 30.5684C45.8203 30.8262 46.0294 31.0352 46.2871 31.0352Z" fill="black"/>
<path d="M46.1779 29.0703C46.1779 29.0703 44.5975 29.7831 45.0979 31.1691" stroke="black" stroke-width="1.02765" stroke-miterlimit="10"/>
<path d="M47.6398 36.5836C48.0358 36.4396 48.4582 35.9836 48.7462 35.6848C49.0647 35.3449 49.3492 34.9748 49.5958 34.5796C50.2902 33.4686 50.6529 32.1823 50.6412 30.8721C50.6295 29.5621 50.244 28.2825 49.5298 27.184C49.0354 26.4208 48.3766 25.744 47.551 25.36C46.8628 25.0358 46.0928 24.9271 45.3418 25.048C45.7615 25.3906 46.1379 25.7832 46.4626 26.2168C46.9518 26.8587 47.2942 27.6002 47.4658 28.3888C47.4922 28.5268 47.515 28.6636 47.539 28.8028C47.659 29.5444 47.7262 30.2956 48.0898 30.9028C48.2752 31.2093 48.5312 31.4673 48.8362 31.6552C48.908 31.6939 48.9748 31.741 49.0354 31.7956C49.3654 32.1268 48.4954 32.2216 48.3154 32.3308C47.8534 32.6008 48.025 33.376 47.9638 33.8248C47.89 34.3486 47.7333 34.8574 47.4994 35.332C47.4166 35.5006 47.3224 35.6634 47.2174 35.8192C46.7374 36.5308 46.0174 37.0876 45.1126 37.0924C44.71 37.0888 44.3119 37.0072 43.9402 36.8524C43.3028 36.5934 42.7327 36.1924 42.2734 35.68" stroke="black" stroke-width="1.02765" stroke-miterlimit="10"/>
<path d="M46.7709 34.0967C46.7709 34.0967 45.6825 34.7171 45.2109 33.2891" stroke="black" stroke-width="1.02765" stroke-miterlimit="10"/>
<path d="M62.4851 29.0982L65.1971 27.7878C65.445 27.6683 65.6616 27.4924 65.8295 27.2742L67.0955 25.6314C67.2413 25.432 67.3037 25.1837 67.2696 24.939C67.2354 24.6943 67.1073 24.4726 66.9124 24.3208C66.7175 24.1689 66.4711 24.0989 66.2255 24.1257C65.98 24.1524 65.7544 24.2736 65.5967 24.4638L65.3651 24.7338L65.8535 23.5782C65.8866 23.4988 65.9023 23.4132 65.8996 23.3272C65.8967 23.2412 65.8753 23.1567 65.8369 23.0796C65.7987 23.0026 65.7442 22.9347 65.6772 22.8806C65.6103 22.8264 65.5325 22.7873 65.4491 22.7658L64.6775 22.8678L67.0895 19.5738C67.4315 19.107 67.0991 18.543 66.5987 18.3834C66.0227 18.1998 65.4899 18.579 65.1323 18.999C63.6611 20.7318 62.5463 22.7358 61.5107 24.7518C61.1627 25.4295 60.8271 26.1126 60.5039 26.8014" stroke="black" stroke-width="1.02765" stroke-linejoin="round"/>
<path d="M64.6772 22.8672C64.6772 22.8672 63.104 24.8244 65.3648 24.7332" stroke="black" stroke-width="1.02765" stroke-miterlimit="10"/>
<path d="M60.2979 64.4844C60.2979 64.4844 59.1315 66.3768 60.4899 66.8412C61.8483 67.3056 62.5911 65.1216 62.5911 65.1216H59.9691" stroke="black" stroke-width="1.02765" stroke-miterlimit="10"/>
<path d="M60.7143 66.8984H55.3047" stroke="black" stroke-width="1.02765" stroke-miterlimit="10"/>
<path d="M66.1753 54.0433C66.1737 54.1766 66.1485 54.3088 66.1009 54.4333L65.5585 55.8457H63.2461L64.0489 53.6641C64.1377 53.4222 64.3089 53.2193 64.5324 53.0909C64.7558 52.9626 65.0174 52.9171 65.2711 52.9624C65.5248 53.0076 65.7545 53.1407 65.9198 53.3383C66.0851 53.536 66.1755 53.7856 66.1753 54.0433Z" stroke="black" stroke-width="1.02765" stroke-miterlimit="10"/>
<path d="M54.8864 55.8445L53.5664 59.4217L55.6148 53.8261C55.7096 53.5674 55.8817 53.3442 56.1078 53.1866C56.3338 53.029 56.6029 52.9448 56.8784 52.9453H65.0792" stroke="black" stroke-width="1.02765" stroke-miterlimit="10"/>
<path d="M61.9336 59.4209L63.2464 55.8438" stroke="black" stroke-width="1.02765" stroke-miterlimit="10"/>
<path d="M20.3507 56.3516C16.7327 66.092 18.3911 75.7724 18.3911 75.7724C23.8559 78.8132 31.6043 78.5492 37.1543 75.8768C39.1175 74.9288 41.2343 73.5008 42.0911 71.408C42.7199 69.8756 43.3739 68.3552 43.9127 66.8012" stroke="black" stroke-width="1.02765" stroke-miterlimit="10"/>
<path d="M17.2305 86.7422H49.0701" stroke="black" stroke-width="1.02765" stroke-miterlimit="10"/>
<path d="M45.3315 59.4219L44.9883 60.5823" stroke="black" stroke-width="1.02765" stroke-miterlimit="10"/>
<path d="M22.299 80.884C22.299 80.884 20.8974 78.3831 20.4414 76.7188" stroke="black" stroke-width="1.02765" stroke-miterlimit="10"/>
<path d="M29.2176 10.2188V35.1043H19.8672C20.1752 34.1196 20.4332 33.1236 20.6412 32.1163C21.2796 29.0155 21.4692 25.8139 21.3696 22.5799C21.1836 16.3747 23.7156 12.9583 27.0792 11.1404C27.7633 10.7705 28.479 10.4621 29.2176 10.2188Z" stroke="#CCDDE2" stroke-width="1.02765" stroke-miterlimit="10"/>
<path d="M27.0783 11.1406V32.1166H20.6367C21.2751 29.0158 21.4647 25.8142 21.3651 22.5802C21.1827 16.375 23.7147 12.961 27.0783 11.1406Z" stroke="#CCDDE2" stroke-width="1.02765" stroke-miterlimit="10"/>
</g>
</g>
<defs>
<clipPath id="clip0_156_6932">
<rect width="120" height="120" fill="white"/>
</clipPath>
</defs>
</svg>
