<svg width="32" height="32" viewBox="0 0 32 32" fill="none" xmlns="http://www.w3.org/2000/svg">
<mask id="mask0_2_15899" style="mask-type:alpha" maskUnits="userSpaceOnUse" x="0" y="0" width="32" height="32">
<rect width="32" height="32" fill="#737791"/>
</mask>
<g mask="url(#mask0_2_15899)">
<path d="M8 29.3346C6.88889 29.3346 5.94444 28.9457 5.16667 28.168C4.38889 27.3902 4 26.4457 4 25.3346V21.3346H8V2.66797H28V25.3346C28 26.4457 27.6111 27.3902 26.8333 28.168C26.0556 28.9457 25.1111 29.3346 24 29.3346H8ZM24 26.668C24.3778 26.668 24.6944 26.5402 24.95 26.2846C25.2056 26.0291 25.3333 25.7124 25.3333 25.3346V5.33464H10.6667V21.3346H22.6667V25.3346C22.6667 25.7124 22.7944 26.0291 23.05 26.2846C23.3056 26.5402 23.6222 26.668 24 26.668ZM12 12.0013V9.33464H24V12.0013H12ZM12 16.0013V13.3346H24V16.0013H12ZM8 26.668H20V24.0013H6.66667V25.3346C6.66667 25.7124 6.79444 26.0291 7.05 26.2846C7.30556 26.5402 7.62222 26.668 8 26.668ZM8 26.668H6.66667H20H8Z" fill="white"/>
</g>
</svg>
