<svg width="82" height="110" viewBox="0 0 82 110" fill="none" xmlns="http://www.w3.org/2000/svg">
<path d="M63.1133 21.3474C65.3933 20.079 68.9465 22.6674 70.5173 24.1206C72.3533 25.8102 73.8341 27.9606 74.9729 30.1746C80.1437 40.2258 82.8617 52.1838 78.6125 63.075C77.1815 66.7621 74.9489 70.0851 72.0761 72.8034C70.4609 74.3238 67.1369 75.7578 66.6521 78.0834C66.5482 78.6609 66.5893 79.2551 66.7721 79.8126C67.4141 81.9438 69.3521 83.421 70.8329 84.9726C77.9429 92.4378 72.8021 104.011 65.2001 108.998" stroke="#CCDDE2" stroke-width="1.01309" stroke-miterlimit="10"/>
<path d="M7.35547 60.5412C9.57547 58.1832 12.4123 56.5896 15.2647 55.1232C18.3535 53.5356 21.3931 51.9372 24.2011 49.8756C25.9106 48.6232 27.528 47.2497 29.0407 45.7656" stroke="#CCDDE2" stroke-width="1.01309" stroke-miterlimit="10"/>
<path d="M3.75401 90.4078C0.917206 83.0794 0.197207 74.6794 3.15641 67.3594" stroke="#CCDDE2" stroke-width="1.01309" stroke-miterlimit="10"/>
<path d="M40.9283 14.653V6.79781C40.9283 6.25677 40.7134 5.73789 40.3309 5.35532C39.9483 4.97273 39.4294 4.75781 38.8883 4.75781H12.8759C12.3349 4.75781 11.816 4.97273 11.4334 5.35532C11.0509 5.73789 10.8359 6.25677 10.8359 6.79781V43.7362C10.8382 44.2758 11.0541 44.7925 11.4364 45.1732C11.8187 45.554 12.3364 45.7678 12.8759 45.7678H38.8919C39.1445 45.7698 39.395 45.7216 39.6287 45.6262" stroke="black" stroke-width="1.01309" stroke-linecap="round" stroke-linejoin="round"/>
<path d="M38.0588 6.00781H13.7024C12.6241 6.00781 11.75 6.88194 11.75 7.96019V42.5766C11.75 43.6549 12.6241 44.529 13.7024 44.529H38.0588C39.1371 44.529 40.0112 43.6549 40.0112 42.5766V7.96019C40.0112 6.88194 39.1371 6.00781 38.0588 6.00781Z" fill="#2A902D"/>
<path d="M37.6805 8.98438H14.3909C13.8513 8.98438 13.4141 9.42165 13.4141 9.96118V15.2196C13.4141 15.7591 13.8513 16.1964 14.3909 16.1964H37.6805C38.22 16.1964 38.6573 15.7591 38.6573 15.2196V9.96118C38.6573 9.42165 38.22 8.98438 37.6805 8.98438Z" fill="#2A902D"/>
<path d="M25.8831 12.0241C26.2953 12.0241 26.6295 11.6899 26.6295 11.2777C26.6295 10.8655 26.2953 10.5312 25.8831 10.5312C25.4709 10.5312 25.1367 10.8655 25.1367 11.2777C25.1367 11.6899 25.4709 12.0241 25.8831 12.0241Z" fill="#D7E8F0"/>
<path d="M23.8008 14.6547C23.8008 14.1019 24.0204 13.5717 24.4112 13.1808C24.8022 12.7899 25.3323 12.5703 25.8852 12.5703C26.438 12.5703 26.9682 12.7899 27.359 13.1808C27.75 13.5717 27.9696 14.1019 27.9696 14.6547H23.8008Z" fill="#D7E8F0"/>
<path d="M26.038 23.9219C25.2428 23.9214 24.4652 24.1568 23.8037 24.5983C23.1423 25.0399 22.6266 25.6676 22.3221 26.4024C22.0175 27.137 21.9377 27.9455 22.0928 28.7255C22.2478 29.5056 22.6307 30.2221 23.193 30.7844C23.7554 31.3468 24.4719 31.7297 25.2519 31.8847C26.032 32.0398 26.8404 31.96 27.5751 31.6554C28.3097 31.3508 28.9376 30.8352 29.3792 30.1738C29.8206 29.5123 30.0561 28.7347 30.0556 27.9395C30.0552 26.874 29.6319 25.8523 28.8785 25.099C28.1252 24.3456 27.1035 23.9221 26.038 23.9219ZM26.038 30.9875C25.8824 30.9875 25.7331 30.9257 25.623 30.8156C25.513 30.7055 25.4512 30.5563 25.4512 30.4007C25.4512 30.245 25.513 30.0958 25.623 29.9857C25.7331 29.8757 25.8824 29.8139 26.038 29.8139C26.1936 29.8139 26.3429 29.8757 26.453 29.9857C26.563 30.0958 26.6248 30.245 26.6248 30.4007C26.6248 30.5563 26.563 30.7055 26.453 30.8156C26.3429 30.9257 26.1936 30.9875 26.038 30.9875ZM26.782 26.4695C26.656 27.3407 26.5492 28.2587 26.2936 29.1095C26.2312 29.3111 25.8484 29.3111 25.786 29.1095C25.6024 28.4723 25.4613 27.8237 25.3636 27.1679C25.2856 26.6879 25.0036 25.9199 25.2736 25.4543C25.5064 25.0415 26.1676 24.9899 26.5492 25.2059C27.022 25.4759 26.8408 26.0363 26.782 26.4695Z" fill="#D7E8F0"/>
<path d="M26.0321 30.9939C26.3562 30.9939 26.6189 30.7312 26.6189 30.4071C26.6189 30.0831 26.3562 29.8203 26.0321 29.8203C25.708 29.8203 25.4453 30.0831 25.4453 30.4071C25.4453 30.7312 25.708 30.9939 26.0321 30.9939Z" fill="white"/>
<path d="M26.7791 26.4747C26.6531 27.3459 26.5463 28.2639 26.2907 29.1147C26.2283 29.3163 25.8455 29.3163 25.7831 29.1147C25.5995 28.4776 25.4584 27.829 25.3607 27.1731C25.2827 26.6931 25.0007 25.9251 25.2707 25.4595C25.5035 25.0467 26.1647 24.9951 26.5463 25.2111C27.0191 25.4811 26.8379 26.0415 26.7791 26.4747Z" fill="white"/>
<path d="M15.9414 19.4141H35.5686" stroke="white" stroke-width="1.01309" stroke-miterlimit="10"/>
<path d="M15.9414 21.3516H35.5686" stroke="white" stroke-width="1.01309" stroke-miterlimit="10"/>
<path d="M15.9414 33.7812H35.5686" stroke="white" stroke-width="1.01309" stroke-miterlimit="10"/>
<path d="M40.3466 38.7764C40.421 38.834 40.5506 14.5724 40.5506 14.5724L33.167 11.7188C33.167 11.7188 27.6782 25.172 28.0106 25.3076L29.4926 25.9076C29.4926 25.9076 29.8586 25.6184 30.707 27.7076C31.5554 29.7968 37.6706 36.7184 40.3466 38.7764Z" fill="white"/>
<path d="M20.5 35.6094H31.0096" stroke="white" stroke-width="1.01309" stroke-miterlimit="10"/>
<path d="M69.8936 49.6802C69.7976 50.7266 68.5064 62.729 69.758 65.0726C70.2116 65.921 65.7092 65.1086 65.438 65.0462C61.358 64.0862 57.5372 62.3162 53.9612 60.1634C50.3852 58.0106 47.2256 55.1774 43.4972 53.2682C42.8084 52.9154 41.2832 52.1426 41.7344 51.131C42.5024 49.4078 43.4456 47.0294 43.52 44.9258L43.4972 42.1658C43.4972 42.1658 42.9524 40.433 44.7296 41.951C46.5068 43.469 54.6392 47.471 59.9036 42.8342C65.168 38.1974 65.48 34.5302 65.48 34.5302C65.48 34.5302 62.1092 26.2814 52.5128 31.3274L55.9028 22.5674C55.9028 22.5674 55.4384 21.9782 56.9072 22.0874C58.376 22.1966 61.1 21.4706 61.4372 18.779C61.4372 18.779 61.4636 17.9006 63.0176 19.5614C64.5716 21.2222 71.9156 27.7082 69.8936 49.6802Z" fill="#2E2E2E"/>
<path d="M51.0273 18.6132C51.8508 18.0094 52.7729 17.5534 53.7525 17.2656" stroke="black" stroke-width="1.01309" stroke-miterlimit="10"/>
<path d="M47.3733 59.5625L40.7733 83.4233L34.7733 105.122L30.9525 105.482C30.0765 105.562 29.2623 105.967 28.6691 106.617C28.0761 107.267 27.7469 108.114 27.7461 108.994H39.5625L48.1209 94.2437L54.4869 83.2697L64.4397 66.1097C64.7277 65.6093 65.0073 65.1089 65.2797 64.5977C65.2843 64.5918 65.2868 64.5847 65.2869 64.5773" stroke="black" stroke-width="1.01309" stroke-miterlimit="10"/>
<path d="M69.6458 51.5238C69.7358 50.9406 69.815 50.3574 69.8858 49.7706C69.8858 49.743 69.8858 49.719 69.893 49.6914C70.2969 46.1377 70.3828 42.5551 70.1498 38.9862C70.1513 38.9759 70.1513 38.9653 70.1498 38.955C69.8858 35.0706 69.173 30.9906 67.7498 27.0126C67.3365 25.8653 66.8254 24.7555 66.2222 23.6958C66.1778 23.6082 66.1274 23.5218 66.0722 23.4354C65.8826 23.1042 65.6786 22.7814 65.4722 22.4622C65.1926 22.041 64.8962 21.6318 64.5854 21.2418C64.1219 20.6496 63.608 20.0987 63.0494 19.5954C63.0458 19.5941 63.0424 19.592 63.0398 19.5894C63.037 19.5866 63.035 19.5834 63.0338 19.5798C62.6187 19.2122 62.1776 18.8754 61.7138 18.5718C61.6274 18.513 61.541 18.4578 61.4534 18.4026C61.4398 18.3922 61.4253 18.3829 61.4102 18.375" stroke="black" stroke-width="1.01309" stroke-miterlimit="10"/>
<path d="M54.4886 83.2734L63.7694 108.998H50.3774C50.3774 108.162 50.6808 107.355 51.2312 106.726C51.7818 106.097 52.5418 105.69 53.3702 105.579L56.285 105.189C56.285 105.189 52.3658 100.029 48.125 94.2462" stroke="black" stroke-width="1.01309" stroke-miterlimit="10"/>
<path d="M56.1385 21.9656L52.1161 32.3528C51.9946 32.6664 51.812 32.9527 51.5788 33.195C51.3457 33.4374 51.0665 33.6308 50.7579 33.7643C50.4493 33.8978 50.1171 33.9685 49.7809 33.9723C49.4446 33.9762 49.1109 33.9132 48.7993 33.7868L39.2713 29.93C39.2666 29.9171 39.2625 29.9039 39.2593 29.8904C39.1393 29.4104 37.9081 24.8096 36.4153 24.8096C35.2693 24.8096 35.8153 27.0788 36.2953 28.3628C36.3505 28.5008 36.4021 28.6304 36.4489 28.7408L36.3745 28.7096L28.9141 25.6688L33.6193 13.2656L42.8053 16.814L56.1385 21.9656Z" fill="#D7E8F0"/>
<path d="M36.4423 28.7467C35.9419 27.6007 35.1451 24.8155 36.4123 24.8155C37.9051 24.8155 39.1351 29.42 39.2563 29.8964L39.2683 29.9359L48.7951 33.7939C49.1072 33.9201 49.4413 33.9828 49.778 33.9786C50.1146 33.9743 50.447 33.9032 50.7559 33.7691C51.0647 33.6351 51.3438 33.4409 51.5767 33.1979C51.8097 32.955 51.9922 32.6681 52.1131 32.3539L56.5951 20.774L42.3487 15.2672L33.1639 11.7188L28.0039 25.3076L36.4423 28.7467Z" stroke="black" stroke-width="1.01309" stroke-miterlimit="10"/>
<path d="M65.9782 28.4482C66.2638 33.4282 65.1514 39.799 58.8022 43.549C49.4098 49.1026 36.979 36.5206 32.377 30.415C31.6166 29.4123 30.9743 28.3251 30.463 27.175C30.308 26.8403 30.178 26.4946 30.0742 26.1406" stroke="black" stroke-width="1.01309" stroke-miterlimit="10"/>
<path d="M43.4077 41.0938C43.4077 41.0938 44.1277 46.3389 41.9077 50.7981L41.9173 50.7861C41.9173 50.7861 41.9173 50.7945 41.9101 50.7981C38.5021 57.1905 33.6229 67.3882 36.3445 74.7982C37.2697 77.3182 38.8645 80.3181 40.7713 83.4285" stroke="black" stroke-width="1.01309" stroke-miterlimit="10"/>
<path d="M59.9383 10.7075L59.9455 10.7411C60.0032 11.4437 59.7795 12.1405 59.3237 12.6781C58.8677 13.2157 58.2168 13.5502 57.5143 13.6079C57.0645 13.6469 56.6125 13.568 56.2027 13.3787C56.0853 13.3289 55.9725 13.2692 55.8655 13.1999C55.8217 13.1695 55.7859 13.1288 55.7612 13.0815C55.7365 13.0341 55.7235 12.9815 55.7235 12.9281C55.7235 12.8747 55.7365 12.8222 55.7612 12.7749C55.7859 12.7275 55.8217 12.6868 55.8655 12.6563C56.3815 12.2843 56.8531 11.7659 56.9875 11.1587C57.0278 10.972 57.0312 10.7792 56.9971 10.5911C56.9604 10.3515 56.8615 10.1258 56.7103 9.9363C56.5591 9.74682 56.361 9.60018 56.1355 9.51114C56.0649 9.49026 55.9919 9.4785 55.9183 9.47634C55.7107 9.45954 55.4383 9.48594 55.3843 9.63954C55.6493 8.89494 55.6602 8.0835 55.4155 7.33194C55.2633 6.86696 55.0068 6.44295 54.6655 6.09236C54.681 6.22819 54.6665 6.36577 54.6227 6.49531C54.579 6.62485 54.5072 6.74316 54.4127 6.84181C54.318 6.94047 54.2028 7.01706 54.0751 7.06614C53.9475 7.1151 53.8106 7.13538 53.6743 7.12554C52.6171 7.08954 52.4179 6.08155 52.4179 6.08155C52.4179 6.08155 52.4179 6.09356 52.4179 6.10076C51.9571 7.24914 50.6179 7.28034 49.6579 6.77035C49.3175 6.59568 49.0184 6.35018 48.7807 6.05035C48.5083 4.87315 49.4791 3.73556 50.5987 3.57236C50.6227 2.82356 51.1687 2.02195 51.9055 1.96075C52.1622 1.93881 52.4201 1.98614 52.6523 2.09779C52.8845 2.20945 53.0823 2.38134 53.2255 2.59555C53.2459 2.62795 53.2687 2.66275 53.2867 2.69875C53.5879 2.26195 54.0811 1.78315 54.6067 1.73875C54.9713 1.71316 55.3349 1.80028 55.6483 1.98832C55.9617 2.17636 56.2097 2.45622 56.3587 2.78995C56.3587 2.73835 56.8207 2.52715 56.8675 2.50795C57.299 2.34391 57.7728 2.3281 58.2143 2.46302C58.6557 2.59794 59.0399 2.87592 59.3059 3.25315C59.3327 3.35744 59.3503 3.46383 59.3587 3.57116C59.3851 3.8921 59.3358 4.21476 59.2147 4.51315C59.3852 4.56178 59.5446 4.64331 59.6839 4.75315C59.9853 4.97385 60.1877 5.3046 60.2467 5.67355C60.2527 5.71075 60.2563 5.74795 60.2587 5.78515C60.2827 6.06632 60.2226 6.34828 60.0859 6.59515C60.4407 6.69652 60.7631 6.88878 61.0209 7.1529C61.2787 7.41702 61.4631 7.7439 61.5559 8.10114C61.5852 8.21934 61.6049 8.33982 61.6147 8.46114C61.6556 8.97534 61.5081 9.48677 61.1996 9.90018C60.8912 10.3135 60.4428 10.6005 59.9383 10.7075Z" fill="#2A902D"/>
<path d="M59.938 10.7078L59.9452 10.7414C60.0029 11.444 59.7792 12.1407 59.3233 12.6783C58.8673 13.2159 58.2166 13.5504 57.514 13.6082C57.0643 13.6472 56.6122 13.5682 56.2024 13.379C56.7184 13.007 57.19 12.4874 57.3232 11.8802C57.3705 11.6544 57.3653 11.4208 57.3081 11.1974C57.2508 10.9739 57.1432 10.7667 56.9932 10.5914C56.9565 10.3518 56.8576 10.126 56.7064 9.93652C56.5552 9.74704 56.3571 9.6004 56.1316 9.51136C56.061 9.49048 55.9879 9.47872 55.9144 9.47656C55.9855 8.72608 55.809 7.97284 55.4116 7.33216C55.2594 6.86721 55.0029 6.44319 54.6616 6.0926C54.6771 6.22843 54.6625 6.36602 54.6187 6.49556C54.5751 6.6251 54.5034 6.74341 54.4087 6.84206C54.3141 6.94072 54.1989 7.01728 54.0712 7.06636C53.9436 7.11532 53.8067 7.13572 53.6704 7.12576C52.6132 7.08976 52.414 6.0818 52.414 6.0818C52.414 6.0818 52.414 6.0938 52.414 6.101C51.9532 7.24936 50.614 7.28056 49.654 6.7706C49.3135 6.59592 49.0145 6.35042 48.7768 6.0506C48.5044 4.8734 49.4752 3.7358 50.5948 3.5726C50.6188 2.8238 51.1648 2.0222 51.9016 1.961C52.1583 1.93906 52.4161 1.98638 52.6483 2.09804C52.8805 2.20969 53.0784 2.38159 53.2216 2.5958C53.242 2.6282 53.2648 2.663 53.2828 2.699C53.584 2.2622 54.0772 1.7834 54.6028 1.739C54.9679 1.71265 55.3324 1.79941 55.6465 1.98749C55.9606 2.17558 56.2092 2.45585 56.3584 2.7902C56.3584 2.7386 56.8204 2.5274 56.8672 2.5082C57.2987 2.34416 57.7725 2.32834 58.2139 2.46327C58.6554 2.59819 59.0395 2.87617 59.3056 3.2534C59.3323 3.35768 59.35 3.46408 59.3584 3.5714C59.3848 3.89234 59.3355 4.21501 59.2144 4.5134C59.3849 4.56203 59.5444 4.64356 59.6836 4.7534C59.6616 4.91825 59.6184 5.07957 59.5552 5.2334C59.8213 5.31134 60.0608 5.46174 60.2464 5.6678C60.2524 5.705 60.256 5.7422 60.2584 5.7794C60.2824 6.06057 60.2223 6.34252 60.0856 6.5894C60.2641 6.64034 60.4353 6.71458 60.5944 6.8102C60.5685 6.98564 60.5116 7.15504 60.4264 7.31056C60.8801 7.43824 61.2778 7.7146 61.5556 8.09536C61.5849 8.21356 61.6045 8.33404 61.6144 8.45536C61.6569 8.97052 61.5101 9.48352 61.2015 9.89812C60.8928 10.3127 60.4437 10.6006 59.938 10.7078Z" fill="#2A902D"/>
<path d="M50.6094 8.29688C50.6094 8.29688 52.131 8.31847 52.4802 9.60247" stroke="black" stroke-width="1.01309" stroke-miterlimit="10"/>
<path d="M50.2169 12.1425C49.8707 12.228 49.5113 12.2455 49.1585 12.1941C49.0922 12.1827 49.0297 12.1555 48.9761 12.1147C48.9227 12.0738 48.8799 12.0206 48.8515 11.9597C48.8231 11.8987 48.8098 11.8317 48.8129 11.7645C48.8161 11.6973 48.8354 11.6318 48.8693 11.5737C49.1861 11.0373 49.5125 10.5069 49.8677 9.99695C49.9234 9.93203 49.9577 9.85163 49.9661 9.76655C49.9661 9.76655 49.8197 8.17895 50.1401 6.96094" stroke="black" stroke-width="1.01309" stroke-miterlimit="10"/>
<path d="M51.4136 9.65607C51.4457 9.40023 51.2954 9.17067 51.0778 9.14331C50.8601 9.11595 50.6576 9.30111 50.6254 9.55683C50.5933 9.81267 50.7436 10.0422 50.9613 10.0696C51.1789 10.0969 51.3814 9.91179 51.4136 9.65607Z" fill="black"/>
<path d="M58.6055 13.2656C58.6379 13.5836 60.0647 15.7856 61.3547 18.2168C61.3541 18.2208 61.3541 18.2249 61.3547 18.2288C61.3787 18.2804 61.4027 18.3356 61.4303 18.3908" stroke="black" stroke-width="1.01309" stroke-linecap="round" stroke-linejoin="round"/>
<path d="M53.457 15.5938L53.9058 18.7882" stroke="black" stroke-width="1.01309" stroke-miterlimit="10"/>
<path d="M49.6719 12.2188C49.6719 12.2188 50.3223 15.3819 51.9219 15.8607C53.5215 16.3395 54.9099 14.3439 54.9099 14.3439" stroke="black" stroke-width="1.01309" stroke-linecap="round" stroke-linejoin="round"/>
<path d="M50.1055 13.6484C50.318 13.7726 50.5581 13.8419 50.8041 13.8498C51.0501 13.8577 51.2942 13.8042 51.5143 13.694" stroke="black" stroke-width="1.01309" stroke-linecap="round" stroke-linejoin="round"/>
<path d="M53.1053 2.54223C53.0862 2.29686 53.0035 2.06068 52.8653 1.85703C52.6895 1.58718 52.4282 1.38405 52.1234 1.28014C51.8185 1.17622 51.4877 1.1775 51.1836 1.28378C50.8796 1.39005 50.6199 1.59518 50.4462 1.86639C50.2724 2.13759 50.1947 2.4592 50.2253 2.77983" stroke="black" stroke-width="1.01309" stroke-miterlimit="10" stroke-linecap="round"/>
<path d="M52.4905 4.73212C52.4602 4.38548 52.3461 4.0514 52.1579 3.75872C51.9698 3.46602 51.7133 3.22352 51.4105 3.05212C49.8853 2.19892 47.9305 3.85612 48.4765 5.49772C48.6685 6.06892 49.1257 6.48412 49.6465 6.76012C50.6065 7.27013 51.9505 7.24013 52.4065 6.09052L52.4137 6.07252C52.4137 6.07252 52.6128 7.07933 53.67 7.11653C53.8066 7.12613 53.9435 7.10561 54.0712 7.05653C54.1989 7.00733 54.3143 6.93066 54.4091 6.83198C54.5039 6.73329 54.5758 6.61496 54.6199 6.48538C54.6638 6.35579 54.6788 6.21813 54.6637 6.08212C55.5733 7.01813 55.8109 8.41733 55.3837 9.63053C55.4617 9.41213 55.9837 9.45173 56.1349 9.50213C56.7853 9.72893 57.1321 10.4981 56.9881 11.1509C56.8525 11.7617 56.3808 12.2777 55.8672 12.6521C55.8234 12.6825 55.7877 12.7231 55.763 12.7702C55.7383 12.8175 55.7253 12.8701 55.7253 12.9233C55.7253 12.9766 55.7383 13.0292 55.763 13.0763C55.7877 13.1236 55.8234 13.1642 55.8672 13.1945C56.3562 13.5088 56.9357 13.6523 57.5149 13.6025C58.2172 13.5447 58.8678 13.2104 59.3237 12.673C59.7796 12.1357 60.0035 11.4393 59.946 10.7369L59.9388 10.7033C60.4024 10.6063 60.8203 10.3568 61.1255 9.99461C61.4308 9.63245 61.606 9.17849 61.6233 8.70521C61.6405 8.23193 61.4988 7.76633 61.2207 7.38293C60.9426 6.99957 60.5441 6.7203 60.0888 6.58972C60.2255 6.34284 60.2856 6.06088 60.2616 5.77972C60.2286 5.39828 60.0461 5.04539 59.7538 4.79808C59.4615 4.55078 59.0832 4.42913 58.7016 4.45972" stroke="black" stroke-width="1.01309" stroke-linecap="round" stroke-linejoin="round"/>
<path d="M53.0508 1.80389C53.3388 1.32389 53.6568 1.05509 54.2508 1.00589C54.6193 0.975782 54.9881 1.06162 55.3055 1.25139C55.6229 1.44115 55.8729 1.72537 56.0208 2.06429C56.0004 2.01749 56.4828 1.79789 56.532 1.77869C56.7243 1.70515 56.9265 1.66067 57.132 1.64669C57.6799 1.61721 58.2181 1.80046 58.6341 2.15819C59.0503 2.51593 59.3121 3.02052 59.3652 3.56669C59.3916 3.88763 59.3423 4.21029 59.2212 4.50869" stroke="black" stroke-width="1.01309" stroke-linecap="square" stroke-linejoin="round"/>
<path d="M61.3575 18.2109C61.3575 18.2109 62.4783 21.9381 56.0703 22.1397" stroke="black" stroke-width="1.01309" stroke-miterlimit="10"/>
<path d="M28.0391 55.5619C28.0283 52.8367 30.7067 52.1035 31.9895 52.1275C39.9395 52.2787 41.1383 39.4219 41.1383 39.4219" stroke="black" stroke-width="1.01309" stroke-linecap="round" stroke-linejoin="round"/>
<path d="M69.6455 51.5234C69.6455 51.5234 68.7071 60.7802 69.6455 63.8954C70.5839 67.0106 65.1875 64.5662 65.1875 64.5662" stroke="black" stroke-width="1.01309" stroke-miterlimit="10"/>
<path d="M15.8833 58.5H9.64453" stroke="black" stroke-width="1.01309" stroke-linecap="round" stroke-linejoin="round"/>
<path d="M38.2384 58.5H26.3008" stroke="black" stroke-width="1.01309" stroke-linecap="round" stroke-linejoin="round"/>
<path d="M24.5867 58.5H17.5391" stroke="black" stroke-width="1.01309" stroke-linecap="round" stroke-linejoin="round"/>
<path d="M24.402 55.5625H17.4336" stroke="black" stroke-width="1.01309" stroke-linecap="round" stroke-linejoin="round"/>
<path d="M29.9573 55.5625H26.1953" stroke="black" stroke-width="1.01309" stroke-linecap="round" stroke-linejoin="round"/>
<path d="M39.5199 55.5625H32.2539" stroke="black" stroke-width="1.01309" stroke-linecap="round" stroke-linejoin="round"/>
<path d="M15.6972 55.5625H14.4648" stroke="black" stroke-width="1.01309" stroke-linecap="round" stroke-linejoin="round"/>
<path d="M24.1758 55.2891H25.7874C25.7874 55.2891 27.6342 57.0327 25.7874 59.0283V60.4227H24.1758" stroke="black" stroke-width="1.01309" stroke-linecap="round" stroke-linejoin="round"/>
<path d="M17.0781 55.2891C17.0781 55.2891 18.9249 57.0327 17.0781 59.0283V60.4227" stroke="black" stroke-width="1.01309" stroke-linecap="round" stroke-linejoin="round"/>
<path d="M17.0764 60.4227H15.4648V59.0283C17.3128 57.0327 15.4648 55.2891 15.4648 55.2891H17.0764" stroke="black" stroke-width="1.01309" stroke-linecap="round" stroke-linejoin="round"/>
<path d="M24.1758 55.2891C24.1758 55.2891 26.0238 57.0327 24.1758 59.0283V60.4227" stroke="black" stroke-width="1.01309" stroke-linecap="round" stroke-linejoin="round"/>
<path d="M15.4648 59.0312H17.0764" stroke="black" stroke-width="1.01309" stroke-linecap="round" stroke-linejoin="round"/>
<path d="M24.1758 59.0312H25.7874" stroke="black" stroke-width="1.01309" stroke-linecap="round" stroke-linejoin="round"/>
<path d="M30.3836 54.6641C30.1779 54.9265 30.0313 55.2302 29.954 55.5545C29.8522 56.0334 29.8138 56.5236 29.84 57.0125C29.8472 57.4925 29.9072 57.9845 30.3632 58.2365C31.0484 58.6193 31.8716 58.0721 31.9076 57.2873C31.9468 56.6973 32.0623 56.1149 32.2508 55.5545C32.258 55.5269 32.2664 55.5029 32.2736 55.4801" stroke="black" stroke-width="1.01309" stroke-linecap="round" stroke-linejoin="round"/>
<path d="M32.2773 55.483C32.8485 55.363 33.6993 55.0498 34.1325 54.2422" stroke="black" stroke-width="1.01309" stroke-linecap="round" stroke-linejoin="round"/>
<path d="M28.3789 58.5C28.3789 58.5 28.8277 59.6832 29.9569 59.8272C31.0861 59.9712 30.3721 58.5 30.3721 58.5C30.3721 58.5 30.8401 59.5368 31.4065 59.5716C31.9729 59.6064 32.4625 59.0916 32.2669 58.5C32.2669 58.5 32.4397 59.4516 33.2773 59.3472C34.1149 59.2428 33.7693 58.5 33.7693 58.5" stroke="black" stroke-width="1.01309" stroke-linecap="round" stroke-linejoin="round"/>
<g opacity="0.54">
<path opacity="0.54" d="M15.4964 75.355L14.6864 87.0526C14.2472 87.847 13.7528 88.5502 13.3124 88.9846C13.2536 88.963 13.1924 88.9414 13.136 88.915C13.028 88.8778 12.9212 88.8346 12.8192 88.795C11.1776 88.075 9.93916 86.7347 9.56716 85.2215C9.24076 83.8907 9.53596 82.453 8.90236 81.2026C8.12956 79.663 6.02236 78.697 5.76916 76.9582C5.52916 75.3322 6.99196 73.8383 6.75556 72.2471C6.48196 70.4471 4.27156 69.3766 3.85876 67.6163C3.60076 66.5219 3.83116 65.2667 3.73876 64.1363C3.62956 62.8769 3.41632 61.6286 3.10156 60.4043C6.36436 60.1643 9.68596 61.9643 10.7432 64.5406C11.6072 66.649 11.0864 69.1126 12.4388 71.0338C13.1732 72.0742 14.3972 72.8519 15.0296 73.9415C15.2246 74.2809 15.3658 74.6484 15.4484 75.031C15.4544 75.0574 15.4544 75.085 15.4592 75.1054C15.4652 75.1486 15.47 75.181 15.4748 75.2134C15.4856 75.307 15.4964 75.355 15.4964 75.355Z" fill="#2A902D"/>
<path opacity="0.54" d="M15.5003 75.3501H15.4943C15.4943 75.3501 15.4835 75.3021 15.4727 75.2109C15.4829 75.2479 15.4901 75.2856 15.4943 75.3237C15.5003 75.3333 15.5003 75.3441 15.5003 75.3501Z" fill="#2A902D"/>
</g>
<path d="M26.2822 70.7875C25.8526 72.3055 23.5462 73.2283 23.2666 74.7847C23.0194 76.1635 24.5434 77.4511 24.2914 78.8515C24.0238 80.3551 21.8338 81.1867 21.0298 82.5175C20.3746 83.5975 20.6806 84.8347 20.3422 85.9831C19.951 87.2875 18.6622 88.4515 16.9402 89.0683C16.8334 89.1067 16.7314 89.1439 16.6234 89.1763C16.5646 89.1919 16.5034 89.2135 16.441 89.2291C15.8722 88.7623 15.223 87.9415 14.6914 87.0559L15.5014 75.3583H15.5074C16.135 74.8267 16.8538 74.3383 17.353 73.7479C17.8954 73.1095 18.1474 72.4123 18.313 71.6827H18.3154V71.6023C18.5554 70.4479 18.5734 69.2407 19.1158 68.1463C20.215 65.9191 23.665 64.3687 27.0622 64.5727C26.7419 65.6243 26.5226 66.7039 26.407 67.7971C26.3086 68.7643 26.551 69.8479 26.2822 70.7875Z" fill="#2A902D"/>
<path d="M18.3164 71.5859V71.6663H18.3008C18.3092 71.6387 18.3164 71.6123 18.3164 71.5859Z" fill="#2A902D"/>
<path d="M18.3184 71.5882C18.3184 71.6146 18.3076 71.641 18.3028 71.6686C18.142 72.3982 17.89 73.0954 17.3428 73.7338C16.8436 74.3242 16.1248 74.8138 15.4972 75.3442C15.4972 75.3442 15.4972 75.3274 15.4912 75.3226C15.487 75.2846 15.4798 75.2468 15.4696 75.2098C15.4696 75.1774 15.46 75.145 15.454 75.1018C15.454 75.0814 15.454 75.0538 15.4432 75.0274C15.3606 74.6449 15.2194 74.2773 15.0244 73.9378C14.392 72.8482 13.168 72.0706 12.4336 71.0302C12.4336 71.0302 12.766 65.5462 15.5716 63.877C18.2368 62.299 18.3184 70.675 18.3184 71.5882Z" fill="#2A902D"/>
<path d="M18.3164 71.5859V71.6663H18.3008C18.3092 71.6387 18.3164 71.6123 18.3164 71.5859Z" fill="#2A902D"/>
<path d="M15.4982 75.3237V75.3501C15.4982 75.3501 15.4874 75.3021 15.4766 75.2109C15.4868 75.2479 15.494 75.2856 15.4982 75.3237Z" fill="#2A902D"/>
<path d="M15.2502 75.3553C15.8754 74.8225 16.6002 74.3281 17.1018 73.7389C18.5082 72.0781 17.967 69.9565 18.8694 68.1361C19.9674 65.9113 23.4294 64.3609 26.8182 64.5649C26.4949 65.6158 26.2747 66.6957 26.1606 67.7893C26.0598 68.7625 26.301 69.8473 26.0406 70.7893C25.6086 72.3061 23.3034 73.2265 23.0226 74.7841C22.7742 76.1617 24.3018 77.4493 24.0486 78.8497C23.7798 80.3533 21.5922 81.1837 20.7858 82.5145C20.1294 83.5945 20.4378 84.8317 20.097 85.9825C19.6842 87.3697 18.2526 88.5961 16.377 89.1733C16.317 89.1937 16.257 89.2141 16.1922 89.2297C15.6234 88.7629 14.9742 87.9433 14.4414 87.0565" stroke="black" stroke-width="1.01309" stroke-miterlimit="10"/>
<path d="M24.7408 66.3047C19.678 71.7539 17.3008 83.2439 16.3708 89.1707C16.2952 89.6711 16.2268 90.1307 16.168 90.5411" stroke="black" stroke-width="1.01309" stroke-miterlimit="10"/>
<path d="M25.2093 93.875L22.8765 107.62C22.8214 107.997 22.6345 108.342 22.3488 108.593C22.063 108.845 21.6973 108.988 21.3165 108.995H9.15331C8.76943 108.987 8.40115 108.841 8.11507 108.585C7.82899 108.329 7.64395 107.979 7.59331 107.598L5.44531 93.875H25.2093Z" stroke="black" stroke-width="1.01309" stroke-miterlimit="10"/>
<path d="M27.4219 92.3505C27.3559 93.2169 26.6695 93.8841 25.8463 93.8841H4.84633C4.03153 93.8841 3.35113 93.2313 3.27313 92.3745C3.18313 91.3953 3.91393 90.5469 4.84633 90.5469H25.8463C26.7703 90.5469 27.4975 91.3785 27.4219 92.3505Z" stroke="black" stroke-width="1.01309" stroke-miterlimit="10"/>
<path d="M13.0624 88.9861C13.9636 88.0909 15.0664 86.0989 15.556 84.4705C15.958 83.1277 15.2488 81.7465 15.0868 80.3701C14.8324 78.2101 15.904 75.8953 14.7748 73.9417C14.146 72.8521 12.922 72.0769 12.1876 71.0329C10.834 69.1129 11.3536 66.6529 10.4884 64.5445C9.43476 61.9633 6.11316 60.1693 2.85156 60.4033C3.16332 61.6292 3.3744 62.8785 3.48276 64.1389C3.57996 65.2657 3.34716 66.5209 3.60276 67.6189C4.01676 69.3793 6.22956 70.4449 6.50076 72.2485C6.74076 73.8433 5.27436 75.3349 5.51556 76.9585C5.77476 78.6997 7.87356 79.6621 8.64996 81.2041C9.27996 82.4569 8.98476 83.8921 9.31236 85.2217C9.72276 86.8825 11.1748 88.3417 13.0624 88.9861Z" stroke="black" stroke-width="1.01309" stroke-miterlimit="10"/>
<path d="M4.84375 62.4219C9.70375 68.7339 11.991 82.0419 12.8838 88.9119C12.9606 89.5119 13.029 90.0531 13.083 90.5415" stroke="black" stroke-width="1.01309" stroke-miterlimit="10"/>
<path d="M12.1914 71.031C12.1914 71.031 12.525 65.547 15.3294 63.879C18.1338 62.211 18.0786 71.5614 18.0786 71.5614" stroke="black" stroke-width="1.01309" stroke-miterlimit="10"/>
<path d="M15.249 75.3626C15.249 75.3626 14.6754 72.2246 15.6798 69.1406" stroke="black" stroke-width="1.01309" stroke-miterlimit="10"/>
<path d="M79.7957 58.5H69.2969" stroke="black" stroke-width="1.01309" stroke-linecap="round" stroke-linejoin="round"/>
<path d="M79.9699 55.5625H69.6367" stroke="black" stroke-width="1.01309" stroke-linecap="round" stroke-linejoin="round"/>
<path d="M6.29688 109H73.1585" stroke="black" stroke-width="1.01309" stroke-miterlimit="10"/>
</svg>
