<svg width="32" height="32" viewBox="0 0 32 32" fill="none" xmlns="http://www.w3.org/2000/svg">
<mask id="mask0_269_48464" style="mask-type:alpha" maskUnits="userSpaceOnUse" x="0" y="0" width="32" height="32">
<rect width="32" height="32" fill="#737791"/>
</mask>
<g mask="url(#mask0_269_48464)">
<path d="M8 29.3307C6.88889 29.3307 5.94444 28.9418 5.16667 28.1641C4.38889 27.3863 4 26.4418 4 25.3307V21.3307H8V2.66406H28V25.3307C28 26.4418 27.6111 27.3863 26.8333 28.1641C26.0556 28.9418 25.1111 29.3307 24 29.3307H8ZM24 26.6641C24.3778 26.6641 24.6944 26.5363 24.95 26.2807C25.2056 26.0252 25.3333 25.7085 25.3333 25.3307V5.33073H10.6667V21.3307H22.6667V25.3307C22.6667 25.7085 22.7944 26.0252 23.05 26.2807C23.3056 26.5363 23.6222 26.6641 24 26.6641ZM12 11.9974V9.33073H24V11.9974H12ZM12 15.9974V13.3307H24V15.9974H12ZM8 26.6641H20V23.9974H6.66667V25.3307C6.66667 25.7085 6.79444 26.0252 7.05 26.2807C7.30556 26.5363 7.62222 26.6641 8 26.6641ZM8 26.6641H6.66667H20H8Z" fill="#737791"/>
</g>
</svg>
