<svg width="108" height="110" viewBox="0 0 108 110" fill="none" xmlns="http://www.w3.org/2000/svg">
<path d="M30.4141 32.0824C30.4141 32.0824 41.6941 13.3012 64.2421 20.6512C86.7541 28.0024 81.4345 55.9084 81.4201 55.9816C81.5185 55.4704 85.4185 54.9832 85.8313 54.9232C97.3357 53.2228 105.893 63.9232 106.741 74.4688C107.795 87.5488 97.6777 96.8128 86.1553 100.802" stroke="#CCDDE2" stroke-width="1.001" stroke-miterlimit="10"/>
<path d="M84.6719 106.938C84.3311 108.136 84.0838 108.822 84.0838 108.822H83.9062C84.187 108.21 84.4423 107.582 84.6719 106.938Z" fill="#353642"/>
<path d="M53.2797 59.6225C53.2797 59.6225 52.8741 62.0849 52.4541 64.3145C51.2541 64.3277 50.0541 64.3373 48.8673 64.3469C48.2673 60.9701 48.9189 58.3253 49.6929 56.5625C50.6685 58.7873 52.1421 59.4641 53.2797 59.6225Z" fill="#2A902D"/>
<path d="M73.0037 68.5031C70.5637 67.1893 67.9631 66.1989 65.2673 65.5571L64.3841 65.4047C64.3841 65.4047 63.7265 63.9095 63.7229 63.9047C63.4145 63.1211 62.9033 62.0807 62.7449 61.2551C62.5519 60.2798 62.505 59.2813 62.6057 58.2923C62.7785 56.8235 63.4625 53.7167 64.6985 52.7375C65.7293 51.9263 66.1541 52.0967 66.7385 50.8283C67.1585 49.9235 67.3289 48.4031 66.5129 47.7359C65.6081 47.0039 65.2217 47.3759 64.1393 47.4887C60.0257 47.8967 57.6749 44.9363 56.1629 41.5151C55.9229 40.9595 55.6733 40.3727 55.2809 39.8999C54.8309 39.3551 54.2081 39.2327 53.6981 38.7923C53.4809 38.6027 53.3321 38.2931 53.4365 38.0243C53.498 37.8957 53.5874 37.7826 53.6981 37.6931C54.6619 36.8052 55.8193 36.1539 57.0785 35.7911C59.0702 35.2152 61.1748 35.1495 63.1985 35.6003C65.3105 36.2999 67.2089 37.6247 68.4869 39.6491C70.2497 42.4463 70.6745 45.3479 69.6869 48.2399C68.6753 51.2015 67.5461 54.6803 69.4469 57.5303C71.9777 61.3163 73.5029 63.9791 73.0037 68.5031Z" fill="#2A902D"/>
<path d="M52.4592 64.3125C51.2592 64.3257 50.0592 64.3353 48.8724 64.3449C39.8292 64.3917 31.1736 64.2657 22.1016 65.8929" stroke="black" stroke-width="1.001" stroke-miterlimit="10"/>
<path d="M64.2422 65.3203C64.5866 65.3959 64.9274 65.4751 65.2682 65.5603C66.5967 65.8814 67.9046 66.2821 69.185 66.7603C70.4986 67.2491 71.7751 67.8321 73.0046 68.5051C73.0059 68.5039 73.0076 68.5033 73.0094 68.5033C73.0112 68.5033 73.0129 68.5039 73.0142 68.5051C74.9485 69.5532 76.7363 70.8516 78.3314 72.3667C79.6651 73.6662 80.8181 75.139 81.7598 76.7455C81.7679 76.7516 81.7742 76.7599 81.7778 76.7695C82.5416 78.0518 83.2048 79.3914 83.7614 80.7763C85.4222 84.8671 86.3642 89.5771 86.5082 94.2643C86.639 98.6911 86.0558 103.099 84.6758 106.936C84.4462 107.581 84.191 108.209 83.9102 108.82C83.8922 108.867 83.8682 108.909 83.8502 108.956" stroke="black" stroke-width="1.001" stroke-miterlimit="10"/>
<path d="M69.457 108.896C69.457 108.896 69.457 108.886 69.457 108.882C69.4647 108.862 69.4707 108.841 69.475 108.82" stroke="black" stroke-width="1.001" stroke-miterlimit="10"/>
<path d="M66.2891 81.9141C66.2891 81.9141 68.9003 83.1825 70.6163 87.1425C71.4791 89.1333 72.1187 91.8105 72.0815 95.3505C72.0815 95.3505 72.0815 95.3505 72.0815 95.3601C72.0623 97.6173 71.7647 100.224 71.0735 103.227V103.244" stroke="black" stroke-width="1.001" stroke-miterlimit="10"/>
<path d="M16.8711 31.6323C17.3319 29.8887 18.0711 28.0911 18.6267 27.3351C19.5003 26.1591 20.6403 25.0383 22.1067 25.1391C23.0487 25.2003 23.9739 25.7211 24.0159 26.7531C24.0555 27.8727 22.8747 29.1159 22.4955 30.1683C22.1355 31.1835 21.9711 32.3655 22.1607 33.4335C22.3503 34.5015 23.3091 35.3355 24.3435 35.5647C24.7359 35.6681 25.1531 35.6115 25.5039 35.4075C26.5167 34.7667 26.3043 33.0603 26.2635 32.0535C26.2155 30.9243 26.2167 29.6475 27.1803 28.8747C27.8883 28.3071 28.9623 28.6839 29.4843 29.3079C30.3915 30.3879 30.4359 32.0139 30.4815 33.3435C30.6171 37.3491 29.9055 41.1891 27.5727 44.5611C26.3727 46.3023 25.1367 47.8647 24.6507 50.0007C23.1387 56.6391 22.9707 61.2411 22.1019 67.9827" stroke="black" stroke-width="1.001" stroke-miterlimit="10"/>
<path d="M40.4213 108.996C35.7845 95.818 37.9805 81.4204 37.9805 81.4204L13.0733 82.21C12.0128 82.2436 10.9574 82.0494 9.97835 81.6407C8.99927 81.232 8.11919 80.6181 7.39727 79.8406C6.67547 79.063 6.12863 78.1397 5.79368 77.133C5.45876 76.1262 5.3435 75.0594 5.45567 74.0044L11.5565 51.7564L12.8765 47.0104C13.2974 45.517 13.2009 43.9252 12.6029 42.4936L11.9813 41.0104C11.9813 41.0104 10.8545 38.7124 13.3805 38.9284C14.7389 39.0484 16.0865 39.6256 17.2265 40.3504C18.1217 40.9204 19.4873 42.0232 19.0649 43.246C18.5657 44.686 16.6085 45.046 15.4589 44.236" stroke="black" stroke-width="1.001" stroke-miterlimit="10"/>
<path d="M12.5394 38.9195C12.5394 38.9195 10.4058 34.1195 16.2594 35.3615C22.113 36.6035 23.5146 42.9995 19.047 42.2795" stroke="black" stroke-width="1.001" stroke-miterlimit="10"/>
<path d="M14.4685 35.085C14.4685 35.085 12.5965 32.811 15.3949 31.725C18.1933 30.639 28.3549 35.7678 21.8365 40.8198" stroke="black" stroke-width="1.001" stroke-miterlimit="10"/>
<path d="M54.9609 59.5139C54.4177 59.6629 53.8497 59.6998 53.2917 59.6219C52.1493 59.4635 50.6757 58.7819 49.7049 56.5619C49.5033 56.1082 49.3395 55.6386 49.2153 55.1579C48.7209 53.3207 48.5049 50.7647 48.7941 47.2007C48.8505 46.5155 48.9345 45.8195 49.0509 45.1247C49.2437 43.916 49.5543 42.7291 49.9785 41.5811C49.9785 41.5811 49.9785 41.5715 49.9881 41.5667C51.0465 38.7683 52.9077 36.4067 56.0373 35.4983C58.3843 34.8212 60.8796 34.8572 63.2061 35.6015C65.3181 36.3011 67.2165 37.6259 68.4945 39.6503C70.2573 42.4475 70.6821 45.3491 69.6945 48.2411C68.6829 51.2027 67.5537 54.6815 69.4545 57.5315C71.9817 61.3235 73.5069 63.9863 73.0173 68.5103" stroke="black" stroke-width="1.001" stroke-miterlimit="10"/>
<path d="M47.9161 64.4851C46.9969 60.0775 48.2377 56.8638 49.2121 55.1562" stroke="black" stroke-width="1.001" stroke-miterlimit="10"/>
<path d="M49.0508 45.1176C49.0508 45.1176 51.0632 43.014 53.3948 46.3368" stroke="black" stroke-width="1.001" stroke-miterlimit="10"/>
<path d="M54.1747 55.7139C55.0255 56.2647 56.1775 55.9227 56.8039 55.0743C57.4843 54.1539 57.7567 52.9251 57.9043 51.8103C57.9139 51.7299 57.9247 51.6507 57.9319 51.5703C56.8939 53.2011 54.8791 53.5923 53.1055 53.7627C53.1727 54.2961 53.371 54.8044 53.6827 55.2423C53.8161 55.4287 53.9829 55.5885 54.1747 55.7139Z" stroke="black" stroke-width="1.001" stroke-linecap="round" stroke-linejoin="round"/>
<path d="M63.4167 63.0534L63.4102 63.0469" stroke="black" stroke-width="1.001" stroke-miterlimit="10"/>
<path d="M55.5 44.4743C55.5 44.4743 56.184 43.3667 58.5216 44.1827C60.8592 44.9987 60.8868 46.3319 60.8868 46.3319" stroke="black" stroke-width="1.001" stroke-miterlimit="10"/>
<path d="M50.1875 47.227C50.1875 47.227 51.2675 46.681 52.1135 47.227" stroke="black" stroke-width="1.001" stroke-miterlimit="10"/>
<path d="M56.0078 47.727C56.0078 47.727 57.0878 47.181 57.9278 47.727" stroke="black" stroke-width="1.001" stroke-miterlimit="10"/>
<path d="M53.2812 59.6177C53.2812 59.6177 52.8756 62.0801 52.4556 64.3097C52.3944 64.6265 52.3356 64.9385 52.2828 65.2469C52.008 66.7481 51.7884 68.0825 51.7788 68.4869C51.7092 71.8469 54.8856 73.7849 57.954 73.7525C62.2596 73.7057 64.7772 69.7001 64.3716 65.6885C64.1064 64.9565 63.8352 64.2245 63.57 63.4925C63.2292 62.5541 62.7864 61.6409 62.5944 60.6521C62.4248 59.6779 62.4062 58.6835 62.5392 57.7037C62.712 56.2397 62.9964 54.0569 64.2324 53.0777C65.2632 52.2665 66.3396 51.7337 66.9276 50.4653C67.3476 49.5605 67.3284 48.3953 66.5124 47.7281C65.6076 46.9961 64.176 47.0849 63.0936 47.1917C56.112 47.9057 54.9504 40.8389 53.0616 39.8465C51.5136 39.0293 50.352 40.8629 49.9884 41.5433L49.974 41.5721C49.9734 41.579 49.9704 41.5853 49.9656 41.5901C49.8996 41.7101 49.8672 41.7905 49.8672 41.7905" stroke="black" stroke-width="1.001" stroke-miterlimit="10"/>
<path d="M53.1021 48.0391C53.1021 48.0391 52.3725 50.4271 52.4289 50.7847C52.4853 51.1423 53.3361 50.8927 53.3361 50.8927" stroke="black" stroke-width="1.001" stroke-miterlimit="10"/>
<path d="M58.8194 50.5616C59.9372 49.4458 59.9167 47.6131 58.7738 46.4681C57.6309 45.3232 55.7983 45.2996 54.6806 46.4155C53.5628 47.5312 53.5833 49.3639 54.7262 50.5088C55.8691 51.6537 57.7017 51.6773 58.8194 50.5616Z" stroke="black" stroke-width="1.001" stroke-miterlimit="10"/>
<path d="M51.5265 49.6708C52.6442 48.5551 52.6238 46.7224 51.4809 45.5775C50.3379 44.4326 48.5054 44.409 47.3876 45.5247C46.2699 46.6405 46.2903 48.4731 47.4333 49.618C48.5762 50.763 50.4088 50.7866 51.5265 49.6708Z" stroke="black" stroke-width="1.001" stroke-miterlimit="10"/>
<path d="M49.3918 45.3781C49.7104 45.3766 50.0257 45.4419 50.3176 45.5698C50.6093 45.6978 50.8711 45.8854 51.0859 46.1208C51.3007 46.356 51.4638 46.6338 51.5647 46.9359C51.6657 47.2381 51.7021 47.5581 51.6718 47.8753C51.6211 48.4086 51.373 48.9037 50.976 49.2634C50.5791 49.6231 50.0619 49.8213 49.5262 49.8193C49.2076 49.8207 48.8922 49.7553 48.6004 49.6274C48.3087 49.4996 48.0468 49.3119 47.832 49.0766C47.6172 48.8413 47.4541 48.5636 47.3532 48.2614C47.2523 47.9592 47.2158 47.6392 47.2462 47.3221C47.2968 46.7888 47.545 46.2937 47.9419 45.9339C48.3389 45.5743 48.8561 45.3759 49.3918 45.3781ZM49.3918 45.0469C48.7745 45.0453 48.1788 45.2745 47.7217 45.6894C47.2647 46.1043 46.9791 46.675 46.921 47.2897C46.8592 47.968 47.0635 48.6439 47.4911 49.1742C47.9187 49.7046 48.5357 50.0478 49.2118 50.1313C49.3153 50.1436 49.4195 50.15 49.5238 50.1505C50.1418 50.1529 50.7383 49.9242 51.1961 49.5091C51.654 49.0941 51.9401 48.5229 51.9982 47.9077C52.06 47.2293 51.8556 46.5535 51.4281 46.0231C51.0005 45.4928 50.3835 45.1496 49.7074 45.0661C49.6038 45.0537 49.4997 45.0474 49.3954 45.0469H49.3918Z" fill="white"/>
<path d="M53.8671 48.1391L52.3359 47.9531" stroke="black" stroke-width="1.001" stroke-miterlimit="10"/>
<path d="M58.5846 50.3261C59.5757 49.3367 59.5577 47.7119 58.5444 46.697C57.5312 45.6819 55.9064 45.6611 54.9153 46.6505C53.9243 47.6398 53.9421 49.2647 54.9554 50.2797C55.9687 51.2947 57.5935 51.3155 58.5846 50.3261Z" fill="#2A902D"/>
<path d="M51.2897 49.4375C52.2813 48.4477 52.2634 46.8221 51.2496 45.8066C50.236 44.7912 48.6103 44.7704 47.6188 45.7602C46.6272 46.7501 46.6452 48.3756 47.6589 49.391C48.6726 50.4066 50.2981 50.4273 51.2897 49.4375Z" fill="#2A902D"/>
<path d="M26.0571 7.73601C22.5771 7.91361 19.6971 10.7024 19.4199 14.1728C19.3372 15.1411 19.4571 16.116 19.772 17.0354C20.0869 17.9547 20.5898 18.7984 21.2487 19.5128C21.7346 20.0473 22.3015 20.5021 22.9287 20.8604C23.0924 20.9549 23.2469 21.0641 23.3907 21.1868C24.3298 21.6609 25.3669 21.9087 26.4189 21.9104C27.4711 21.9121 28.5088 21.6675 29.4495 21.1964C29.5863 21.0693 29.7382 20.9598 29.9019 20.87C30.5548 20.4967 31.1449 20.0228 31.6503 19.466C31.6631 19.4479 31.6772 19.4306 31.6923 19.4144C32.6092 18.3765 33.1993 17.0911 33.3884 15.7193C33.5776 14.3475 33.3575 12.9504 32.7559 11.7031C32.1542 10.4558 31.1975 9.41397 30.0061 8.70825C28.8146 8.00253 27.4413 7.66425 26.0583 7.73601H26.0571ZM30.4131 18.7292C30.3998 18.7392 30.3889 18.7519 30.3807 18.7664C29.989 19.1947 29.5327 19.5591 29.0283 19.8464C28.9028 19.9152 28.7866 19.9999 28.6827 20.0984C27.9574 20.4614 27.1574 20.6504 26.3463 20.6504C25.5352 20.6504 24.7352 20.4614 24.0099 20.0984C23.8976 20.0025 23.7771 19.9166 23.6499 19.8416C22.6807 19.2841 21.9076 18.4405 21.4367 17.4262C20.966 16.4121 20.8204 15.2772 21.0202 14.177C21.2199 13.0769 21.7552 12.0655 22.5525 11.2815C23.3498 10.4977 24.37 9.97953 25.4734 9.79845C26.5767 9.61737 27.7091 9.78201 28.7152 10.2699C29.7213 10.7578 30.5517 11.5451 31.0927 12.5235C31.6336 13.5021 31.8586 14.624 31.7367 15.7356C31.6149 16.847 31.1521 17.8935 30.4119 18.7316L30.4131 18.7292Z" fill="#2A902D"/>
<path d="M29.45 21.2037C29.1738 21.4543 28.9534 21.7602 28.8029 22.1016C28.6524 22.4428 28.5752 22.8118 28.5764 23.1849V23.5065C28.5764 24.6297 27.7628 25.6365 26.6564 25.7493C26.3574 25.7799 26.0554 25.7476 25.7695 25.6545C25.4838 25.5613 25.2208 25.4094 24.9972 25.2084C24.7738 25.0074 24.5948 24.7618 24.4721 24.4875C24.3492 24.2132 24.2851 23.9162 24.284 23.6157V23.1849C24.2834 22.8098 24.2042 22.439 24.0517 22.0964C23.8992 21.7537 23.6767 21.4467 23.3984 21.1953C24.3376 21.668 25.3742 21.915 26.4257 21.9164C27.4771 21.9178 28.5144 21.6738 29.4548 21.2037H29.45Z" fill="#353642"/>
<path d="M29.45 21.2037C29.1738 21.4543 28.9534 21.7602 28.8029 22.1016C28.6524 22.4428 28.5752 22.8118 28.5764 23.1849V23.5065C28.5764 24.6297 27.7628 25.6365 26.6564 25.7493C26.3574 25.7799 26.0554 25.7476 25.7695 25.6545C25.4838 25.5613 25.2208 25.4094 24.9972 25.2084C24.7738 25.0074 24.5948 24.7618 24.4721 24.4875C24.3492 24.2132 24.2851 23.9162 24.284 23.6157V23.1849C24.2834 22.8098 24.2042 22.439 24.0517 22.0964C23.8992 21.7537 23.6767 21.4467 23.3984 21.1953C24.3376 21.668 25.3742 21.915 26.4257 21.9164C27.4771 21.9178 28.5144 21.6738 29.4548 21.2037H29.45Z" stroke="black" stroke-width="1.001" stroke-miterlimit="10"/>
<path d="M33.4565 14.765C33.4601 16.4819 32.8322 18.1403 31.6925 19.4246C31.6782 19.4401 31.665 19.4565 31.6529 19.4738C31.1466 20.0315 30.5552 20.5058 29.9009 20.879C29.7383 20.9698 29.587 21.0794 29.4497 21.2054C28.5092 21.6755 27.472 21.9195 26.4205 21.9181C25.3691 21.9166 24.3325 21.6697 23.3933 21.197C23.2499 21.0723 23.0947 20.9618 22.9301 20.867C21.771 20.2006 20.8256 19.2181 20.2045 18.0343C19.5833 16.8503 19.3121 15.5141 19.4225 14.1818C19.5686 12.371 20.4102 10.6873 21.7706 9.48342C23.1312 8.27958 24.9049 7.64935 26.7199 7.72483C28.5349 7.80019 30.2503 8.5755 31.5062 9.88794C32.7622 11.2005 33.461 12.9483 33.4565 14.765Z" stroke="black" stroke-width="1.001" stroke-miterlimit="10"/>
<path d="M24.4394 21.914L22.829 16.5764L22.4258 15.0644C22.4258 15.0189 22.4408 14.9747 22.4684 14.9386C22.4961 14.9026 22.5349 14.8767 22.5788 14.8649C22.6227 14.8532 22.6693 14.8562 22.7113 14.8736C22.7533 14.891 22.7883 14.9218 22.811 14.9612C23.171 15.5972 23.7398 16.3952 24.3062 16.3748C25.2458 16.3412 24.4742 13.4888 23.7062 13.7876C22.9382 14.0864 24.4106 15.9716 25.9274 16.2068C27.4442 16.442 27.029 13.892 25.9274 13.7912C24.8258 13.6904 25.5854 15.8384 27.5654 16.2068C29.5454 16.5752 29.1758 14.3948 28.6394 13.9592C28.103 13.5236 28.2698 16.0388 29.513 16.442C29.9066 16.5704 30.2198 16.2956 30.3734 15.9536C30.4622 15.7544 30.4166 14.7464 30.2342 15.0572C29.8622 15.6944 29.789 16.49 29.6066 17.1932C29.219 18.6812 28.6262 20.1056 28.2866 21.6068" stroke="black" stroke-width="1.001" stroke-miterlimit="10"/>
<path d="M13.8555 108.997C14.7051 108.599 93.0555 108.997 93.0555 108.997" stroke="black" stroke-width="1.001" stroke-miterlimit="10"/>
<path d="M26.4212 5.2276L26.3516 1" stroke="black" stroke-width="1.33588" stroke-miterlimit="10"/>
<path d="M18.3604 9.16094L15.4336 6.10938" stroke="black" stroke-width="1.33588" stroke-miterlimit="10"/>
<path d="M34.5117 9.34741L37.5033 6.35938" stroke="black" stroke-width="1.33588" stroke-miterlimit="10"/>
<path d="M79.3632 103.231L79.4652 103.24C79.41 103.25 79.3452 103.259 79.2888 103.273H79.2024L71.0772 103.231H70.1592L56.508 103.161C56.4564 103.161 56.4048 103.161 56.3532 103.161C56.3409 103.163 56.3283 103.163 56.316 103.161C56.316 103.161 56.316 103.161 56.3076 103.161C56.2217 103.162 56.1357 103.156 56.0508 103.143C56.7809 103.061 57.4728 102.773 58.0464 102.314C58.1364 102.238 58.2288 102.166 58.3128 102.085L58.3224 102.075C58.3419 102.059 58.3604 102.042 58.3776 102.023C59.0714 101.337 59.4869 100.419 59.544 99.4447C59.544 99.3979 59.544 99.3463 59.544 99.2995V99.2251C59.5398 98.3157 59.2227 97.4354 58.646 96.7322C58.0694 96.029 57.2682 95.5456 56.3772 95.3635C56.3759 95.3623 56.3742 95.3617 56.3724 95.3617C56.3706 95.3617 56.3689 95.3623 56.3676 95.3635C56.2788 95.3407 56.1768 95.3263 56.0832 95.3119L56.2836 95.2987C56.3163 95.2963 56.3492 95.2963 56.382 95.2987C56.4372 95.2987 56.4888 95.2987 56.5404 95.2987L68.0736 95.3587L70.1964 95.3683L72.0804 95.3779H72.9576H73.0644C73.0788 95.3779 73.0872 95.3779 73.1016 95.3779C74.0743 95.4759 74.9761 95.9311 75.6326 96.6555C76.2891 97.3798 76.6538 98.322 76.656 99.2995C76.6559 99.4855 76.6418 99.6712 76.614 99.8551C76.4779 100.769 76.0262 101.606 75.3372 102.221C74.6481 102.836 73.7654 103.19 72.8424 103.222C72.8004 103.222 72.7584 103.222 72.7224 103.222H79.5744C79.4748 103.226 79.41 103.226 79.3632 103.231Z" fill="white"/>
<path d="M61.0142 107.998C61.2734 108.258 61.5816 108.465 61.9209 108.606C62.2604 108.747 62.6243 108.819 62.9918 108.819H56.2982C55.0166 108.819 54.3206 108.507 53.813 107.998C53.2886 107.473 52.9935 106.762 52.9922 106.02C52.9922 104.487 54.251 103.227 56.2982 103.227H62.9918C62.4386 103.226 61.8976 103.389 61.4374 103.696C60.9772 104.003 60.6184 104.44 60.4066 104.95C60.1948 105.461 60.1395 106.024 60.2476 106.566C60.3559 107.109 60.6226 107.607 61.0142 107.998Z" fill="#D7E8F0"/>
<path d="M79.3922 103.239C79.3973 103.238 79.4027 103.238 79.4078 103.24C79.4026 103.24 79.3973 103.239 79.3922 103.239C79.3739 103.238 79.3559 103.235 79.3381 103.23H72.8438C73.6882 103.185 74.4957 102.869 75.1466 102.329C75.2446 102.249 75.3384 102.164 75.4274 102.073C75.5016 102.001 75.5718 101.925 75.6374 101.844C75.6875 101.789 75.734 101.73 75.7766 101.668C75.8042 101.634 75.8281 101.602 75.8509 101.569C75.8953 101.51 75.9354 101.447 75.9709 101.382C76.0255 101.306 76.074 101.226 76.1162 101.142C76.1609 101.062 76.201 100.98 76.2362 100.895C76.2542 100.858 76.2685 100.816 76.2925 100.775C76.3249 100.691 76.3525 100.607 76.3801 100.523C76.4185 100.403 76.4558 100.276 76.4834 100.151C76.5002 100.084 76.5125 100.015 76.5206 99.9458C76.526 99.9291 76.5292 99.9118 76.5301 99.8943C76.5354 99.8809 76.5387 99.8667 76.5397 99.8522C76.5397 99.8054 76.553 99.7634 76.5578 99.7166V99.689C76.5753 99.559 76.5833 99.4279 76.5818 99.2966C76.5833 99.2361 76.5802 99.1755 76.5722 99.1155V99.0734C76.5722 99.014 76.5674 98.9546 76.5578 98.8958C76.5261 98.572 76.4523 98.2538 76.3381 97.949C76.275 97.7662 76.1946 97.5898 76.0981 97.4222C76.0101 97.2535 75.9073 97.0929 75.7909 96.9422C75.7608 96.8983 75.7279 96.8562 75.6925 96.8162C75.6781 96.8018 75.6649 96.7826 75.6457 96.7646C75.5836 96.6829 75.515 96.6063 75.4406 96.5355C75.3854 96.4803 75.3205 96.4238 75.2641 96.3638C75.2077 96.3038 75.1142 96.233 75.035 96.1766C74.9558 96.1202 74.9042 96.0795 74.8346 96.0327C74.7311 95.9575 74.622 95.8905 74.5081 95.8322C74.4021 95.7704 74.2914 95.717 74.1769 95.6727C74.0445 95.616 73.9091 95.5663 73.7713 95.5238C73.7244 95.5064 73.6757 95.4939 73.6262 95.4866C73.4978 95.4501 73.3671 95.422 73.235 95.4027C73.169 95.3883 73.1042 95.3834 73.0346 95.375H73.025C73.016 95.3774 73.0064 95.3774 72.9974 95.375H73.025H73.0346C73.1042 95.3834 73.169 95.3883 73.235 95.4027C73.3671 95.422 73.4978 95.4501 73.6262 95.4866C73.6757 95.4939 73.7244 95.5064 73.7713 95.5238C73.9091 95.5663 74.0445 95.616 74.1769 95.6727C74.2914 95.717 74.4021 95.7704 74.5081 95.8322C74.622 95.8905 74.7311 95.9575 74.8346 96.0327C74.9042 96.0795 74.9558 96.1202 75.035 96.1766C75.1142 96.233 75.2077 96.3038 75.2641 96.3638C75.3205 96.4238 75.3854 96.4803 75.4406 96.5355C75.515 96.6063 75.5836 96.6829 75.6457 96.7646C75.6649 96.7826 75.6781 96.8018 75.6925 96.8162C75.7279 96.8562 75.7608 96.8983 75.7909 96.9422C75.9073 97.0929 76.0101 97.2535 76.0981 97.4222C76.1946 97.5898 76.275 97.7662 76.3381 97.949C76.4523 98.2538 76.5261 98.572 76.5578 98.8958C76.5674 98.9546 76.5722 99.014 76.5722 99.0734V99.1155C76.5802 99.1755 76.5833 99.2361 76.5818 99.2966C76.5833 99.4279 76.5753 99.559 76.5578 99.689V99.7166C76.553 99.7634 76.5397 99.8054 76.5397 99.8522C76.5387 99.8667 76.5354 99.8809 76.5301 99.8943C76.5292 99.9118 76.526 99.9291 76.5206 99.9458C76.5125 100.015 76.5002 100.084 76.4834 100.151C76.4558 100.276 76.4185 100.403 76.3801 100.523C76.3525 100.607 76.3249 100.691 76.2925 100.775C76.2685 100.816 76.2542 100.858 76.2362 100.895C76.201 100.98 76.1609 101.062 76.1162 101.142C76.074 101.226 76.0255 101.306 75.9709 101.382C75.9354 101.447 75.8953 101.51 75.8509 101.569C75.8281 101.602 75.8042 101.634 75.7766 101.668C75.734 101.73 75.6875 101.789 75.6374 101.844C75.5718 101.925 75.5016 102.001 75.4274 102.073C75.3384 102.164 75.2446 102.249 75.1466 102.329C74.4957 102.869 73.6882 103.185 72.8438 103.23H79.3381C79.3536 103.228 79.3695 103.228 79.385 103.23H79.3381C79.3559 103.235 79.3739 103.238 79.3922 103.239Z" fill="#2A902D"/>
<path d="M83.1412 99.3601C83.1412 99.4345 83.1412 99.5137 83.1316 99.5881C83.122 99.7141 83.1088 99.8353 83.0896 99.9565C83.08 100.021 83.0668 100.087 83.0524 100.152C83.0248 100.272 82.9925 100.404 82.9553 100.525C82.9133 100.659 82.8631 100.79 82.8053 100.918C82.7867 100.968 82.7634 101.016 82.7356 101.062C82.7356 101.076 82.7261 101.086 82.7165 101.099C82.6889 101.16 82.6564 101.219 82.624 101.276C82.5724 101.37 82.516 101.462 82.456 101.551C82.3852 101.659 82.306 101.756 82.2268 101.855C82.1463 101.953 82.0606 102.046 81.97 102.134C81.8751 102.231 81.7741 102.322 81.6676 102.406L81.5476 102.503C81.4112 102.606 81.2676 102.699 81.1181 102.782C81.0485 102.82 80.974 102.858 80.8996 102.895C80.8927 102.9 80.8843 102.903 80.8756 102.904C80.7916 102.946 80.7077 102.979 80.6237 103.012C80.5397 103.044 80.4557 103.076 80.3681 103.104C80.2793 103.128 80.1904 103.156 80.1016 103.175L80.0284 103.188C79.9588 103.204 79.8892 103.217 79.8184 103.228C79.6929 103.249 79.5663 103.264 79.4392 103.272C79.362 103.28 79.2842 103.283 79.2065 103.282C79.2065 103.282 79.192 103.282 79.1872 103.282L71.0752 103.242L69.1637 103.232L56.422 103.168C56.3751 103.167 56.3282 103.164 56.2816 103.158C56.1748 103.158 56.0716 103.148 55.9648 103.14C56.888 103.03 57.7431 102.6 58.3815 101.924C59.0198 101.248 59.4008 100.369 59.458 99.4417C59.458 99.3949 59.458 99.3433 59.458 99.2917V99.2413C59.4592 98.327 59.1439 97.4405 58.5658 96.7323C57.9877 96.0241 57.1824 95.5377 56.2865 95.3557C56.1929 95.3365 56.0992 95.3233 56.002 95.3089C56.0949 95.2981 56.1882 95.2921 56.2816 95.2909C56.3144 95.2885 56.3473 95.2885 56.38 95.2909H56.4592L69.2009 95.3557L72.0809 95.3701H73.0228H73.102L79.222 95.4025C79.4229 95.4032 79.6234 95.4189 79.822 95.4493C80.329 95.5324 80.8152 95.7129 81.2537 95.9809C81.3101 96.0133 81.3604 96.0505 81.412 96.0829C81.5676 96.1893 81.7155 96.3064 81.8548 96.4333C81.9016 96.4753 81.9436 96.5173 81.9904 96.5641C82.346 96.9243 82.6309 97.348 82.8304 97.8133L82.9012 97.9957C82.9249 98.0548 82.9449 98.1153 82.9612 98.1769C83.0809 98.5598 83.1416 98.9588 83.1412 99.3601Z" stroke="black" stroke-width="1.001" stroke-linecap="square" stroke-linejoin="round"/>
<path d="M76.5734 99.2852C76.5741 99.4162 76.5677 99.5472 76.5542 99.6776C76.5542 99.6872 76.5542 99.6956 76.5542 99.7052C76.5446 99.7664 76.5362 99.8252 76.5266 99.8828C76.5256 99.9003 76.5224 99.9177 76.517 99.9344C76.5089 100.003 76.4966 100.072 76.4798 100.14C76.4522 100.26 76.415 100.39 76.3766 100.512C76.349 100.596 76.3214 100.68 76.289 100.764C76.265 100.806 76.2506 100.848 76.2326 100.884C76.1974 100.968 76.1573 101.051 76.1126 101.131C76.0704 101.214 76.022 101.295 75.9674 101.371C75.9318 101.436 75.8918 101.499 75.8474 101.558C75.8246 101.59 75.8006 101.623 75.773 101.656C75.7304 101.718 75.6839 101.777 75.6338 101.833C75.5682 101.913 75.498 101.99 75.4238 102.062C75.3345 102.15 75.2408 102.234 75.143 102.313C74.4935 102.856 73.6864 103.175 72.8414 103.222C72.7994 103.222 72.7574 103.222 72.7214 103.222H56.4386C56.2898 103.222 56.1362 103.214 55.9814 103.2C56.0818 103.188 56.1815 103.17 56.2802 103.148C56.288 103.151 56.2964 103.151 56.3042 103.148H56.3126C57.0692 102.99 57.7631 102.615 58.3094 102.068L58.319 102.058C59.0135 101.356 59.4195 100.42 59.4566 99.4328C59.4566 99.386 59.4566 99.3344 59.4566 99.2828V99.278C59.4491 98.3162 59.0918 97.39 58.4514 96.6723C57.811 95.9546 56.9313 95.4946 55.9766 95.378C56.0798 95.3648 56.1818 95.36 56.285 95.3552C56.3111 95.3504 56.338 95.3504 56.3642 95.3552C56.3655 95.354 56.3672 95.3534 56.369 95.3534C56.3708 95.3534 56.3724 95.354 56.3738 95.3552C56.3937 95.3528 56.4138 95.3528 56.4338 95.3552H72.6314C72.7442 95.3552 72.851 95.3552 72.959 95.3696H72.9962C73.0052 95.372 73.0148 95.372 73.0238 95.3696H73.043L73.2338 95.3972C73.3659 95.4166 73.4966 95.4446 73.625 95.4812C73.6718 95.4908 73.7234 95.504 73.7702 95.5184C73.9079 95.5607 74.0433 95.6104 74.1758 95.6672C74.2874 95.714 74.4002 95.7704 74.507 95.8268C74.6198 95.8868 74.7288 95.9537 74.8334 96.0272C74.903 96.074 74.969 96.1196 75.0338 96.1712C75.0986 96.2228 75.1874 96.2912 75.263 96.3584C75.3386 96.4256 75.383 96.4784 75.4394 96.53C75.5102 96.6056 75.5798 96.68 75.6446 96.7592C75.6638 96.7772 75.677 96.7964 75.6914 96.8108L75.7898 96.9368C75.9021 97.0901 76.0047 97.2504 76.097 97.4168C76.1876 97.5874 76.2677 97.7633 76.337 97.9436C76.4471 98.2494 76.5208 98.5673 76.5566 98.8904C76.5566 98.9516 76.5662 99.0104 76.571 99.068V99.11C76.5734 99.164 76.5734 99.2252 76.5734 99.2852Z" stroke="black" stroke-width="1.001" stroke-linecap="square" stroke-linejoin="round"/>
<path d="M79.5687 108.822H56.2959C55.7772 108.836 55.2599 108.762 54.7659 108.604C54.6675 108.567 54.5751 108.529 54.4863 108.484C54.3975 108.437 54.3183 108.39 54.2391 108.343C54.1599 108.297 54.0903 108.237 54.0195 108.18C53.9499 108.119 53.8851 108.06 53.8239 107.998C53.5044 107.679 53.2677 107.287 53.1339 106.855C53.0489 106.587 53.0064 106.307 53.0079 106.025C53.007 105.916 53.0134 105.807 53.0271 105.699C53.0447 105.547 53.0774 105.397 53.1243 105.251C53.1892 105.021 53.2901 104.802 53.4231 104.603C53.499 104.473 53.5896 104.352 53.6931 104.243C53.7567 104.172 53.8239 104.105 53.8947 104.041C54.4635 103.534 55.2891 103.221 56.3103 103.221H79.5687C79.4751 103.221 79.4103 103.221 79.3635 103.221C79.348 103.218 79.3322 103.218 79.3167 103.221C79.2699 103.221 79.2795 103.221 79.3023 103.221C79.3036 103.222 79.3053 103.222 79.3071 103.222C79.3089 103.222 79.3106 103.222 79.3119 103.221C79.3226 103.223 79.3336 103.223 79.3443 103.221C79.3539 103.221 79.3587 103.221 79.3683 103.221C79.3167 103.23 79.2651 103.235 79.2135 103.248H79.2027C79.2027 103.248 79.1883 103.248 79.1835 103.248C78.5474 103.375 77.9747 103.717 77.5624 104.218C77.1501 104.719 76.9236 105.346 76.9215 105.995C76.9252 106.679 77.1776 107.338 77.6315 107.85C78.0855 108.361 78.7101 108.69 79.3887 108.775C79.2747 108.819 79.1679 108.822 79.5687 108.822Z" stroke="black" stroke-width="1.001" stroke-linecap="square" stroke-linejoin="round"/>
<path d="M79.3793 108.805C79.2725 108.815 79.1657 108.819 79.0577 108.819H62.9861C62.6194 108.818 62.2564 108.746 61.9179 108.605C61.5794 108.464 61.2719 108.258 61.0133 107.998C60.694 107.679 60.4571 107.287 60.3233 106.855C60.2404 106.587 60.2 106.306 60.2033 106.025C60.2046 105.284 60.4991 104.574 61.0227 104.049C61.5461 103.525 62.2559 103.229 62.9969 103.227H79.0577C79.1369 103.227 79.2209 103.227 79.2977 103.236C79.3116 103.238 79.3258 103.238 79.3397 103.236C79.3493 103.236 79.3541 103.236 79.3637 103.236C79.3121 103.246 79.2605 103.251 79.2089 103.264H79.2005C79.2005 103.264 79.1861 103.264 79.1813 103.264C78.5453 103.39 77.9726 103.733 77.5602 104.234C77.148 104.734 76.9216 105.362 76.9193 106.011C76.923 106.695 77.1754 107.354 77.6294 107.865C78.0833 108.377 78.7079 108.706 79.3865 108.791L79.3793 108.805Z" stroke="black" stroke-width="1.001" stroke-linecap="square" stroke-linejoin="round"/>
<path d="M60.1934 106.025C60.1934 106.766 60.4878 107.476 61.0116 108C61.5355 108.524 62.2461 108.819 62.987 108.819H56.2946C55.0166 108.819 54.317 108.507 53.8082 107.998C53.5489 107.739 53.3433 107.431 53.2033 107.093C53.0632 106.754 52.9915 106.391 52.9922 106.025C52.9922 104.487 54.2474 103.227 56.2946 103.227H62.987C62.246 103.229 61.5362 103.525 61.0128 104.049C60.4892 104.574 60.1946 105.284 60.1934 106.025Z" stroke="black" stroke-width="1.001" stroke-linecap="square" stroke-linejoin="round"/>
<path d="M79.5674 108.818H79.0586C79.1666 108.818 79.2734 108.818 79.3802 108.805C79.2734 108.814 79.1666 108.818 79.5674 108.818Z" stroke="black" stroke-width="1.001" stroke-linecap="square" stroke-linejoin="round"/>
<path d="M79.343 103.241C79.2506 103.241 79.1522 103.227 79.0586 103.227H79.5674C79.2122 103.229 79.2542 103.241 79.343 103.241Z" stroke="black" stroke-width="1.001" stroke-linecap="square" stroke-linejoin="round"/>
<path opacity="0.54" d="M9.6015 98.2974L1.2711 76.9566C1.16789 76.5438 1.16014 76.1127 1.24842 75.6964C1.33671 75.28 1.51871 74.8893 1.7806 74.5539C2.0425 74.2184 2.3774 73.9471 2.75986 73.7604C3.14234 73.5738 3.56231 73.4767 3.9879 73.4766H37.0815C37.8244 73.4764 38.5457 73.7264 39.1294 74.1861C39.713 74.6458 40.1249 75.2887 40.2987 76.011L49.4187 97.3494C49.5176 97.7612 49.5218 98.1901 49.4311 98.6037C49.3403 99.0174 49.1569 99.405 48.8947 99.7376C48.6325 100.07 48.2983 100.339 47.9173 100.524C47.5361 100.708 47.1182 100.804 46.6947 100.804H12.8091C12.0715 100.804 11.3549 100.557 10.7737 100.103C10.1925 99.6488 9.77982 99.0133 9.6015 98.2974Z" fill="white"/>
<path d="M9.6015 98.2974L1.2711 76.9566C1.16789 76.5438 1.16014 76.1127 1.24842 75.6964C1.33671 75.28 1.51871 74.8893 1.7806 74.5539C2.0425 74.2184 2.3774 73.9471 2.75986 73.7604C3.14234 73.5738 3.56231 73.4767 3.9879 73.4766H37.0815C37.8244 73.4764 38.5457 73.7264 39.1294 74.1861C39.713 74.6458 40.1249 75.2887 40.2987 76.011L49.4187 97.3494C49.5176 97.7612 49.5218 98.1901 49.4311 98.6037C49.3403 99.0174 49.1569 99.405 48.8947 99.7376C48.6325 100.07 48.2983 100.339 47.9173 100.524C47.5361 100.708 47.1182 100.804 46.6947 100.804H12.8091C12.0715 100.804 11.3549 100.557 10.7737 100.103C10.1925 99.6488 9.77982 99.0133 9.6015 98.2974Z" fill="#2A902D"/>
<path d="M9.6015 98.2974L1.2711 76.9566C1.16789 76.5438 1.16014 76.1127 1.24842 75.6964C1.33671 75.28 1.51871 74.8893 1.7806 74.5539C2.0425 74.2184 2.3774 73.9471 2.75986 73.7604C3.14234 73.5738 3.56231 73.4767 3.9879 73.4766H37.0815C37.8244 73.4764 38.5457 73.7264 39.1294 74.1861C39.713 74.6458 40.1249 75.2887 40.2987 76.011L49.4187 97.3494C49.5176 97.7612 49.5218 98.1901 49.4311 98.6037C49.3403 99.0174 49.1569 99.405 48.8947 99.7376C48.6325 100.07 48.2983 100.339 47.9173 100.524C47.5361 100.708 47.1182 100.804 46.6947 100.804H12.8091C12.0715 100.804 11.3549 100.557 10.7737 100.103C10.1925 99.6488 9.77982 99.0133 9.6015 98.2974Z" stroke="black" stroke-width="1.001" stroke-linecap="square" stroke-linejoin="round"/>
<path d="M10.8199 97.4309L3.13988 77.7425C3.04455 77.3618 3.0372 76.9644 3.11839 76.5804C3.19957 76.1964 3.36718 75.836 3.60845 75.5264C3.84973 75.2169 4.15836 74.9665 4.5109 74.7941C4.86343 74.6216 5.25064 74.5317 5.64308 74.5312H36.1687C36.8541 74.5314 37.5195 74.7621 38.0578 75.1863C38.596 75.6106 38.976 76.2037 39.1363 76.87L47.5495 96.55C47.6407 96.93 47.6446 97.3256 47.561 97.7073C47.4772 98.0889 47.3082 98.4468 47.0662 98.7536C46.8244 99.0605 46.5162 99.3085 46.1646 99.4791C45.8131 99.6496 45.4274 99.7383 45.0367 99.7385H13.7815C13.1013 99.7387 12.4405 99.5118 11.904 99.0938C11.3674 98.6757 10.986 98.0905 10.8199 97.4309Z" fill="#2A902D"/>
<path d="M33.9639 78.1472C33.5595 77.5388 32.8983 77.2688 32.4855 77.5472C32.0727 77.8256 32.0667 78.5372 32.4711 79.1456C32.5348 79.2382 32.6063 79.3254 32.6847 79.406L29.6847 85.7384C29.2047 85.4192 28.6803 85.34 28.3035 85.592C28.1818 85.6806 28.081 85.7946 28.0083 85.9262C27.9354 86.058 27.8925 86.2039 27.8823 86.354L25.8327 85.6616L24.0411 85.0616L23.4555 84.8696C23.382 84.6496 23.28 84.4402 23.1519 84.2468C22.5831 83.3924 21.6543 83.0132 21.0747 83.3984C20.4951 83.7836 20.4891 84.7688 21.0423 85.6172L17.6331 90.2768C16.8891 89.666 16.0119 89.4776 15.4047 89.8808C14.5791 90.4316 14.5647 91.8656 15.3771 93.0848C15.4095 93.1328 15.4467 93.1736 15.4803 93.2192L13.2039 96.3296L13.1835 96.3596C13.1194 96.4461 13.0734 96.5448 13.0487 96.6495C13.0239 96.7543 13.0206 96.863 13.0392 96.969C13.0578 97.075 13.0978 97.1762 13.1567 97.2663C13.2156 97.3564 13.2922 97.4336 13.382 97.4931C13.4716 97.5526 13.5725 97.5933 13.6785 97.6125C13.7843 97.6319 13.893 97.6293 13.998 97.6053C14.1029 97.5812 14.2019 97.536 14.2888 97.4725C14.3757 97.4089 14.4488 97.3284 14.5035 97.2356L16.5279 94.1888C17.1663 94.5596 17.8479 94.6304 18.3435 94.2992C19.1331 93.7736 19.1703 92.444 18.4635 91.2632L21.7335 86.3276C22.2135 86.6552 22.7487 86.7392 23.1303 86.486C23.3436 86.3356 23.489 86.107 23.5347 85.85L23.7747 85.9184L25.5975 86.4164L27.9303 87.0452C28.0012 87.3246 28.1188 87.5899 28.2783 87.83C28.8459 88.6832 29.7759 89.0636 30.3555 88.6784C30.9351 88.2932 30.9423 87.2888 30.3747 86.4356C30.2909 86.3116 30.197 86.1949 30.0939 86.0864L32.9487 79.6316C33.2931 79.8716 33.6687 79.9256 33.9459 79.7444C34.3647 79.4768 34.3707 78.7568 33.9639 78.1472Z" fill="white"/>
<path d="M12.2419 78.501H7.81991C7.61651 78.5018 7.41731 78.4431 7.24679 78.3323C7.07615 78.2215 6.94175 78.0632 6.85991 77.877C6.83471 77.8199 6.82127 77.7582 6.82031 77.6958C6.82163 77.5752 6.87023 77.46 6.95579 77.3751C7.04147 77.2903 7.15703 77.2424 7.27751 77.2422H11.9803C11.7619 77.6154 11.8819 78.1338 12.2419 78.501Z" fill="#D7E8F0"/>
<path d="M15.1058 78.0474C15.1052 78.1678 15.057 78.2828 14.9719 78.3679C14.8867 78.4529 14.7714 78.5006 14.651 78.501H12.2426C11.8754 78.1338 11.7626 77.6154 11.9846 77.2422H14.1086C14.3117 77.2411 14.5106 77.2992 14.681 77.4094C14.8515 77.5195 14.9863 77.6771 15.0686 77.8626C15.0935 77.921 15.1061 77.9839 15.1058 78.0474Z" fill="#2A902D"/>
<path d="M13.997 78.4999C13.9841 78.524 13.9697 78.5472 13.9538 78.5695C13.637 79.0003 12.953 79.0411 12.4214 78.6523C12.3578 78.6065 12.2979 78.5555 12.2426 78.4999C11.8754 78.1327 11.7626 77.6143 11.9846 77.2411C11.9966 77.2165 12.0111 77.1932 12.0278 77.1715C12.341 76.7383 13.025 76.7011 13.5566 77.0863C13.6212 77.1328 13.6819 77.1846 13.7378 77.2411C14.1026 77.6095 14.2154 78.1231 13.997 78.4999Z" fill="white"/>
<path d="M16.2189 80.8208C16.2179 80.9414 16.1693 81.0568 16.0838 81.1417C15.9981 81.2267 15.8823 81.2744 15.7617 81.2744H11.1189C11.3433 80.8976 11.2317 80.384 10.8633 80.0156H15.2241C15.4275 80.0148 15.6267 80.0734 15.7972 80.1842C15.9678 80.2951 16.1022 80.4534 16.1841 80.6396C16.2076 80.697 16.2195 80.7587 16.2189 80.8208Z" fill="#2A902D"/>
<path d="M11.1172 81.2822H8.9332C8.73016 81.2833 8.5312 81.2252 8.3608 81.1151C8.19028 81.0049 8.05552 80.8474 7.9732 80.6618C7.948 80.6038 7.93456 80.5414 7.9336 80.4782C7.93324 80.4185 7.94476 80.3593 7.96744 80.3041C7.99012 80.2488 8.02348 80.1986 8.06572 80.1563C8.10784 80.114 8.158 80.0806 8.21308 80.0578C8.26828 80.035 8.32744 80.0232 8.3872 80.0234H10.8616C11.23 80.3882 11.3416 80.9018 11.1172 81.2822Z" fill="#D7E8F0"/>
<path d="M11.1176 81.2799C11.1077 81.3048 11.0944 81.3282 11.078 81.3495C10.7648 81.7839 10.0796 81.8211 9.54804 81.4359C9.48228 81.3886 9.42011 81.3364 9.36203 81.2799C9.00203 80.9127 8.88203 80.3979 9.10403 80.0211C9.11579 79.9968 9.13031 79.9738 9.14723 79.9527C9.46283 79.5207 10.1468 79.4811 10.6796 79.8687C10.7426 79.915 10.802 79.9659 10.8572 80.0211C11.2304 80.3859 11.342 80.8995 11.1176 81.2799Z" fill="white"/>
<path d="M12.6655 84.0413H9.88632C9.68328 84.0419 9.48444 83.9834 9.31404 83.873C9.14364 83.7626 9.00888 83.6052 8.92632 83.4197C8.90112 83.3625 8.88768 83.3008 8.88672 83.2384C8.88708 83.1172 8.93532 83.0012 9.021 82.9155C9.10668 82.8299 9.22272 82.7816 9.34392 82.7812H12.4015C12.1879 83.1521 12.3007 83.6669 12.6655 84.0413Z" fill="#2A902D"/>
<path d="M17.168 83.5822C17.1674 83.7024 17.1191 83.8173 17.0338 83.9019C16.9486 83.9865 16.8333 84.0338 16.7132 84.0334H12.6632C12.3032 83.665 12.1832 83.1502 12.404 82.7734H16.1732C16.3756 82.7733 16.5737 82.8324 16.7433 82.9431C16.9127 83.054 17.0462 83.2119 17.1272 83.3974C17.1532 83.4556 17.1671 83.5185 17.168 83.5822Z" fill="#D7E8F0"/>
<path d="M14.4164 84.0375C14.4046 84.0619 14.3901 84.0848 14.3732 84.1059C14.06 84.5403 13.376 84.5775 12.8444 84.1923C12.7805 84.1448 12.72 84.0931 12.6632 84.0375C12.3032 83.6691 12.1832 83.1543 12.404 82.7775C12.4166 82.7536 12.4311 82.7308 12.4472 82.7091C12.764 82.2783 13.448 82.2399 13.9796 82.6251C14.0427 82.6717 14.1024 82.7225 14.1584 82.7775C14.5208 83.1399 14.6408 83.6571 14.4164 84.0375Z" fill="white"/>
<path d="M30.6328 97.0413H27.8524C27.6493 97.0419 27.4505 96.9833 27.2801 96.873C27.1096 96.7626 26.9749 96.6052 26.8924 96.4196C26.8662 96.3628 26.8523 96.301 26.8516 96.2384C26.8519 96.1172 26.9002 96.0012 26.9858 95.9155C27.0715 95.8298 27.1876 95.7815 27.3088 95.7812H30.3676C30.1552 96.1605 30.268 96.6729 30.6328 97.0413Z" fill="#2A902D"/>
<path d="M41.6698 96.59C41.6697 96.6494 41.6578 96.7082 41.6349 96.7631C41.6121 96.8179 41.5786 96.8677 41.5365 96.9096C41.4944 96.9515 41.4443 96.9846 41.3894 97.0073C41.3345 97.0298 41.2756 97.0414 41.2162 97.0413H30.6358C30.2758 96.6729 30.1558 96.1581 30.3766 95.7813H40.675C40.8775 95.7811 41.0756 95.8401 41.2451 95.9509C41.4146 96.0618 41.548 96.2196 41.629 96.4052C41.6551 96.4634 41.669 96.5263 41.6698 96.59Z" fill="#D7E8F0"/>
<path d="M32.389 97.0375C32.3773 97.0619 32.3627 97.0848 32.3458 97.1059C32.0326 97.5403 31.3486 97.5775 30.817 97.1923C30.7529 97.1451 30.6925 97.0934 30.6358 97.0375C30.2758 96.6691 30.1558 96.1543 30.3766 95.7775C30.3892 95.7536 30.4037 95.7307 30.4198 95.7091C30.7366 95.2783 31.4206 95.2399 31.9522 95.6251C32.0153 95.6717 32.0751 95.7225 32.131 95.7775C32.4982 96.1459 32.611 96.6631 32.389 97.0375Z" fill="white"/>
</svg>
