<svg width="62" height="45" viewBox="0 0 62 45" fill="none" xmlns="http://www.w3.org/2000/svg">
<path d="M10.7881 27.8493C10.6716 27.8493 10.5598 27.803 10.4774 27.7206C10.395 27.6382 10.3487 27.5264 10.3487 27.4098V24.9028C10.3485 24.706 10.2702 24.5172 10.131 24.378C9.99178 24.2388 9.80306 24.1604 9.60619 24.1602H7.41437C7.21751 24.1604 7.02878 24.2388 6.88959 24.378C6.7504 24.5172 6.67211 24.706 6.67188 24.9028V27.4098C6.67188 27.5264 6.62558 27.6382 6.54316 27.7206C6.46075 27.803 6.34897 27.8493 6.23242 27.8493C6.11587 27.8493 6.00409 27.803 5.92168 27.7206C5.83927 27.6382 5.79297 27.5264 5.79297 27.4098V24.9028C5.79343 24.4729 5.9644 24.0608 6.26837 23.7568C6.57234 23.4528 6.98448 23.2818 7.41437 23.2812H9.60619C10.0361 23.2818 10.4482 23.4528 10.7522 23.7568C11.0562 24.0608 11.2271 24.4729 11.2276 24.9028V27.4098C11.2276 27.4675 11.2162 27.5247 11.1941 27.578C11.1721 27.6313 11.1397 27.6798 11.0989 27.7206C11.0581 27.7614 11.0096 27.7937 10.9563 27.8158C10.903 27.8379 10.8459 27.8493 10.7881 27.8493Z" fill="#2A902D"/>
<path d="M8.48145 23.7822C8.06955 23.7823 7.66687 23.6602 7.32434 23.4314C6.98181 23.2027 6.71481 22.8775 6.55711 22.497C6.39941 22.1165 6.3581 21.6977 6.43839 21.2937C6.51868 20.8897 6.71698 20.5186 7.0082 20.2273C7.29942 19.936 7.67048 19.7376 8.07445 19.6572C8.47843 19.5768 8.89717 19.6181 9.27773 19.7757C9.65828 19.9333 9.98355 20.2002 10.2124 20.5427C10.4413 20.8851 10.5634 21.2878 10.5634 21.6997C10.5628 22.2517 10.3433 22.781 9.95297 23.1714C9.56268 23.5617 9.03348 23.7814 8.48145 23.7822ZM8.48145 20.4961C8.2434 20.4961 8.0107 20.5667 7.81278 20.6989C7.61485 20.8312 7.46058 21.0192 7.36949 21.2391C7.27839 21.459 7.25456 21.701 7.301 21.9345C7.34744 22.1679 7.46207 22.3824 7.63039 22.5507C7.79871 22.719 8.01317 22.8337 8.24664 22.8801C8.48011 22.9266 8.72211 22.9027 8.94203 22.8116C9.16196 22.7205 9.34993 22.5663 9.48218 22.3683C9.61443 22.1704 9.68502 21.9377 9.68502 21.6997C9.6847 21.3806 9.55779 21.0746 9.33214 20.849C9.1065 20.6233 8.80055 20.4964 8.48145 20.4961Z" fill="#2A902D"/>
<path d="M23.5342 12.1636C23.527 12.1636 23.5196 12.1636 23.5124 12.1636C23.4511 12.1606 23.391 12.1447 23.3362 12.117C23.2814 12.0894 23.233 12.0505 23.1941 12.003L22.5368 11.1996C22.463 11.1094 22.4281 10.9936 22.4397 10.8776C22.4513 10.7617 22.5085 10.655 22.5987 10.5813C22.6889 10.5075 22.8047 10.4725 22.9207 10.4841C23.0367 10.4957 23.1433 10.5529 23.2171 10.6431L23.5669 11.0706L24.4282 10.2093C24.5111 10.1292 24.6221 10.085 24.7373 10.086C24.8526 10.087 24.9628 10.1332 25.0443 10.2147C25.1257 10.2961 25.172 10.4063 25.173 10.5216C25.174 10.6368 25.1297 10.7478 25.0496 10.8307L23.8445 12.0357C23.762 12.1177 23.6505 12.1637 23.5342 12.1636Z" fill="#2A902D"/>
<path d="M23.5342 23.5504C23.527 23.5504 23.5196 23.5504 23.5124 23.5504C23.4511 23.5473 23.3911 23.5314 23.3363 23.5037C23.2814 23.476 23.233 23.4372 23.1941 23.3897L22.5368 22.5862C22.463 22.496 22.4281 22.3802 22.4397 22.2642C22.4513 22.1483 22.5085 22.0416 22.5987 21.9678C22.6889 21.894 22.8047 21.8591 22.9207 21.8707C23.0367 21.8823 23.1433 21.9395 23.2171 22.0297L23.5669 22.4574L24.4282 21.5961C24.5108 21.5143 24.6224 21.4685 24.7386 21.4688C24.8548 21.469 24.9662 21.5153 25.0483 21.5975C25.1305 21.6797 25.1768 21.7911 25.177 21.9073C25.1773 22.0235 25.1314 22.1351 25.0496 22.2176L23.8445 23.4226C23.762 23.5046 23.6505 23.5505 23.5342 23.5504Z" fill="#2A902D"/>
<path d="M23.5342 34.9371C23.527 34.9371 23.5196 34.9371 23.5124 34.9371C23.4511 34.934 23.391 34.9182 23.3362 34.8905C23.2814 34.8628 23.233 34.8239 23.1941 34.7764L22.5368 33.9731C22.463 33.8829 22.4281 33.767 22.4397 33.6511C22.4513 33.5351 22.5085 33.4285 22.5987 33.3547C22.6889 33.2809 22.8047 33.2459 22.9207 33.2575C23.0367 33.2692 23.1433 33.3264 23.2171 33.4166L23.5669 33.8441L24.4282 32.9827C24.5111 32.9027 24.6221 32.8584 24.7373 32.8594C24.8526 32.8604 24.9628 32.9066 25.0443 32.9881C25.1257 33.0696 25.172 33.1798 25.173 33.295C25.174 33.4102 25.1297 33.5212 25.0496 33.6041L23.8445 34.8093C23.762 34.8912 23.6505 34.9372 23.5342 34.9371Z" fill="#2A902D"/>
<path d="M19.1505 15.7722H42.0117C42.1283 15.7722 42.2401 15.7259 42.3225 15.6435C42.4049 15.5611 42.4512 15.4493 42.4512 15.3328V6.90039C42.4512 6.78384 42.4049 6.67206 42.3225 6.58965C42.2401 6.50724 42.1283 6.46094 42.0117 6.46094H19.1505C19.034 6.46094 18.9222 6.50724 18.8398 6.58965C18.7574 6.67206 18.7111 6.78384 18.7111 6.90039V10.6771H18.1712C17.5679 10.6777 16.9894 10.9177 16.5628 11.3444C16.1361 11.7711 15.8961 12.3495 15.8954 12.9529V22.0619H14.3983C14.2845 20.5304 13.5815 19.1027 12.437 18.0788C11.2924 17.0549 9.79547 16.5147 8.26085 16.5716C6.72622 16.6285 5.27341 17.2781 4.20783 18.3839C3.14224 19.4898 2.54688 20.9656 2.54688 22.5013C2.54688 24.037 3.14224 25.5129 4.20783 26.6187C5.27341 27.7245 6.72622 28.3742 8.26085 28.4311C9.79547 28.488 11.2924 27.9477 12.437 26.9239C13.5815 25.9 14.2845 24.4722 14.3983 22.9408H15.8954V32.0498C15.8961 32.6531 16.1361 33.2316 16.5628 33.6583C16.9894 34.0849 17.5679 34.3249 18.1712 34.3256H18.7111V38.1023C18.7111 38.2188 18.7574 38.3306 18.8398 38.413C18.9222 38.4954 19.034 38.5417 19.1505 38.5417H42.0117C42.1283 38.5417 42.2401 38.4954 42.3225 38.413C42.4049 38.3306 42.4512 38.2188 42.4512 38.1023V29.6699C42.4512 29.5533 42.4049 29.4415 42.3225 29.3591C42.2401 29.2767 42.1283 29.2304 42.0117 29.2304H19.1505C19.034 29.2304 18.9222 29.2767 18.8398 29.3591C18.7574 29.4415 18.7111 29.5533 18.7111 29.6699V33.4467H18.1712C17.8009 33.4463 17.4458 33.299 17.1839 33.0371C16.922 32.7752 16.7747 32.4201 16.7743 32.0498V22.9408H18.7111V26.7174C18.7111 26.834 18.7574 26.9458 18.8398 27.0282C18.9222 27.1106 19.034 27.1569 19.1505 27.1569H42.0117C42.1283 27.1569 42.2401 27.1106 42.3225 27.0282C42.4049 26.9458 42.4512 26.834 42.4512 26.7174V18.2852C42.4512 18.1687 42.4049 18.0569 42.3225 17.9745C42.2401 17.8921 42.1283 17.8458 42.0117 17.8458H19.1505C19.034 17.8458 18.9222 17.8921 18.8398 17.9745C18.7574 18.0569 18.7111 18.1687 18.7111 18.2852V22.0619H16.7743V12.9529C16.7747 12.5825 16.922 12.2275 17.1839 11.9656C17.4458 11.7037 17.8009 11.5564 18.1712 11.556H18.7111V15.3328C18.7111 15.4493 18.7574 15.5611 18.8398 15.6435C18.9222 15.7259 19.034 15.7722 19.1505 15.7722ZM8.48253 27.5563C7.48276 27.5563 6.50544 27.2598 5.67416 26.7044C4.84288 26.1489 4.19497 25.3594 3.81238 24.4358C3.42978 23.5121 3.32967 22.4957 3.52472 21.5152C3.71977 20.5346 4.2012 19.6339 4.90815 18.9269C5.6151 18.22 6.5158 17.7386 7.49636 17.5435C8.47693 17.3485 9.49331 17.4486 10.417 17.8312C11.3406 18.2138 12.1301 18.8617 12.6856 19.693C13.241 20.5242 13.5375 21.5016 13.5375 22.5013C13.5359 23.8415 13.0029 25.1264 12.0552 26.074C11.1076 27.0217 9.82272 27.5547 8.48253 27.5563ZM19.59 30.1093H41.5723V37.6628H19.59V30.1093ZM19.59 18.7247H41.5723V26.278H19.59V18.7247ZM19.59 7.33984H41.5723V14.8933H19.59V7.33984Z" fill="#846F75"/>
<path d="M23.7676 8.14062C23.187 8.14062 22.6194 8.31279 22.1367 8.63535C21.6539 8.95792 21.2777 9.41639 21.0555 9.95279C20.8333 10.4892 20.7752 11.0794 20.8884 11.6489C21.0017 12.2183 21.2813 12.7414 21.6918 13.1519C22.1024 13.5625 22.6254 13.842 23.1949 13.9553C23.7643 14.0686 24.3546 14.0104 24.891 13.7883C25.4274 13.5661 25.8858 13.1898 26.2084 12.7071C26.531 12.2243 26.7031 11.6568 26.7031 11.0762C26.7022 10.2979 26.3926 9.55177 25.8423 9.00145C25.292 8.45113 24.5458 8.14156 23.7676 8.14062ZM23.7676 13.1328C23.3608 13.1328 22.9632 13.0122 22.625 12.7862C22.2868 12.5602 22.0232 12.239 21.8675 11.8632C21.7118 11.4874 21.6711 11.0739 21.7505 10.6749C21.8298 10.276 22.0257 9.90953 22.3133 9.62191C22.6009 9.33428 22.9674 9.1384 23.3663 9.05905C23.7653 8.97969 24.1788 9.02042 24.5546 9.17608C24.9304 9.33175 25.2516 9.59535 25.4776 9.93356C25.7036 10.2718 25.8242 10.6694 25.8242 11.0762C25.8237 11.6215 25.6068 12.1444 25.2213 12.5301C24.8357 12.9158 24.3129 13.1328 23.7676 13.1335V13.1328Z" fill="#846F75"/>
<path d="M28.6074 10.3633H33.6123C33.7288 10.3633 33.8406 10.317 33.923 10.2346C34.0054 10.1522 34.0517 10.0404 34.0517 9.92383C34.0517 9.80728 34.0054 9.6955 33.923 9.61309C33.8406 9.53067 33.7288 9.48438 33.6123 9.48438H28.6074C28.4909 9.48438 28.3791 9.53067 28.2967 9.61309C28.2143 9.6955 28.168 9.80728 28.168 9.92383C28.168 10.0404 28.2143 10.1522 28.2967 10.2346C28.3791 10.317 28.4909 10.3633 28.6074 10.3633Z" fill="#846F75"/>
<path d="M39.6707 11.6562H28.6074C28.4909 11.6562 28.3791 11.7025 28.2967 11.785C28.2143 11.8674 28.168 11.9792 28.168 12.0957C28.168 12.2123 28.2143 12.324 28.2967 12.4064C28.3791 12.4889 28.4909 12.5352 28.6074 12.5352H39.6707C39.7873 12.5352 39.8991 12.4889 39.9815 12.4064C40.0639 12.324 40.1102 12.2123 40.1102 12.0957C40.1102 11.9792 40.0639 11.8674 39.9815 11.785C39.8991 11.7025 39.7873 11.6562 39.6707 11.6562Z" fill="#846F75"/>
<path d="M23.7676 25.3945C24.3482 25.3945 24.9157 25.2224 25.3985 24.8998C25.8812 24.5772 26.2575 24.1188 26.4797 23.5824C26.7019 23.046 26.76 22.4557 26.6467 21.8863C26.5334 21.3168 26.2539 20.7938 25.8433 20.3832C25.4328 19.9727 24.9097 19.6931 24.3403 19.5798C23.7708 19.4666 23.1806 19.5247 22.6442 19.7469C22.1078 19.9691 21.6493 20.3453 21.3268 20.8281C21.0042 21.3108 20.832 21.8784 20.832 22.459C20.833 23.2372 21.1426 23.9833 21.6929 24.5337C22.2432 25.084 22.9893 25.3936 23.7676 25.3945ZM23.7676 20.4023C24.1743 20.4023 24.572 20.523 24.9102 20.749C25.2484 20.9749 25.512 21.2961 25.6677 21.6719C25.8233 22.0477 25.8641 22.4613 25.7847 22.8602C25.7053 23.2592 25.5095 23.6256 25.2218 23.9132C24.9342 24.2009 24.5678 24.3968 24.1688 24.4761C23.7699 24.5555 23.3563 24.5147 22.9805 24.3591C22.6047 24.2034 22.2835 23.9398 22.0575 23.6016C21.8316 23.2634 21.7109 22.8658 21.7109 22.459C21.7114 21.9136 21.9283 21.3907 22.3138 21.005C22.6994 20.6193 23.2222 20.4022 23.7676 20.4015V20.4023Z" fill="#846F75"/>
<path d="M28.6074 21.7461H33.6123C33.7288 21.7461 33.8406 21.6998 33.923 21.6174C34.0054 21.535 34.0517 21.4232 34.0517 21.3066C34.0517 21.1901 34.0054 21.0783 33.923 20.9959C33.8406 20.9135 33.7288 20.8672 33.6123 20.8672H28.6074C28.4909 20.8672 28.3791 20.9135 28.2967 20.9959C28.2143 21.0783 28.168 21.1901 28.168 21.3066C28.168 21.4232 28.2143 21.535 28.2967 21.6174C28.3791 21.6998 28.4909 21.7461 28.6074 21.7461Z" fill="#846F75"/>
<path d="M28.6074 23.918H39.6707C39.7873 23.918 39.8991 23.8717 39.9815 23.7893C40.0639 23.7068 40.1102 23.5951 40.1102 23.4785C40.1102 23.362 40.0639 23.2502 39.9815 23.1678C39.8991 23.0854 39.7873 23.0391 39.6707 23.0391H28.6074C28.4909 23.0391 28.3791 23.0854 28.2967 23.1678C28.2143 23.2502 28.168 23.362 28.168 23.4785C28.168 23.5951 28.2143 23.7068 28.2967 23.7893C28.3791 23.8717 28.4909 23.918 28.6074 23.918Z" fill="#846F75"/>
<path d="M23.7676 30.9062C23.187 30.9062 22.6194 31.0784 22.1367 31.401C21.6539 31.7235 21.2777 32.182 21.0555 32.7184C20.8333 33.2548 20.7752 33.8451 20.8884 34.4145C21.0017 34.9839 21.2813 35.507 21.6918 35.9175C22.1024 36.3281 22.6254 36.6077 23.1949 36.7209C23.7643 36.8342 24.3546 36.7761 24.891 36.5539C25.4274 36.3317 25.8858 35.9554 26.2084 35.4727C26.531 34.99 26.7031 34.4224 26.7031 33.8418C26.7021 33.0635 26.3926 32.3174 25.8422 31.7671C25.2919 31.2168 24.5458 30.9072 23.7676 30.9062ZM23.7676 35.8993C23.3608 35.8993 22.9632 35.7787 22.625 35.5527C22.2868 35.3267 22.0232 35.0055 21.8675 34.6297C21.7118 34.2539 21.6711 33.8404 21.7505 33.4414C21.8298 33.0425 22.0257 32.676 22.3133 32.3884C22.6009 32.1008 22.9674 31.9049 23.3663 31.8256C23.7653 31.7462 24.1788 31.7869 24.5546 31.9426C24.9304 32.0983 25.2516 32.3619 25.4776 32.7001C25.7036 33.0383 25.8242 33.4359 25.8242 33.8427C25.8235 34.3879 25.6066 34.9106 25.221 35.2961C24.8355 35.6817 24.3128 35.8986 23.7676 35.8993Z" fill="#846F75"/>
<path d="M28.6074 33.1289H33.6123C33.7288 33.1289 33.8406 33.0826 33.923 33.0002C34.0054 32.9178 34.0517 32.806 34.0517 32.6895C34.0517 32.5729 34.0054 32.4611 33.923 32.3787C33.8406 32.2963 33.7288 32.25 33.6123 32.25H28.6074C28.4909 32.25 28.3791 32.2963 28.2967 32.3787C28.2143 32.4611 28.168 32.5729 28.168 32.6895C28.168 32.806 28.2143 32.9178 28.2967 33.0002C28.3791 33.0826 28.4909 33.1289 28.6074 33.1289Z" fill="#846F75"/>
<path d="M39.6707 34.4219H28.6074C28.4909 34.4219 28.3791 34.4682 28.2967 34.5506C28.2143 34.633 28.168 34.7448 28.168 34.8613C28.168 34.9779 28.2143 35.0897 28.2967 35.1721C28.3791 35.2545 28.4909 35.3008 28.6074 35.3008H39.6707C39.7873 35.3008 39.8991 35.2545 39.9815 35.1721C40.0639 35.0897 40.1102 34.9779 40.1102 34.8613C40.1102 34.7448 40.0639 34.633 39.9815 34.5506C39.8991 34.4682 39.7873 34.4219 39.6707 34.4219Z" fill="#846F75"/>
<path d="M47.0483 28.3153V27.0114L52.8011 17.9091H53.7472V19.929H53.108L48.7614 26.8068V26.9091H56.5085V28.3153H47.0483ZM53.2102 31V27.919V27.3118V17.9091H54.7188V31H53.2102Z" fill="#383838"/>
</svg>
