<svg width="24" height="25" viewBox="0 0 24 25" fill="none" xmlns="http://www.w3.org/2000/svg">
<path d="M20.5605 18.9395L16.7528 15.1318C17.5395 13.946 18 12.5262 18 11C18 6.8645 14.6355 3.5 10.5 3.5C6.3645 3.5 3 6.8645 3 11C3 15.1355 6.3645 18.5 10.5 18.5C12.0262 18.5 13.446 18.0395 14.6318 17.2528L18.4395 21.0605C19.0245 21.6462 19.9755 21.6462 20.5605 21.0605C21.1462 20.4748 21.1462 19.5252 20.5605 18.9395ZM5.25 11C5.25 8.105 7.605 5.75 10.5 5.75C13.395 5.75 15.75 8.105 15.75 11C15.75 13.895 13.395 16.25 10.5 16.25C7.605 16.25 5.25 13.895 5.25 11Z" fill="#2A902D"/>
</svg>
