<svg width="32" height="32" viewBox="0 0 32 32" fill="none" xmlns="http://www.w3.org/2000/svg">
<path d="M15.9995 10.6641C17.414 10.6641 18.7706 11.226 19.7708 12.2262C20.771 13.2264 21.3329 14.5829 21.3329 15.9974C21.3329 17.4119 20.771 18.7684 19.7708 19.7686C18.7706 20.7688 17.414 21.3307 15.9995 21.3307C14.585 21.3307 13.2285 20.7688 12.2283 19.7686C11.2281 18.7684 10.6662 17.4119 10.6662 15.9974C10.6662 14.5829 11.2281 13.2264 12.2283 12.2262C13.2285 11.226 14.585 10.6641 15.9995 10.6641ZM15.9995 13.3307C15.2923 13.3307 14.614 13.6117 14.1139 14.1118C13.6138 14.6119 13.3329 15.2902 13.3329 15.9974C13.3329 16.7046 13.6138 17.3829 14.1139 17.883C14.614 18.3831 15.2923 18.6641 15.9995 18.6641C16.7068 18.6641 17.3851 18.3831 17.8851 17.883C18.3852 17.3829 18.6662 16.7046 18.6662 15.9974C18.6662 15.2902 18.3852 14.6119 17.8851 14.1118C17.3851 13.6117 16.7068 13.3307 15.9995 13.3307ZM13.3329 29.3307C12.9995 29.3307 12.7195 29.0907 12.6662 28.7707L12.1729 25.2374C11.3329 24.9041 10.6129 24.4507 9.91953 23.9174L6.59953 25.2641C6.3062 25.3707 5.9462 25.2641 5.7862 24.9707L3.11953 20.3574C3.03793 20.22 3.00916 20.0576 3.0386 19.9006C3.06805 19.7435 3.1537 19.6026 3.27953 19.5041L6.09286 17.2907L5.99953 15.9974L6.09286 14.6641L3.27953 12.4907C3.1537 12.3922 3.06805 12.2513 3.0386 12.0942C3.00916 11.9372 3.03793 11.7748 3.11953 11.6374L5.7862 7.02406C5.9462 6.73073 6.3062 6.61073 6.59953 6.73073L9.91953 8.06406C10.6129 7.54406 11.3329 7.09073 12.1729 6.7574L12.6662 3.22406C12.7195 2.90406 12.9995 2.66406 13.3329 2.66406H18.6662C18.9995 2.66406 19.2795 2.90406 19.3329 3.22406L19.8262 6.7574C20.6662 7.09073 21.3862 7.54406 22.0795 8.06406L25.3995 6.73073C25.6929 6.61073 26.0529 6.73073 26.2129 7.02406L28.8795 11.6374C29.0529 11.9307 28.9729 12.2907 28.7195 12.4907L25.9062 14.6641L25.9995 15.9974L25.9062 17.3307L28.7195 19.5041C28.9729 19.7041 29.0529 20.0641 28.8795 20.3574L26.2129 24.9707C26.0529 25.2641 25.6929 25.3841 25.3995 25.2641L22.0795 23.9307C21.3862 24.4507 20.6662 24.9041 19.8262 25.2374L19.3329 28.7707C19.2795 29.0907 18.9995 29.3307 18.6662 29.3307H13.3329ZM14.9995 5.33073L14.5062 8.81073C12.9062 9.14406 11.4929 9.9974 10.4662 11.1841L7.25286 9.7974L6.25286 11.5307L9.0662 13.5974C8.53286 15.153 8.53286 16.8418 9.0662 18.3974L6.23953 20.4774L7.23953 22.2107L10.4795 20.8241C11.5062 21.9974 12.9062 22.8507 14.4929 23.1707L14.9862 26.6641H17.0129L17.5062 23.1841C19.0929 22.8507 20.4929 21.9974 21.5195 20.8241L24.7595 22.2107L25.7595 20.4774L22.9329 18.4107C23.4662 16.8507 23.4662 15.1574 22.9329 13.5974L25.7462 11.5307L24.7462 9.7974L21.5329 11.1841C20.4852 9.97116 19.064 9.14096 17.4929 8.82406L16.9995 5.33073H14.9995Z" fill="#737791"/>
</svg>
