<svg width="17" height="16" viewBox="0 0 17 16" fill="none" xmlns="http://www.w3.org/2000/svg">
<path d="M0.598093 13.4706L2.92109 15.7037C3.119 15.894 3.38504 16 3.66406 16C3.94308 16 4.20912 15.894 4.40703 15.7037L6.73003 13.4706C7.14207 13.0745 7.14207 12.4351 6.73003 12.0421C6.52563 11.8456 6.25635 11.7458 5.98706 11.7458C5.71778 11.7458 5.44849 11.8456 5.24409 12.0421L4.70227 12.563L4.70227 0.998051C4.70227 0.446004 4.23832 -4.94151e-08 3.66406 0C3.0898 4.94151e-08 2.62585 0.446004 2.62585 0.998051L2.62585 12.563L2.08403 12.0421C1.67199 11.646 1.00689 11.646 0.598093 12.0421C0.186052 12.4382 0.186052 13.0776 0.598093 13.4706Z" fill="#6B6C7E"/>
<path fill-rule="evenodd" clip-rule="evenodd" d="M12.2892 12.0001C12.2903 12.5524 11.8434 13.0001 11.2911 13.0001L9.29105 13.0001C8.73878 13.0001 8.29021 12.5523 8.28915 12C8.28809 11.4478 8.73494 11 9.28721 11L11.2873 11.0001C11.8396 11.0001 12.2881 11.4478 12.2892 12.0001Z" fill="#6B6C7E"/>
<path fill-rule="evenodd" clip-rule="evenodd" d="M8.28913 8.00006C8.28913 7.44777 8.73685 7.00006 9.28913 7.00006H13.2891C13.8414 7.00006 14.2891 7.44777 14.2891 8.00006C14.2891 8.55234 13.8414 9.00006 13.2891 9.00006H9.28913C8.73685 9.00006 8.28913 8.55234 8.28913 8.00006Z" fill="#6B6C7E"/>
<path fill-rule="evenodd" clip-rule="evenodd" d="M8.28913 4C8.28913 3.44771 8.73685 3 9.28913 3H15.2891C15.8414 3 16.2891 3.44771 16.2891 4C16.2891 4.55228 15.8414 5 15.2891 5L9.28913 5C8.73685 5 8.28913 4.55228 8.28913 4Z" fill="#6B6C7E"/>
</svg>
