<svg width="33" height="33" viewBox="0 0 33 33" fill="none" xmlns="http://www.w3.org/2000/svg">
<path d="M28.2292 7.36232L25.94 6.86241L25.4326 4.60738L26.1387 3.91181C23.4765 1.87651 20.1336 0.664062 16.5029 0.664062C7.81576 0.664062 0.773438 7.60128 0.773438 16.1587C0.773438 24.7162 7.81576 31.6534 16.5029 31.6534C25.19 31.6534 32.2323 24.7162 32.2323 16.1587C32.2323 12.5822 31.0015 9.28922 28.9352 6.66675L28.2292 7.36232ZM16.5029 29.0836C9.25646 29.0836 3.38221 23.297 3.38221 16.1587C3.38221 9.02048 9.25646 3.2339 16.5029 3.2339C23.7493 3.2339 29.6235 9.02048 29.6235 16.1587C29.6235 23.297 23.7493 29.0836 16.5029 29.0836Z" fill="#EBE7F2"/>
<path d="M16.502 6.03125C10.8226 6.03125 6.21875 10.5664 6.21875 16.161C6.21875 21.7555 10.8226 26.2907 16.502 26.2907C22.1813 26.2907 26.7852 21.7555 26.7852 16.161C26.7852 10.5664 22.1813 6.03125 16.502 6.03125ZM16.502 23.1449C12.5863 23.1449 9.41217 20.0181 9.41217 16.161C9.41217 12.3039 12.5863 9.17701 16.502 9.17701C20.4177 9.17701 23.5917 12.3039 23.5917 16.161C23.5917 20.0181 20.4177 23.1449 16.502 23.1449Z" fill="#EBE7F2"/>
<path d="M16.502 20.581C18.9775 20.581 20.9844 18.6041 20.9844 16.1655C20.9844 13.7269 18.9775 11.75 16.502 11.75C14.0264 11.75 12.0195 13.7269 12.0195 16.1655C12.0195 18.6041 14.0264 20.581 16.502 20.581Z" fill="#2A902D"/>
<path d="M25.0025 4.70405L25.458 6.72723L16.1913 15.8556C16.0196 16.0246 16.0196 16.2987 16.1913 16.4677C16.2771 16.5522 16.3896 16.5944 16.5021 16.5944C16.6146 16.5944 16.7271 16.5522 16.8129 16.4677L26.0795 7.33934L28.1334 7.78799C28.165 7.79492 28.1968 7.79821 28.2285 7.79821C28.3438 7.79821 28.4559 7.75353 28.5392 7.67146L32.5423 3.72814C32.6559 3.61645 32.6984 3.45264 32.6534 3.30096C32.6086 3.14927 32.4832 3.03378 32.3266 2.99949L30.3108 2.55932L29.8639 0.573552C29.8291 0.419268 29.7119 0.295807 29.5579 0.251652C29.4043 0.207496 29.2378 0.249401 29.1242 0.361087L25.1212 4.30441C25.0146 4.40882 24.97 4.55964 25.0025 4.70405ZM28.088 6.89121L26.8162 6.61346L30.0824 3.39602L31.3542 3.67377L28.088 6.89121ZM29.1791 1.53094L29.461 2.78374L26.1948 6.00118L25.9129 4.74838L29.1791 1.53094Z" fill="#846F75"/>
<path d="M30.3003 7.8566C30.1735 7.65262 29.9032 7.58855 29.6959 7.7134C29.4889 7.83825 29.4238 8.10474 29.5506 8.30872C31.0162 10.6668 31.7909 13.3824 31.7909 16.1621C31.7909 24.4673 24.9317 31.2239 16.5009 31.2239C8.0701 31.2239 1.21094 24.4671 1.21094 16.1619C1.21094 7.85677 8.06992 1.10016 16.5009 1.10016C19.3357 1.10016 22.1036 1.86985 24.5051 3.32628C24.7118 3.45164 24.9825 3.3881 25.1096 3.18464C25.2369 2.981 25.1724 2.71434 24.9658 2.58915C22.4258 1.04856 19.4985 0.234375 16.5009 0.234375C7.58529 0.234375 0.332031 7.37955 0.332031 16.1619C0.332031 24.9443 7.58529 32.0895 16.5009 32.0895C25.4165 32.0895 32.6698 24.9445 32.6698 16.1619C32.6698 13.2228 31.8505 10.3508 30.3003 7.8566Z" fill="#846F75"/>
<path d="M16.5 6.46735C18.5489 6.46735 20.5126 7.08119 22.1788 8.24256C22.3769 8.3804 22.6511 8.33434 22.7914 8.13919C22.9315 7.94404 22.8846 7.67391 22.6864 7.53573C20.871 6.27047 18.7317 5.60156 16.5 5.60156C10.5874 5.60156 5.77734 10.3398 5.77734 16.1642C5.77734 21.9885 10.5874 26.7268 16.5 26.7268C22.4126 26.7268 27.2227 21.9885 27.2227 16.1642C27.2227 13.9594 26.5401 11.847 25.2486 10.0555C25.108 9.86055 24.8334 9.81501 24.6359 9.95319C24.4379 10.0917 24.3913 10.3618 24.532 10.5568C25.7173 12.2009 26.3438 14.14 26.3438 16.1642C26.3438 21.5109 21.9278 25.861 16.5 25.861C11.0722 25.861 6.65625 21.5109 6.65625 16.1642C6.65625 10.8174 11.0722 6.46735 16.5 6.46735Z" fill="#846F75"/>
</svg>
