<svg width="17" height="17" viewBox="0 0 17 17" fill="none" xmlns="http://www.w3.org/2000/svg">
<mask id="mask0_517_11624" style="mask-type:alpha" maskUnits="userSpaceOnUse" x="0" y="6" width="17" height="5">
<path d="M4.28906 8.5625C4.28906 9.66711 3.39355 10.5625 2.28906 10.5625C1.18457 10.5625 0.289062 9.66711 0.289062 8.5625C0.289062 7.45789 1.18457 6.5625 2.28906 6.5625C3.39355 6.5625 4.28906 7.45789 4.28906 8.5625Z" fill="#6B6C7E"/>
<path d="M10.2891 8.5625C10.2891 9.66711 9.39355 10.5625 8.28906 10.5625C7.18457 10.5625 6.28906 9.66711 6.28906 8.5625C6.28906 7.45789 7.18457 6.5625 8.28906 6.5625C9.39355 6.5625 10.2891 7.45789 10.2891 8.5625Z" fill="#6B6C7E"/>
<path d="M14.2891 10.5625C15.3936 10.5625 16.2891 9.66711 16.2891 8.5625C16.2891 7.45789 15.3936 6.5625 14.2891 6.5625C13.1846 6.5625 12.2891 7.45789 12.2891 8.5625C12.2891 9.66711 13.1846 10.5625 14.2891 10.5625Z" fill="#6B6C7E"/>
</mask>
<g mask="url(#mask0_517_11624)">
<rect x="0.289062" y="0.5625" width="16" height="16" fill="#6B6C7E"/>
</g>
</svg>
