<svg width="29" height="33" viewBox="0 0 29 33" fill="none" xmlns="http://www.w3.org/2000/svg">
<path d="M21.4082 20.2269L10.996 22.0021V20.714C10.996 21.5347 10.3306 22.2001 9.50975 22.2001H2.48623C1.66551 22.2001 1 21.5347 1 20.714V24.0313C1 24.8521 1.66533 25.5174 2.48623 25.5174H9.50975C9.51045 25.5174 9.51115 25.5172 9.51186 25.5172C10.2577 23.4908 12.2075 22.0415 14.4895 22.0415C16.1249 22.0415 17.5894 22.7863 18.5627 23.9538L21.4082 23.4755V25.124H27.9787V20.2266H21.4082V20.2269Z" fill="#EBE7F2"/>
<path d="M27.9901 12.1219H21.4196C21.1768 12.1219 20.9801 12.3186 20.9801 12.5614V13.6194C19.5263 12.3466 16.2557 9.45636 14.604 7.78292C13.1174 6.27665 12.5959 3.76737 12.4199 1.92747C12.3452 1.14647 11.8441 0.487996 11.1118 0.208504C10.3656 -0.07591 9.53643 0.0854576 8.94791 0.630204C8.91873 0.657098 8.89342 0.687859 8.8725 0.721609C8.7651 0.895281 6.26391 5.02386 8.1525 9.29393C8.25059 9.51594 8.51022 9.61614 8.73205 9.51805C8.95406 9.41997 9.05426 9.16034 8.95617 8.9385C7.36465 5.34009 9.31916 1.70827 9.58969 1.23559C9.93158 0.947137 10.3788 0.869793 10.7984 1.02993C11.2225 1.19165 11.5015 1.5585 11.5449 2.01132C11.7344 3.99307 12.3104 6.7103 13.9784 8.40044C15.9377 10.3857 20.1301 14.0471 20.9801 14.7864V23.12L19.7688 23.3266C19.5296 23.3673 19.3688 23.5943 19.4094 23.8337C19.4459 24.048 19.6319 24.1993 19.8421 24.1993C19.8667 24.1993 19.8915 24.1972 19.9165 24.193L20.9801 24.0116V25.1394C20.9801 25.3821 21.1768 25.5788 21.4196 25.5788H27.9901C28.2329 25.5788 28.4296 25.3821 28.4296 25.1394V12.5615C28.4296 12.3186 28.2329 12.1219 27.9901 12.1219ZM27.5507 24.6998H21.859V23.4907V14.5858V13.0008H27.5507V24.6998Z" fill="#846F75"/>
<path d="M8.31752 25.0899H2.496C1.91873 25.0899 1.44922 24.6204 1.44922 24.0432V12.8397C1.44922 12.2627 1.91873 11.793 2.496 11.793H9.51951C10.0966 11.793 10.5663 12.2625 10.5663 12.8397V21.851C10.5663 22.0938 10.763 22.2904 11.0057 22.2904C11.2485 22.2904 11.4452 22.0938 11.4452 21.851V12.8397C11.4452 11.7779 10.5814 10.9141 9.51951 10.9141H2.496C1.4341 10.9141 0.570312 11.7779 0.570312 12.8397V24.0432C0.570312 25.1051 1.43428 25.9688 2.496 25.9688H8.31752C8.56027 25.9688 8.75697 25.7721 8.75697 25.5294C8.75697 25.2866 8.56027 25.0899 8.31752 25.0899Z" fill="#846F75"/>
<path d="M14.5001 21.7891C11.4307 21.7891 8.93359 24.2862 8.93359 27.3555C8.93359 30.4248 11.4307 32.922 14.5001 32.922C17.5694 32.922 20.0665 30.4248 20.0665 27.3555C20.0665 24.2862 17.5694 21.7891 14.5001 21.7891ZM14.5001 32.0431C11.9154 32.0431 9.8125 29.9404 9.8125 27.3555C9.8125 24.7707 11.9154 22.668 14.5001 22.668C17.0847 22.668 19.1876 24.7708 19.1876 27.3555C19.1876 29.9402 17.0847 32.0431 14.5001 32.0431Z" fill="#846F75"/>
<path d="M14.4977 24.1484C14.0782 24.1484 13.7383 24.4884 13.7383 24.9078V27.5909C13.7383 28.0104 14.0782 28.3503 14.4977 28.3503C14.9171 28.3503 15.257 28.0104 15.257 27.5909V24.9078C15.257 24.4884 14.9171 24.1484 14.4977 24.1484Z" fill="#2A902D"/>
<path d="M14.4977 30.4875C14.917 30.4875 15.257 30.1475 15.257 29.7281C15.257 29.3087 14.917 28.9688 14.4977 28.9688C14.0783 28.9688 13.7383 29.3087 13.7383 29.7281C13.7383 30.1475 14.0783 30.4875 14.4977 30.4875Z" fill="#2A902D"/>
</svg>
