<svg width="21" height="20" viewBox="0 0 21 20" fill="none" xmlns="http://www.w3.org/2000/svg">
<path d="M2.20476 19.5H18.7952C20.4917 19.5 21.5493 17.6344 20.7011 16.1485L12.4058 1.61436C11.5576 0.128546 9.44244 0.128546 8.59419 1.61436L0.298949 16.1485C-0.549302 17.6344 0.508258 19.5 2.20476 19.5ZM10.5 11.6799C9.89411 11.6799 9.39837 11.1772 9.39837 10.5628V8.32846C9.39837 7.71402 9.89411 7.2113 10.5 7.2113C11.1059 7.2113 11.6016 7.71402 11.6016 8.32846V10.5628C11.6016 11.1772 11.1059 11.6799 10.5 11.6799ZM11.6016 16.1485H9.39837V13.9142H11.6016V16.1485Z" fill="#EE7700"/>
</svg>
