<svg width="32" height="32" viewBox="0 0 32 32" fill="none" xmlns="http://www.w3.org/2000/svg">
<mask id="mask0_2_15914" style="mask-type:alpha" maskUnits="userSpaceOnUse" x="0" y="0" width="32" height="32">
<rect width="32" height="32" fill="#D9D9D9"/>
</mask>
<g mask="url(#mask0_2_15914)">
<path d="M16 13.3333H22.6667V10.6667H16V13.3333ZM16 21.3333H22.6667V18.6667H16V21.3333ZM12 14.6667C12.7333 14.6667 13.3611 14.4056 13.8833 13.8833C14.4056 13.3611 14.6667 12.7333 14.6667 12C14.6667 11.2667 14.4056 10.6389 13.8833 10.1167C13.3611 9.59444 12.7333 9.33333 12 9.33333C11.2667 9.33333 10.6389 9.59444 10.1167 10.1167C9.59444 10.6389 9.33333 11.2667 9.33333 12C9.33333 12.7333 9.59444 13.3611 10.1167 13.8833C10.6389 14.4056 11.2667 14.6667 12 14.6667ZM12 22.6667C12.7333 22.6667 13.3611 22.4056 13.8833 21.8833C14.4056 21.3611 14.6667 20.7333 14.6667 20C14.6667 19.2667 14.4056 18.6389 13.8833 18.1167C13.3611 17.5944 12.7333 17.3333 12 17.3333C11.2667 17.3333 10.6389 17.5944 10.1167 18.1167C9.59444 18.6389 9.33333 19.2667 9.33333 20C9.33333 20.7333 9.59444 21.3611 10.1167 21.8833C10.6389 22.4056 11.2667 22.6667 12 22.6667ZM6.66667 28C5.93333 28 5.30556 27.7389 4.78333 27.2167C4.26111 26.6944 4 26.0667 4 25.3333V6.66667C4 5.93333 4.26111 5.30556 4.78333 4.78333C5.30556 4.26111 5.93333 4 6.66667 4H25.3333C26.0667 4 26.6944 4.26111 27.2167 4.78333C27.7389 5.30556 28 5.93333 28 6.66667V25.3333C28 26.0667 27.7389 26.6944 27.2167 27.2167C26.6944 27.7389 26.0667 28 25.3333 28H6.66667ZM6.66667 25.3333H25.3333V6.66667H6.66667V25.3333Z" fill="white"/>
</g>
</svg>
